<svg width="17" height="17" viewBox="0 0 17 17" fill="none" xmlns="http://www.w3.org/2000/svg">
<path d="M12.5048 8.96309C13.1085 8.96309 13.6398 8.63509 13.9135 8.13909L16.7953 2.94709C17.0931 2.41909 16.7067 1.76309 16.095 1.76309H4.1814L3.42473 0.163086H0.79248V1.76309H2.40242L5.30031 7.83509L4.2136 9.78709C3.62597 10.8591 4.39875 12.1631 5.6223 12.1631H15.2819V10.5631H5.6223L6.50777 8.96309H12.5048ZM4.94613 3.36309H14.7265L12.5048 7.36309H6.8539L4.94613 3.36309ZM5.6223 12.9631C4.73683 12.9631 4.02041 13.6831 4.02041 14.5631C4.02041 15.4431 4.73683 16.1631 5.6223 16.1631C6.50777 16.1631 7.23224 15.4431 7.23224 14.5631C7.23224 13.6831 6.50777 12.9631 5.6223 12.9631ZM13.672 12.9631C12.7865 12.9631 12.0701 13.6831 12.0701 14.5631C12.0701 15.4431 12.7865 16.1631 13.672 16.1631C14.5575 16.1631 15.2819 15.4431 15.2819 14.5631C15.2819 13.6831 14.5575 12.9631 13.672 12.9631Z" fill="#E4E4E4"/>
</svg>
