<svg width="418" height="418" viewBox="0 0 418 418" fill="none" xmlns="http://www.w3.org/2000/svg">
<path d="M372.856 121.763H250.758V110.812H372.856V121.763Z" fill="#FF9B27"/>
<mask id="mask0_922_610" style="mask-type:luminance" maskUnits="userSpaceOnUse" x="250" y="110" width="123" height="12">
<path d="M372.869 121.78H250.775V110.833H372.869V121.78Z" fill="white"/>
</mask>
<g mask="url(#mask0_922_610)">
<g style="mix-blend-mode:soft-light">
<path d="M241.855 112.944C245.283 114.783 249.295 114.992 253.183 115.201C264.636 115.73 276.089 116.26 287.542 116.789C299.623 117.333 312.706 118.294 321.651 126.445" stroke="white" stroke-width="4" stroke-miterlimit="10"/>
<path d="M275.922 109.6C306.31 117.165 338.204 114.198 369.428 116.497" stroke="white" stroke-width="4" stroke-miterlimit="10"/>
<path d="M322.32 124.522C324.41 120.133 330.262 119.506 335.111 119.632C349.657 120.05 364.12 122.056 378.541 124.104" stroke="white" stroke-width="4" stroke-miterlimit="10"/>
</g>
</g>
<path d="M372.856 121.763H360.316V110.812H372.856V121.763Z" fill="#E07307"/>
<path d="M372.856 181.37H250.758V170.419H372.856V181.37Z" fill="#FF9B27"/>
<mask id="mask1_922_610" style="mask-type:luminance" maskUnits="userSpaceOnUse" x="250" y="170" width="123" height="12">
<path d="M372.869 181.349H250.775V170.402H372.869V181.349Z" fill="white"/>
</mask>
<g mask="url(#mask1_922_610)">
<g style="mix-blend-mode:soft-light">
<path d="M246.119 173.47C273.916 175.978 301.378 167.409 329.05 163.731" stroke="white" stroke-width="4" stroke-miterlimit="10"/>
<path d="M244.154 177.65C263.215 179.907 282.359 176.145 301.503 174.348C327.043 171.965 352.959 173.136 378.206 177.817" stroke="white" stroke-width="4" stroke-miterlimit="10"/>
<path d="M370.097 181.287C358.352 179.949 346.564 179.155 334.735 178.904C320.564 178.57 305.851 179.113 293.269 185.634" stroke="white" stroke-width="4" stroke-miterlimit="10"/>
</g>
</g>
<path d="M372.856 181.37H360.316V170.419H372.856V181.37Z" fill="#E07307"/>
<path d="M350.535 50.9124C335.069 50.9124 338.413 74.9474 339.542 85.063C340.67 95.1368 342.008 110.812 345.853 110.812C349.657 110.812 350.535 110.812 350.535 110.812C350.535 110.812 351.455 110.812 355.258 110.812C359.062 110.812 360.442 95.1368 361.57 85.063C362.657 74.9474 366.043 50.9124 350.535 50.9124Z" fill="#E91E63"/>
<path d="M357.892 52.5844H343.22C341.882 52.5844 340.795 51.4976 340.795 50.16C340.795 48.8642 341.882 47.7774 343.22 47.7774H357.892C359.229 47.7774 360.316 48.8642 360.316 50.16C360.316 51.4976 359.229 52.5844 357.892 52.5844Z" fill="#2B2E4A"/>
<path d="M345.184 57.7258C345.226 60.401 345.143 62.9926 345.059 65.5842C345.017 68.1758 345.017 70.7256 345.017 73.2754C345.017 75.867 345.059 78.4168 345.101 81.0084C345.184 83.6 345.268 86.1916 345.268 88.825C344.265 86.3588 343.596 83.809 343.178 81.2174C342.718 78.584 342.509 75.9506 342.509 73.3172C342.509 70.642 342.676 68.0086 343.136 65.3752C343.554 62.7836 344.181 60.192 345.184 57.7258Z" fill="white"/>
<g style="mix-blend-mode:soft-light" opacity="0.5">
<path d="M356.596 52.5844H357.892C359.23 52.5844 360.316 51.4976 360.316 50.16C360.316 48.8642 359.23 47.7774 357.892 47.7774H354.13C355.468 47.7774 356.554 48.8642 356.554 50.16C356.554 51.4976 355.468 52.5844 354.13 52.5844H352.834C361.278 58.2274 358.728 76.5358 357.808 85.063C356.68 95.1368 355.342 110.812 351.497 110.812C352.207 110.812 353.378 110.812 355.259 110.812C359.062 110.812 360.442 95.1368 361.57 85.063C362.49 76.5358 365.04 58.2274 356.596 52.5844Z" fill="#231F20"/>
</g>
<path d="M313.375 76.494C295.944 76.494 296.864 88.2398 298.452 96.6834C300.04 105.127 302.256 110.812 305.767 110.812C309.278 110.812 313.375 110.812 313.375 110.812C313.375 110.812 317.513 110.812 321.024 110.812C324.493 110.812 326.709 105.127 328.297 96.6834C329.886 88.2398 330.847 76.494 313.375 76.494Z" fill="#2B2E4A"/>
<path d="M321.902 77.5808H304.889C302.632 77.5808 300.834 75.7416 300.834 73.4844C300.834 71.269 302.632 69.4298 304.889 69.4298H321.902C324.117 69.4298 325.956 71.269 325.956 73.4844C325.956 75.7416 324.117 77.5808 321.902 77.5808Z" fill="#E91E63"/>
<path d="M305.767 84.9376C305.809 86.1498 305.725 87.2366 305.725 88.2816C305.683 89.3266 305.683 90.3716 305.683 91.3748C305.683 92.4198 305.683 93.423 305.725 94.468C305.767 95.5548 305.851 96.5998 305.851 97.8538C304.889 97.0596 304.262 96.0146 303.802 94.886C303.384 93.7992 303.175 92.587 303.175 91.3748C303.175 90.2044 303.384 88.9922 303.802 87.8636C304.22 86.7768 304.847 85.7318 305.767 84.9376Z" fill="white"/>
<g style="mix-blend-mode:soft-light" opacity="0.5">
<path d="M321.149 77.5808H321.902C324.117 77.5808 325.956 75.7416 325.956 73.4844C325.956 71.269 324.117 69.4298 321.902 69.4298H316.844C319.101 69.4298 320.899 71.269 320.899 73.4844C320.899 75.7416 319.101 77.5808 316.844 77.5808H316.133C325.413 80.674 324.577 89.7864 323.281 96.6834C321.693 105.127 319.436 110.812 315.966 110.812C317.429 110.812 319.31 110.812 321.024 110.812C324.493 110.812 326.709 105.127 328.297 96.6834C329.593 89.7864 330.471 80.674 321.149 77.5808Z" fill="#231F20"/>
</g>
<path d="M283.195 83.5164H270.739C269.234 83.5164 267.938 84.6032 267.687 86.108L263.925 107.175C263.591 109.098 265.054 110.812 267.018 110.812H287.626C289.59 110.812 291.053 109.014 290.677 107.092L286.246 86.0244C285.954 84.5614 284.658 83.5164 283.195 83.5164Z" fill="#2B2E4A"/>
<path d="M285.118 84.9376H268.105C265.89 84.9376 264.051 83.1402 264.051 80.883C264.051 78.6258 265.89 76.8284 268.105 76.8284H285.118C287.375 76.8284 289.173 78.6258 289.173 80.883C289.173 83.1402 287.375 84.9376 285.118 84.9376Z" fill="#E91E63"/>
<path d="M272.327 85.6064C272.662 86.735 272.745 87.78 272.745 88.8668C272.773 89.9257 272.689 90.9707 272.494 92.0018C272.327 93.0329 272.076 94.0361 271.742 95.0114C271.366 96.0146 270.906 97.0178 270.237 97.9374C269.903 96.8506 269.777 95.7638 269.777 94.677C269.777 93.6459 269.861 92.6149 270.028 91.5838C270.195 90.5527 270.46 89.5356 270.822 88.5324C271.199 87.5292 271.617 86.5678 272.327 85.6064Z" fill="white"/>
<g style="mix-blend-mode:soft-light" opacity="0.5">
<path d="M290.677 107.092L286.246 86.0244C286.163 85.6064 285.995 85.2302 285.745 84.8958C287.709 84.5614 289.172 82.8894 289.172 80.883C289.172 78.6258 287.375 76.8284 285.118 76.8284H280.102C282.359 76.8284 284.198 78.6258 284.198 80.883C284.198 82.8894 282.693 84.5614 280.729 84.8958C280.979 85.2302 281.147 85.6064 281.23 86.0244L285.661 107.092C286.079 109.014 284.574 110.812 282.61 110.812H287.626C289.59 110.812 291.053 109.014 290.677 107.092Z" fill="#231F20"/>
</g>
<path d="M285.076 151.692C264.009 151.692 263.675 156.081 268.44 159.174C273.205 162.309 275.42 170.419 278.89 170.419C282.317 170.419 285.076 170.419 285.076 170.419C285.076 170.419 287.835 170.419 291.304 170.419C294.732 170.419 296.947 162.309 301.713 159.174C306.478 156.081 306.143 151.692 285.076 151.692Z" fill="#E91E63"/>
<path d="M272.202 155.329C272.871 155.956 273.331 156.541 273.79 157.126C274.25 157.67 274.626 158.213 275.044 158.798C275.421 159.342 275.797 159.927 276.173 160.512C276.549 161.139 276.925 161.766 277.302 162.602C276.382 162.686 275.546 162.393 274.835 161.933C274.083 161.515 273.456 160.93 272.954 160.219C272.495 159.509 272.16 158.715 271.993 157.879C271.826 157.043 271.868 156.165 272.202 155.329Z" fill="white"/>
<g style="mix-blend-mode:soft-light" opacity="0.5">
<path d="M285.076 151.692C283.934 151.692 282.847 151.706 281.816 151.734C299.623 152.152 299.665 156.248 295.15 159.174C290.385 162.309 288.211 170.419 284.742 170.419C284.951 170.419 285.076 170.419 285.076 170.419C285.076 170.419 287.835 170.419 291.305 170.419C294.732 170.419 296.948 162.309 301.713 159.174C306.478 156.081 306.144 151.692 285.076 151.692Z" fill="#231F20"/>
</g>
<path d="M333.355 156.416C307.815 156.416 308.191 156.416 316.175 163.396C324.201 170.419 333.355 170.419 333.355 170.419C333.355 170.419 342.551 170.419 350.577 163.396C358.56 156.416 358.895 156.416 333.355 156.416Z" fill="#2B2E4A"/>
<path d="M322.403 161.139C323.365 161.306 324.159 161.599 324.911 161.891C325.706 162.226 326.416 162.518 327.127 162.853C327.837 163.229 328.548 163.605 329.259 164.023C329.969 164.441 330.68 164.901 331.432 165.528C330.513 165.904 329.551 165.988 328.632 165.904C327.754 165.779 326.834 165.528 326.04 165.11C325.204 164.734 324.452 164.19 323.825 163.522C323.198 162.853 322.654 162.1 322.403 161.139Z" fill="white"/>
<g style="mix-blend-mode:soft-light" opacity="0.5">
<path d="M333.355 156.416C331.878 156.416 330.471 156.416 329.133 156.416C350.41 156.457 349.657 156.834 342.133 163.396C337.535 167.409 332.561 169.123 329.133 169.875C331.683 170.419 333.355 170.419 333.355 170.419C333.355 170.419 342.551 170.419 350.577 163.396C358.56 156.416 358.895 156.416 333.355 156.416Z" fill="#231F20"/>
</g>
<path d="M103.204 73.4844H97.3521V0H103.204V73.4844Z" fill="#FF9B27"/>
<path d="M139.278 80.2142C137.146 60.5682 120.509 45.2694 100.278 45.2694C80.047 45.2694 63.4106 60.5682 61.2788 80.2142H139.278Z" fill="#FF5D7D"/>
<path d="M85.9407 91.1658C84.5195 97.7284 82.2623 104.124 79.2109 110.101" stroke="#FF9B27" stroke-width="10" stroke-miterlimit="10"/>
<path d="M98.6896 97.5194C98.188 103.539 98.3134 109.6 99.0658 115.619" stroke="#FF9B27" stroke-width="10" stroke-miterlimit="10"/>
<path d="M111.439 93.2558C112.498 98.5505 113.557 103.845 114.616 109.14" stroke="#FF9B27" stroke-width="10" stroke-miterlimit="10"/>
<path d="M123.31 88.825C125.316 92.4198 127.323 96.0285 129.329 99.6512" stroke="#FF9B27" stroke-width="10" stroke-miterlimit="10"/>
<g style="mix-blend-mode:soft-light" opacity="0.5">
<path d="M100.278 45.2694C97.8118 45.2694 95.4292 45.4784 93.0884 45.8964C109.976 49.0314 123.059 62.9508 124.94 80.2142H139.277C137.146 60.5682 120.509 45.2694 100.278 45.2694Z" fill="#231F20"/>
</g>
<path opacity="0.3" d="M376.66 368.425C376.66 383.975 305.684 396.598 218.113 396.598C130.583 396.598 59.6069 383.975 59.6069 368.425C59.6069 352.834 130.583 340.21 218.113 340.21C305.684 340.21 376.66 352.834 376.66 368.425Z" fill="#E91E63"/>
<path d="M139.988 273.33C139.988 273.33 135.265 330.554 137.606 354.464C137.606 354.464 123.143 360.901 125.818 363.576C128.535 366.293 142.998 363.242 147.721 363.576C152.445 363.911 156.123 361.904 153.448 355.175C153.448 355.175 173.637 295.526 172.634 275.002L139.988 273.33Z" fill="#E07307"/>
<mask id="mask2_922_610" style="mask-type:luminance" maskUnits="userSpaceOnUse" x="125" y="273" width="48" height="92">
<path d="M139.971 273.318C139.971 273.318 135.256 330.571 137.614 354.485C137.614 354.485 123.13 360.884 125.826 363.576C128.518 366.272 143.002 363.242 147.717 363.576C152.432 363.915 156.135 361.896 153.444 355.158C153.444 355.158 173.65 295.547 172.638 275.002L139.971 273.318Z" fill="white"/>
</mask>
<g mask="url(#mask2_922_610)">
<path d="M133.885 345.226C133.885 345.226 150.229 351.413 162.727 345.226L159.174 363.242L133.551 360.274L133.885 345.226Z" fill="#FFDAE1"/>
</g>
<path fill-rule="evenodd" clip-rule="evenodd" d="M86.0245 390.705C71.6453 390.705 55.5941 386.692 44.6843 375.239C37.0349 367.171 32.9385 355.927 33.7327 345.268C34.1925 338.956 36.2407 333.313 39.6683 329.008C40.2256 328.283 40.8248 327.601 41.4657 326.96C41.3542 326.709 41.2288 326.458 41.0895 326.207C39.2085 322.027 38.4979 317.053 38.9995 310.992C40.2535 295.986 47.6939 281.732 59.4815 271.825C71.2273 261.919 87.0695 256.527 102.995 257.028L102.912 259.536C87.6129 259.076 72.3559 264.218 61.0699 273.706C49.8257 283.195 42.6779 296.864 41.5075 311.201C41.0477 316.802 41.6747 321.4 43.3885 325.162C43.3885 325.19 43.4024 325.218 43.4303 325.246C46.8997 322.487 51.1215 320.773 55.3433 320.439C59.5233 320.146 63.1181 321.4 64.9991 323.866C67.2981 326.834 66.7547 331.432 63.7869 334.149C61.2789 336.448 57.2661 337.368 53.3369 336.532C49.2405 335.654 45.4367 332.937 42.8033 329.217C42.3853 329.635 41.9952 330.081 41.6329 330.554C38.4979 334.484 36.6587 339.625 36.2407 345.435C35.4883 355.425 39.3339 365.917 46.5235 373.483C59.8995 387.611 81.7191 389.869 97.6867 387.277C102.076 386.566 106.465 385.521 110.687 384.476C114.49 383.557 118.461 382.595 122.39 381.885C132.673 380.046 141.117 380.422 148.223 382.972L147.387 385.312C140.699 382.93 132.673 382.595 122.85 384.351C118.963 385.062 115.076 386.023 111.272 386.901C107.008 387.946 102.536 389.033 98.0629 389.743C94.3009 390.37 90.2463 390.705 86.0245 390.705ZM44.6843 327.461C46.8997 330.847 50.2855 333.313 53.8385 334.066C57.0153 334.734 60.1503 334.066 62.1149 332.31C64.1213 330.471 64.5393 327.336 63.0345 325.371C61.6551 323.616 58.8545 322.696 55.5523 322.947C51.6649 323.239 47.8193 324.87 44.6843 327.461Z" fill="#2B2E4A"/>
<path d="M247.54 369.512H241.688V267.687H247.54V369.512Z" fill="#2B2E4A"/>
<path d="M215.73 381.425L209.92 380.798L221.624 267.395L227.434 268.022L215.73 381.425Z" fill="#2B2E4A"/>
<path d="M274.166 381.425L262.504 268.022L268.314 267.395L280.018 380.798L274.166 381.425Z" fill="#2B2E4A"/>
<path d="M101.783 369.512H95.9312V270.948H101.783V369.512Z" fill="#2B2E4A"/>
<path d="M204.611 369.512H198.759V270.948H204.611V369.512Z" fill="#2B2E4A"/>
<path d="M215.354 270.948C215.354 278.43 187.139 284.491 152.403 284.491C117.625 284.491 89.4102 278.43 89.4102 270.948C89.4102 263.465 117.625 257.404 152.403 257.404C187.139 257.404 215.354 263.465 215.354 270.948Z" fill="#994A02"/>
<path d="M89.4102 270.948V254.144H215.354V270.948H89.4102Z" fill="#994A02"/>
<path d="M215.354 254.144C215.354 261.626 187.139 267.687 152.403 267.687C117.625 267.687 89.4102 261.626 89.4102 254.144C89.4102 246.662 117.625 240.601 152.403 240.601C187.139 240.601 215.354 246.662 215.354 254.144Z" fill="#BC5900"/>
<path d="M152.403 259.327C129.204 259.327 112.735 256.736 103.873 254.144C112.735 251.594 129.204 248.961 152.403 248.961C175.56 248.961 192.029 251.594 200.891 254.144C192.029 256.736 175.56 259.327 152.403 259.327Z" fill="#994A02"/>
<path d="M278.096 263.465C278.096 269.15 263.131 273.748 244.614 273.748C226.138 273.748 211.174 269.15 211.174 263.465C211.174 257.822 226.138 253.224 244.614 253.224C263.131 253.224 278.096 257.822 278.096 263.465Z" fill="#994A02"/>
<path d="M211.174 263.465V250.758H278.096V263.465H211.174Z" fill="#994A02"/>
<path d="M278.096 250.758C278.096 256.401 263.131 260.999 244.614 260.999C226.138 260.999 211.174 256.401 211.174 250.758C211.174 245.073 226.138 240.475 244.614 240.475C263.131 240.475 278.096 245.073 278.096 250.758Z" fill="#E07307"/>
<path fill-rule="evenodd" clip-rule="evenodd" d="M245.45 350.493C242.231 350.493 214.309 350.242 214.309 340.21C214.309 330.22 242.231 329.927 245.45 329.927C248.626 329.927 276.549 330.22 276.549 340.21C276.549 350.242 248.626 350.493 245.45 350.493ZM220.37 340.21C222.376 341.966 231.447 344.641 245.45 344.641C259.411 344.641 268.481 341.966 270.488 340.21C268.481 338.455 259.411 335.779 245.45 335.779C231.447 335.779 222.376 338.455 220.37 340.21Z" fill="#2B2E4A"/>
<path d="M177.107 388.322H150.104C146.844 388.322 144.168 385.689 144.168 382.386C144.168 379.126 146.844 376.493 150.104 376.493H177.107C180.409 376.493 183.042 379.126 183.042 382.386C183.042 385.689 180.409 388.322 177.107 388.322Z" fill="#2B2E4A"/>
<path d="M175.56 138.567C174.808 138.567 174.069 138.497 173.345 138.358C168.329 137.522 164.023 133.676 162.56 128.828C161.599 125.776 161.808 122.474 161.975 119.548L163.355 95.8056L165.027 95.8892L163.647 119.632C163.48 122.558 163.313 125.567 164.149 128.368C165.445 132.59 169.248 135.975 173.596 136.728C177.985 137.48 182.708 135.599 185.341 132.004L186.679 133.008C184.129 136.477 179.824 138.567 175.56 138.567Z" fill="#4706A4"/>
<path d="M209.836 156.416C204.026 152.779 193.492 165.361 190.901 172.801C188.351 180.242 172.676 197.38 172.676 197.38C172.676 197.38 148.85 207.453 139.528 214.518V225.678C139.528 225.678 173.052 218.698 187.598 212.72C187.598 212.72 202.772 193.283 208.958 183.627C215.145 173.93 223.505 164.985 209.836 156.416Z" fill="#FFDAE1"/>
<mask id="mask3_922_610" style="mask-type:luminance" maskUnits="userSpaceOnUse" x="139" y="155" width="79" height="71">
<path d="M209.836 156.424C204.03 152.787 193.501 165.361 190.918 172.81C188.33 180.258 172.676 197.388 172.676 197.388C172.676 197.388 148.854 207.441 139.545 214.518V225.691C139.545 225.691 173.061 218.706 187.586 212.699C187.586 212.699 202.755 193.292 208.95 183.607C215.145 173.926 223.522 164.989 209.836 156.424Z" fill="white"/>
</mask>
<g mask="url(#mask3_922_610)">
<path d="M183.628 177.566C183.628 177.566 188.728 190.023 204.612 197.087L220.997 172.467L218.656 157.461L204.612 148.223L190.901 161.055L183.628 177.566Z" fill="#E8345F"/>
</g>
<path d="M201.476 75.3236C201.476 75.3236 191.235 67.089 177.399 73.0246C163.522 78.9602 161.557 91.5002 162.853 104.667C164.191 117.876 159.718 136.435 184.631 135.683L201.476 141.451C201.476 141.451 213.723 138.651 218.949 131.754C224.215 124.815 223.212 114.239 221.916 106.172C220.579 98.1046 225.553 77.6226 201.476 75.3236Z" fill="#2B2E4A"/>
<path d="M250.758 201.56L255.147 210.672C255.147 210.672 275.713 226.514 266.266 244.028C256.819 261.543 187.139 289.131 187.139 289.131C187.139 289.131 191.82 313.416 188.811 329.217C185.759 345.059 178.695 369.637 178.695 369.637C178.695 369.637 181.746 378.415 172.968 378.415C164.232 378.415 156.457 382.763 150.396 380.422C144.335 378.081 162.184 367.965 162.184 367.965C162.184 367.965 155.12 324.493 154.451 301.963C153.782 279.391 149.059 272.996 170.628 258.826C192.155 244.697 224.508 221.122 224.508 221.122L221.791 212.678C221.791 212.678 242.356 210.003 250.758 201.56Z" fill="#F29D40"/>
<g style="mix-blend-mode:soft-light" opacity="0.5">
<path d="M255.147 210.672L250.758 201.56C249.003 203.357 246.62 204.904 244.07 206.199L246.202 210.672C246.202 210.672 266.768 226.514 257.321 244.028C247.874 261.543 178.193 289.131 178.193 289.131C178.193 289.131 182.875 313.416 179.865 329.217C176.814 345.059 169.75 369.637 169.75 369.637C169.75 369.637 172.801 378.415 164.023 378.415C159.258 378.415 154.744 379.711 150.689 380.505C156.708 382.637 164.358 378.415 172.968 378.415C181.746 378.415 178.695 369.637 178.695 369.637C178.695 369.637 185.759 345.059 188.811 329.217C191.82 313.416 187.139 289.131 187.139 289.131C187.139 289.131 256.819 261.543 266.266 244.028C275.713 226.514 255.147 210.672 255.147 210.672Z" fill="#231F20"/>
</g>
<path d="M226.305 161.473L209.919 173.094L182.958 135.014L199.302 123.394L226.305 161.473Z" fill="#FFDAE1"/>
<path d="M192.322 141.451C177.859 141.451 166.155 129.705 166.155 115.284V106.381C166.155 91.96 177.859 80.2142 192.322 80.2142C206.743 80.2142 218.489 91.96 218.489 106.381V115.284C218.489 129.705 206.743 141.451 192.322 141.451Z" fill="#FFDAE1"/>
<mask id="mask4_922_610" style="mask-type:luminance" maskUnits="userSpaceOnUse" x="166" y="80" width="53" height="62">
<path d="M192.305 141.439C177.851 141.439 166.134 129.722 166.134 115.268V106.394C166.134 91.9433 177.851 80.2267 192.305 80.2267C206.76 80.2267 218.476 91.9433 218.476 106.394V115.268C218.476 129.722 206.76 141.439 192.305 141.439Z" fill="white"/>
</mask>
<g mask="url(#mask4_922_610)">
<g opacity="0.5">
<path d="M178.277 121.638C178.277 126.445 174.39 130.374 169.583 130.374C164.734 130.374 160.847 126.445 160.847 121.638C160.847 116.831 164.734 112.944 169.583 112.944C174.39 112.944 178.277 116.831 178.277 121.638Z" fill="#FF5D7D"/>
<path d="M212.93 117.667C212.93 122.349 209.126 126.152 204.402 126.152C199.721 126.152 195.917 122.349 195.917 117.667C195.917 112.944 199.721 109.14 204.402 109.14C209.126 109.14 212.93 112.944 212.93 117.667Z" fill="#FF5D7D"/>
</g>
</g>
<path d="M201.267 160.846C201.267 160.846 214.685 163.271 216.9 148.223C216.9 148.223 249.421 150.396 250.758 201.56C250.758 201.56 237.967 213.013 221.791 212.678L209.836 195.499C209.836 195.499 191.151 188.476 201.267 160.846Z" fill="#FF5D7D"/>
<g style="mix-blend-mode:soft-light" opacity="0.5">
<path d="M244.739 202.437C244.739 202.437 236.337 209.961 224.592 212.637C239.431 211.717 250.758 201.56 250.758 201.56C249.421 150.396 216.9 148.223 216.9 148.223C216.775 149.017 216.65 149.728 216.482 150.438C225.846 153.657 243.736 164.734 244.739 202.437Z" fill="#231F20"/>
<path d="M202.479 160.972C201.727 160.93 201.267 160.846 201.267 160.846C201.184 161.014 201.142 161.223 201.058 161.39C201.532 161.278 202.006 161.139 202.479 160.972Z" fill="#231F20"/>
</g>
<path d="M162.853 100.069C162.853 100.069 175.393 103.037 185.634 87.8636C185.634 87.8636 198.174 100.278 207.077 97.7702L209.836 115.577H214.643C214.643 115.577 214.392 108.973 218.489 108.304C218.489 108.304 224.55 80.2978 193.869 77.957C163.187 75.658 162.853 100.069 162.853 100.069Z" fill="#2B2E4A"/>
<path d="M220.62 75.449C217.485 80.8412 210.003 82.346 203.817 78.793C197.672 75.24 195.206 68.0086 198.341 62.5746C201.476 57.1824 209 55.6776 215.145 59.2306C221.289 62.7836 223.755 70.0568 220.62 75.449Z" fill="#2B2E4A"/>
<path d="M172.676 193.994C171.882 180.994 178.026 175.56 170.795 171.547C164.19 167.911 154.576 168.83 152.946 168.997C151.274 168.83 141.66 167.911 135.056 171.547C127.824 175.56 133.969 180.994 133.175 193.994C132.422 206.994 122.014 218.656 127.49 236.839C127.908 238.176 128.368 239.43 128.953 240.601H128.911C128.911 240.601 128.995 240.768 129.12 241.019C129.232 241.214 129.329 241.395 129.413 241.562C129.441 241.618 129.468 241.674 129.496 241.729C129.914 242.538 130.36 243.304 130.834 244.028C134.011 248.919 141.117 257.404 152.695 257.404C152.821 257.404 152.946 257.404 153.072 257.404C153.113 257.404 153.197 257.404 153.197 257.404C161.641 257.154 172.843 251.093 176.939 240.601C177.483 239.43 177.984 238.176 178.402 236.839C183.836 218.656 173.47 206.994 172.676 193.994Z" fill="#E91E63"/>
<g style="mix-blend-mode:soft-light">
<path d="M145.631 168.997C146.175 168.956 147.512 168.83 149.31 168.788C148.014 168.747 146.509 168.788 144.879 168.914C145.213 168.956 145.464 168.997 145.631 168.997Z" fill="#231F20"/>
<path d="M172.676 193.994C171.882 180.994 178.026 175.56 170.795 171.547C164.859 168.287 156.541 168.663 153.699 168.914C156.917 169.206 160.512 169.917 163.522 171.547C170.753 175.56 164.609 180.994 165.403 193.994C166.197 206.994 176.563 218.656 171.088 236.839C170.711 238.176 170.21 239.43 169.666 240.601C166.03 249.922 156.792 255.732 148.85 257.07C150.062 257.279 151.358 257.404 152.696 257.404C152.821 257.404 152.946 257.404 153.072 257.404C153.114 257.404 153.197 257.404 153.197 257.404C161.641 257.154 172.843 251.093 176.94 240.601C177.483 239.43 177.985 238.176 178.403 236.839C183.837 218.656 173.47 206.994 172.676 193.994Z" fill="#231F20"/>
</g>
<path d="M227.058 157.544C237.048 158.84 238.594 175.769 234.122 188.058C229.649 200.347 227.266 222.836 220.746 225.678C214.225 228.562 169.332 230.527 169.332 230.527C169.332 230.527 163.731 225.427 169.332 216.858C169.332 216.858 176.605 216.19 182.541 213.556C188.518 210.881 206.199 206.325 206.199 206.325C206.199 206.325 210.797 197.63 212.01 182.164C213.18 166.657 217.569 156.332 227.058 157.544Z" fill="#FFDAE1"/>
<path d="M171.213 217.945C168.371 217.987 165.821 216.231 163.815 214.225C161.766 212.219 160.011 209.878 157.586 208.373C156.876 207.955 156.082 207.537 155.246 207.621C154.41 207.704 153.615 208.415 153.657 209.251C153.657 209.711 153.95 210.129 154.242 210.505C155.58 212.553 156.541 214.852 157.085 217.235C151.149 215.855 145.297 215.228 139.362 213.849C138.776 213.682 138.066 213.598 137.69 214.058C137.272 214.518 137.481 215.186 137.773 215.73C139.069 218.154 141.619 219.868 144.336 220.161C141.326 219.534 138.275 219.408 135.223 219.157C134.931 219.157 134.638 219.116 134.387 219.241C133.928 219.45 133.719 220.077 133.844 220.579C133.969 221.08 134.346 221.498 134.722 221.874C137.815 224.884 142.288 225.887 146.509 226.807C143.792 226.598 141.117 226.807 138.358 226.974C137.731 227.016 137.104 227.099 136.561 227.434C136.018 227.726 135.6 228.353 135.767 228.98C135.934 229.649 136.645 229.984 137.313 230.234C140.239 231.321 143.416 231.823 146.551 231.739C144.252 232.324 141.661 232.951 139.445 233.871C138.86 234.122 138.149 234.54 138.233 235.209C138.275 235.585 138.651 235.877 139.027 236.086C140.699 236.964 142.747 236.839 144.628 236.63C146.746 236.351 148.836 235.947 150.898 235.418C157.043 233.871 163.815 236.17 169.081 232.659C171.464 231.07 173.345 228.73 175.811 227.225" fill="#FFDAE1"/>
<path d="M180.033 110.854C180.075 112.526 179.197 113.947 178.068 113.947C176.898 113.989 175.936 112.651 175.894 110.979C175.853 109.265 176.731 107.886 177.901 107.844C179.03 107.844 179.991 109.182 180.033 110.854Z" fill="#2B3990"/>
<path d="M194.955 110.77C194.997 112.442 194.119 113.821 192.949 113.863C191.82 113.905 190.859 112.567 190.817 110.854C190.734 109.182 191.653 107.802 192.782 107.76C193.952 107.719 194.914 109.056 194.955 110.77Z" fill="#2B3990"/>
<path d="M183.544 105.336L185.299 115.702C185.299 115.702 179.824 116.497 180.743 119.423C181.621 122.39 186.637 122.808 186.637 122.808" stroke="#ED9DB1" stroke-width="6" stroke-miterlimit="10"/>
<path d="M190.901 128.702C190.901 128.702 199.846 127.197 199.553 117.96" stroke="#ED9DB1" stroke-width="6" stroke-miterlimit="10"/>
<path d="M218.949 119.966C216.315 119.966 214.142 117.834 214.142 115.159V112.693C214.142 110.059 216.315 107.886 218.949 107.886C221.624 107.886 223.756 110.059 223.756 112.693V115.159C223.756 117.834 221.624 119.966 218.949 119.966Z" fill="#FFDAE1"/>
<path d="M168.496 175.017C168.496 176.396 161.515 177.566 152.946 177.566C144.336 177.566 137.355 176.396 137.355 175.017C137.355 173.595 144.336 172.467 152.946 172.467C161.515 172.467 168.496 173.595 168.496 175.017Z" fill="#4706A4"/>
<mask id="mask5_922_610" style="mask-type:luminance" maskUnits="userSpaceOnUse" x="166" y="157" width="71" height="74">
<path d="M227.062 157.54C237.039 158.823 238.607 175.786 234.134 188.079C229.666 200.368 227.246 222.823 220.729 225.691C214.212 228.554 169.336 230.531 169.336 230.531C169.336 230.531 163.752 225.411 169.336 216.842C169.336 216.842 176.597 216.19 182.553 213.535C188.514 210.885 206.208 206.325 206.208 206.325C206.208 206.325 210.797 197.626 211.993 182.144C213.188 166.661 217.552 156.315 227.062 157.54Z" fill="white"/>
</mask>
<g mask="url(#mask5_922_610)">
<path d="M208.958 183.627C208.958 183.627 220.077 193.325 239.305 190.733L245.449 157.461L227.183 148.223L211.173 161.055L208.958 183.627Z" fill="#FF5D7D"/>
</g>
<path d="M166.197 366.628C164.274 338.12 163.605 309.153 164.274 280.562V280.269C164.358 277.343 164.441 273.665 167.325 271.993C190.232 258.826 212.595 244.279 233.871 228.646C234.345 228.284 234.846 227.908 235.376 227.517C240.81 223.63 247.54 218.739 246.202 213.013C245.742 211.006 245.032 209.084 244.07 207.244L245.533 206.45C246.578 208.415 247.331 210.505 247.832 212.637C249.421 219.45 242.189 224.675 236.337 228.897C235.836 229.259 235.334 229.621 234.832 229.984C213.556 245.659 191.11 260.247 168.161 273.414C166.071 274.626 166.03 277.51 165.946 280.311V280.603C165.277 309.153 165.946 338.037 167.869 366.502L166.197 366.628Z" fill="#E07307"/>
<path d="M138.233 353.294C138.233 353.294 138.567 350.995 141.953 350.953C145.297 350.953 144.962 355.091 144.962 355.091C144.962 355.091 145.757 355.175 148.306 355.258C150.898 355.342 152.236 353.753 154.158 355.593C154.158 355.593 155.998 361.612 152.152 363.158C148.265 364.663 140.991 363.535 135.098 365.374C129.246 367.255 121.429 364.538 126.152 361.068C130.876 357.641 135.516 354.589 138.233 353.294Z" fill="#FF5D7D"/>
<path d="M198.132 76.7866C194.955 75.2818 192.656 72.105 192.28 68.6356C191.904 65.1244 193.492 61.5296 196.293 59.4396C198.676 57.6422 201.894 56.8062 205.949 56.9734C207.621 57.057 210.045 57.3496 211.675 58.9798L210.463 60.1502C209.293 58.938 207.286 58.729 205.865 58.6454C202.229 58.52 199.344 59.2306 197.296 60.7772C194.955 62.5328 193.618 65.5424 193.952 68.4266C194.245 71.3526 196.168 74.0278 198.843 75.24L198.132 76.7866Z" fill="#2B2E4A"/>
<path d="M207.537 115.284L205.865 115.117C206.618 108.513 206.952 101.783 206.91 95.1368H208.582C208.624 101.825 208.29 108.638 207.537 115.284Z" fill="#2B2E4A"/>
<g style="mix-blend-mode:soft-light" opacity="0.5">
<path d="M187.139 140.908C187.139 140.908 198.508 143.499 208.248 136.017L212.846 142.538C212.846 142.538 206.868 151.107 193.074 149.268L187.139 140.908Z" fill="#231F20"/>
</g>
<path d="M133.927 208.331C130.221 208.331 126.543 207.997 122.892 207.328C121.764 207.119 120.217 206.701 119.757 205.28C119.548 204.653 119.632 204.026 119.924 203.441C120.677 202.019 122.6 201.351 123.185 201.183L123.686 202.772C122.6 203.106 121.68 203.691 121.387 204.193C121.304 204.402 121.304 204.569 121.346 204.736C121.513 205.154 122.098 205.489 123.185 205.698C130.165 206.994 137.23 206.994 144.21 205.781L144.503 207.412C140.992 208.025 137.466 208.331 133.927 208.331Z" fill="#4706A4"/>
<path d="M125.484 214.685C120.677 214.685 115.911 214.058 111.313 212.804L111.773 211.215C118.252 212.971 125.191 213.431 131.879 212.595L132.088 214.267C129.887 214.545 127.685 214.685 125.484 214.685Z" fill="#4706A4"/>
<path d="M138.358 247.999C133.133 247.999 127.95 247.456 122.809 246.286L123.185 244.655C130.834 246.369 138.609 246.787 146.384 245.868L146.593 247.54C143.834 247.846 141.089 247.999 138.358 247.999Z" fill="#4706A4"/>
<path d="M143.583 253.977C140.239 253.977 136.895 253.81 133.593 253.517L133.76 251.845C138.4 252.263 143.081 252.388 147.721 252.221L147.763 253.893C146.37 253.949 144.976 253.977 143.583 253.977Z" fill="#4706A4"/>
<mask id="mask6_922_610" style="mask-type:luminance" maskUnits="userSpaceOnUse" x="149" y="201" width="120" height="181">
<path d="M250.775 201.581L255.156 210.672C255.156 210.672 275.7 226.502 266.27 244.016C256.84 261.53 187.122 289.147 187.122 289.147C187.122 289.147 191.837 313.396 188.807 329.225C185.776 345.055 178.703 369.642 178.703 369.642C178.703 369.642 181.734 378.399 172.977 378.399C164.22 378.399 156.474 382.775 150.409 380.418C144.348 378.06 162.197 367.957 162.197 367.957C162.197 367.957 155.124 324.51 154.451 301.946C153.778 279.379 149.063 272.979 170.619 258.834C192.171 244.689 224.516 221.114 224.516 221.114L221.812 212.695C221.812 212.695 242.357 209.999 250.775 201.581Z" fill="white"/>
</mask>
<g mask="url(#mask6_922_610)">
<path d="M158.338 350.117C158.338 350.117 177.357 354.046 187.139 350.117L183.627 365.165L172.968 370.055L158.338 365.165V350.117Z" fill="#E07307"/>
<path d="M158.338 360.149C158.338 360.149 174.682 366.335 187.139 360.149L183.627 378.165L158.004 375.197L158.338 360.149Z" fill="#FFDAE1"/>
</g>
<path d="M162.101 368.007C162.101 368.007 162.351 365.541 165.904 365.374C169.416 365.207 169.248 369.596 169.248 369.596C169.248 369.596 170.126 369.637 172.801 369.596C175.477 369.596 176.856 367.84 178.946 369.721C178.946 369.721 181.161 375.907 177.149 377.705C173.136 379.502 165.445 378.624 159.384 380.84C153.281 383.055 144.963 380.547 149.77 376.702C154.577 372.898 159.342 369.47 162.101 368.007Z" fill="#FF5D7D"/>
<path d="M180.576 79.7962C177.901 85.1466 172.927 89.2848 167.2 90.915L180.576 79.7962Z" fill="#2B2E4A"/>
<path d="M180.576 79.7962C177.901 85.1466 172.927 89.2848 167.2 90.915" stroke="#393A44" stroke-width="4" stroke-miterlimit="10"/>
<path d="M189.396 82.0952C192.364 87.4038 197.171 91.6256 202.814 93.9246L189.396 82.0952Z" fill="#2B2E4A"/>
<path d="M189.396 82.0952C192.364 87.4038 197.171 91.6256 202.814 93.9246" stroke="#393A44" stroke-width="4" stroke-miterlimit="10"/>
<path d="M194.746 81.719C197.212 85.4392 201.1 88.2398 205.447 89.4102L194.746 81.719Z" fill="#2B2E4A"/>
<path d="M194.746 81.719C197.212 85.4392 201.1 88.2398 205.447 89.4102" stroke="#393A44" stroke-width="4" stroke-miterlimit="10"/>
<path d="M216.524 111.94C216.803 113.501 217.067 115.061 217.318 116.622C217.235 114.741 218.238 112.735 219.743 111.648C220.119 111.355 220.62 111.104 221.038 111.355" stroke="#ED9DB1" stroke-width="4" stroke-miterlimit="10"/>
<path d="M175.059 101.532C174.557 102.285 174.223 102.87 173.93 103.413C173.637 103.998 173.428 104.542 173.178 105.085L172.509 106.841C172.216 107.51 171.965 108.178 171.506 108.973C170.92 108.262 170.628 107.468 170.544 106.632C170.419 105.838 170.544 104.96 170.879 104.124C171.213 103.288 171.798 102.577 172.509 102.076C173.261 101.574 174.181 101.281 175.059 101.532Z" fill="#2B2E4A"/>
<path d="M194.412 100.905C195.123 100.487 195.959 100.487 196.711 100.696C197.464 100.905 198.132 101.281 198.676 101.867C199.219 102.41 199.595 103.121 199.804 103.873C199.972 104.625 199.93 105.42 199.47 106.172L198.007 104.751C197.631 104.333 197.255 103.998 196.878 103.58L195.75 102.41L194.412 100.905Z" fill="#2B2E4A"/>
<path d="M359.647 277.05L365.75 267.687C365.75 267.687 364.914 267.269 363.117 266.768C345.895 261.166 331.767 266.141 328.632 267.436C328.214 267.604 327.963 267.687 327.963 267.687L334.066 277.05C304.346 315.632 334.066 364.705 334.066 364.705C334.066 364.705 345.603 372.522 359.647 364.705C359.647 364.705 389.367 315.632 359.647 277.05Z" fill="#2B2E4A"/>
<g style="mix-blend-mode:soft-light" opacity="0.5">
<path d="M359.647 277.05L365.75 267.687C365.75 267.687 364.914 267.269 363.117 266.768C355.384 264.26 348.278 263.883 342.509 264.301C346.271 264.636 350.409 265.388 354.715 266.768C356.512 267.269 357.348 267.687 357.348 267.687L351.245 277.05C380.965 315.632 351.245 364.705 351.245 364.705C348.194 366.419 345.268 367.338 342.551 367.84C347.107 368.592 353.085 368.342 359.647 364.705C359.647 364.705 389.367 315.632 359.647 277.05Z" fill="#231F20"/>
</g>
<path d="M365.75 267.144C365.75 269.777 357.265 271.867 346.815 271.867C336.323 271.867 327.837 269.777 327.837 267.144C327.837 264.552 336.323 262.42 346.815 262.42C357.265 262.42 365.75 264.552 365.75 267.144Z" fill="#E91E63"/>
<path d="M337.41 281.857C331.056 293.52 328.005 307.021 328.799 320.313" stroke="white" stroke-width="6" stroke-miterlimit="10"/>
<path d="M330.554 324.744C330.554 325.497 329.969 326.124 329.217 326.124C328.423 326.124 327.837 325.497 327.837 324.744C327.837 323.992 328.423 323.365 329.217 323.365C329.969 323.365 330.554 323.992 330.554 324.744Z" fill="white"/>
<path d="M284.7 340.21H349.992C351.538 340.21 352.667 341.673 352.291 343.178C349.783 352.792 340.294 382.386 317.346 382.386C294.439 382.386 284.909 352.792 282.443 343.178C282.025 341.673 283.153 340.21 284.7 340.21Z" fill="#FF9B27"/>
<g style="mix-blend-mode:soft-light" opacity="0.5">
<path d="M349.991 340.21H342.008C343.554 340.21 344.683 341.673 344.307 343.178C341.966 352.207 333.439 378.917 313.375 382.094C314.656 382.289 315.98 382.386 317.346 382.386C340.294 382.386 349.782 352.792 352.29 343.178C352.667 341.673 351.538 340.21 349.991 340.21Z" fill="#231F20"/>
</g>
<path d="M352.374 342.467C352.374 346.355 336.699 349.49 317.345 349.49C298.034 349.49 282.359 346.355 282.359 342.467C282.359 338.538 298.034 335.403 317.345 335.403C336.699 335.403 352.374 338.538 352.374 342.467Z" fill="#FCBE86"/>
<path d="M317.346 345.31C303.928 345.31 294.523 343.847 289.674 342.467C294.523 341.046 303.928 339.583 317.346 339.583C330.764 339.583 340.169 341.046 345.059 342.467C340.169 343.847 330.764 345.31 317.346 345.31Z" fill="#E07307"/>
<path d="M293.52 354.004C296.487 362.448 302.507 369.763 310.198 374.277" stroke="white" stroke-width="6" stroke-miterlimit="10"/>
<path d="M315.005 375.782C315.005 376.576 314.336 377.245 313.5 377.245C312.706 377.245 312.037 376.576 312.037 375.782C312.037 374.946 312.706 374.277 313.5 374.277C314.336 374.277 315.005 374.946 315.005 375.782Z" fill="white"/>
</svg>
