<svg width="270" height="187" viewBox="0 0 270 187" fill="none" xmlns="http://www.w3.org/2000/svg">
<path d="M203.822 22.7988L202.881 21.4444C194.923 10.0405 180.558 3.16546 165.402 3.99989C163.451 4.10969 161.512 4.34412 159.6 4.7013C145.826 7.27111 133.84 16.341 128.871 27.9566C125.947 34.7892 125.131 42.6528 119.586 48.0767C112.371 55.1331 100.121 55.3568 89.3502 55.0635C78.5794 54.7703 66.3191 55.0212 59.142 62.1048C54.6282 66.543 53.2185 72.8526 53.5865 78.7965C54.5483 94.5176 67.1281 108.597 83.1489 115.587C99.1696 122.577 118.013 123.206 135.541 120.122C160.089 115.814 183.436 103.981 197.468 85.7017C211.499 67.4228 215.04 42.5259 203.822 22.7988Z" fill="#EBEBEB"/>
<path d="M19.7494 49.6136C25.9684 49.6136 31.0099 45.111 31.0099 39.5568C31.0099 34.0026 25.9684 29.5 19.7494 29.5C13.5305 29.5 8.48901 34.0026 8.48901 39.5568C8.48901 45.111 13.5305 49.6136 19.7494 49.6136Z" fill="#EBEBEB"/>
<path d="M249.929 43.7234C250.315 38.0938 245.841 33.2318 239.936 32.8638C234.031 32.4958 228.932 36.7612 228.546 42.3907C228.16 48.0203 232.634 52.8823 238.539 53.2503C244.443 53.6183 249.543 49.3529 249.929 43.7234Z" fill="#EBEBEB"/>
<path d="M113.533 105.972C113.533 105.972 96.7633 107.866 90.5612 112.591C89.5759 113.355 88.6645 114.201 87.8378 115.12C83.9528 119.441 81.593 124.817 81.0929 130.488L78.8462 154L79.0255 157.884C79.1614 160.803 80.4706 163.56 82.6818 165.584C84.8929 167.607 87.8362 168.742 90.9011 168.751L160.2 169.201C160.2 169.201 169.3 159.517 166.917 144.496C166.355 140.964 165.458 128.85 161.947 121.393C160.092 117.451 157.25 112.582 149.75 110.683L132.244 105.963L113.533 105.972Z" fill="#263238"/>
<path d="M97.8159 125.096C97.7493 124.926 97.7019 124.749 97.6743 124.57C97.5987 124.232 97.4807 123.742 97.325 123.139C96.9106 121.57 96.3677 120.036 95.7013 118.549C95.0255 117.067 94.2268 115.639 93.313 114.278C92.959 113.752 92.6663 113.338 92.4539 113.05C92.3393 112.909 92.2382 112.758 92.1519 112.6C92.2954 112.72 92.4237 112.856 92.5342 113.005C92.7655 113.275 93.0817 113.68 93.4546 114.193C94.4204 115.539 95.2486 116.971 95.9279 118.468C96.6019 119.961 97.1265 121.511 97.4949 123.098C97.6318 123.71 97.7215 124.21 97.7687 124.556C97.8076 124.734 97.8234 124.915 97.8159 125.096Z" fill="#455A64"/>
<path d="M100.728 151.898C100.657 151.898 99.9162 146.768 99.0714 140.419C98.2265 134.069 97.594 128.917 97.6554 128.912C97.7167 128.908 98.4625 134.042 99.3121 140.392C100.162 146.741 100.794 151.898 100.728 151.898Z" fill="#455A64"/>
<path d="M97.6601 127.117C97.2481 127.004 96.8519 126.844 96.4801 126.64C94.6355 125.749 92.936 124.607 91.4344 123.252C91.1057 122.988 90.8138 122.686 90.5659 122.352C90.911 122.59 91.2389 122.85 91.5477 123.13C92.1471 123.616 92.9873 124.269 93.969 124.93C94.9508 125.592 95.857 126.123 96.5603 126.492C96.9426 126.674 97.3102 126.883 97.6601 127.117Z" fill="#455A64"/>
<path d="M142.566 131.469C142.543 131.201 142.543 130.932 142.566 130.664C142.571 130.349 142.593 130.035 142.632 129.723C142.675 129.359 142.703 128.94 142.797 128.486C142.876 127.986 142.981 127.49 143.114 127.001C143.232 126.465 143.42 125.912 143.586 125.327C144.473 122.796 145.859 120.45 147.669 118.415C148.098 117.965 148.494 117.515 148.91 117.141C149.282 116.781 149.672 116.438 150.08 116.115C150.439 115.8 150.798 115.562 151.105 115.337C151.363 115.142 151.632 114.962 151.912 114.797C152.141 114.642 152.383 114.504 152.634 114.383C152.425 114.561 152.203 114.723 151.968 114.869C151.747 115.017 151.496 115.202 151.19 115.44C150.883 115.679 150.543 115.922 150.194 116.237C149.844 116.552 149.443 116.885 149.056 117.276C148.669 117.668 148.263 118.1 147.843 118.554C146.074 120.585 144.705 122.904 143.803 125.399C143.609 125.975 143.411 126.519 143.288 127.046C143.166 127.572 143.033 128.063 142.944 128.513C142.854 128.963 142.802 129.377 142.746 129.741C142.689 130.106 142.656 130.412 142.637 130.673C142.632 130.94 142.609 131.206 142.566 131.469Z" fill="#455A64"/>
<path d="M135.656 158.474C135.589 158.203 135.572 157.923 135.604 157.646C135.636 157.253 135.765 156.873 135.981 156.537C136.197 156.2 136.493 155.918 136.846 155.711C138.848 153.698 141.261 152.095 143.935 151L143.864 151.094C143.959 150.248 144.058 149.371 144.129 148.466C144.397 145.173 144.444 141.866 144.27 138.566C144.209 137.302 144.114 136.276 144.062 135.569C144.034 135.236 144.011 134.966 143.992 134.755C143.98 134.659 143.98 134.562 143.992 134.467C144.022 134.559 144.041 134.654 144.048 134.75C144.081 134.957 144.119 135.227 144.166 135.56C144.247 136.267 144.369 137.288 144.454 138.557C144.679 141.865 144.655 145.184 144.383 148.489C144.313 149.389 144.214 150.289 144.114 151.126V151.193L144.048 151.22C141.394 152.296 138.988 153.861 136.968 155.824C136.583 156.04 136.265 156.351 136.048 156.724C135.885 157.002 135.781 157.308 135.741 157.624C135.623 158.2 135.689 158.47 135.656 158.474Z" fill="#455A64"/>
<path d="M155.433 156.57C155.39 156.593 155.032 155.945 154.243 155.045C153.217 153.875 151.96 152.909 150.543 152.201C149.765 151.816 148.945 151.514 148.098 151.301C147.403 151.135 146.69 151.045 145.974 151.035C144.747 151.035 143.987 151.17 143.982 151.125C144.151 151.065 144.327 151.024 144.506 151.004C144.991 150.923 145.482 150.878 145.974 150.869C146.706 150.855 147.438 150.93 148.15 151.094C149.02 151.297 149.862 151.6 150.656 151.994C152.103 152.713 153.372 153.718 154.38 154.941C154.684 155.309 154.957 155.699 155.197 156.107C155.295 156.252 155.374 156.407 155.433 156.57Z" fill="#455A64"/>
<path d="M155.093 150.419C155.093 150.46 154.517 150.208 153.559 149.969C153.001 149.836 152.433 149.743 151.86 149.69C151.155 149.628 150.447 149.61 149.741 149.636C148.456 149.699 147.182 149.884 145.936 150.19C144.992 150.428 144.402 150.64 144.388 150.59C144.508 150.513 144.638 150.452 144.775 150.41C145.139 150.264 145.511 150.138 145.889 150.032C147.138 149.673 148.428 149.461 149.731 149.402C150.449 149.377 151.169 149.401 151.883 149.474C152.466 149.54 153.042 149.651 153.606 149.807C153.822 149.866 154.035 149.935 154.243 150.014C154.406 150.066 154.563 150.129 154.715 150.203C154.852 150.257 154.979 150.33 155.093 150.419Z" fill="#455A64"/>
<path d="M141.957 79.3141C140.574 73.7161 138.106 67.9966 133.235 64.5946C128.902 61.5661 122.577 60.4141 117.215 60.7921C114.577 60.9811 111.631 62.2366 109.37 63.5506C106.274 65.3506 105.052 68.8471 103.636 72.0331C100.804 78.4186 101.479 86.9191 103.636 89.2231L131.668 102.246C136.468 99.6721 141.665 96.2071 142.783 91.0726C143.534 87.5716 142.816 82.7926 141.957 79.3141Z" fill="#E91E63"/>
<path d="M131.342 69.3819L113.831 65.0484C108.214 64.4454 104.433 71.0199 104.037 76.3929C103.603 82.3599 103.315 89.6679 104.037 94.1274C105.453 103.096 112.665 105.224 112.665 105.224C112.665 105.224 112.665 113.018 112.717 115.678L120.887 139.402L132.503 115.678L134.292 72.6084C134.317 71.8152 134.027 71.0423 133.48 70.4441C132.933 69.8459 132.17 69.4666 131.342 69.3819Z" fill="#FFBE9D"/>
<path d="M107.166 83.6164C107.162 83.9159 107.281 84.205 107.497 84.4226C107.713 84.6402 108.009 84.769 108.323 84.7819C108.475 84.7942 108.629 84.7772 108.775 84.732C108.921 84.6868 109.056 84.6143 109.172 84.5188C109.288 84.4232 109.383 84.3065 109.451 84.1755C109.519 84.0445 109.559 83.9018 109.569 83.7559C109.575 83.4561 109.458 83.1657 109.243 82.9471C109.028 82.7284 108.731 82.5988 108.417 82.5859C108.264 82.5736 108.109 82.5907 107.963 82.6361C107.816 82.6815 107.681 82.7544 107.564 82.8503C107.448 82.9463 107.353 83.0635 107.284 83.1951C107.216 83.3266 107.176 83.4699 107.166 83.6164Z" fill="#263238"/>
<path d="M105.675 80.1967C105.821 80.3452 106.741 79.7062 108.035 79.7197C109.328 79.7332 110.281 80.3541 110.423 80.2056C110.489 80.1381 110.343 79.8681 109.927 79.5756C109.374 79.2055 108.715 79.0061 108.039 79.0042C107.363 78.9959 106.702 79.1929 106.151 79.5667C105.736 79.8592 105.599 80.1292 105.675 80.1967Z" fill="#263238"/>
<path d="M118.938 83.6168C118.933 83.9158 119.05 84.205 119.265 84.4227C119.48 84.6404 119.776 84.7694 120.09 84.7823C120.243 84.7945 120.397 84.7776 120.543 84.7325C120.689 84.6873 120.824 84.6149 120.941 84.5194C121.057 84.4239 121.152 84.3072 121.221 84.1762C121.29 84.0451 121.33 83.9024 121.34 83.7563C121.346 83.4568 121.228 83.1671 121.013 82.9487C120.798 82.7303 120.503 82.6003 120.189 82.5863C120.035 82.5734 119.88 82.59 119.734 82.6352C119.587 82.6804 119.451 82.7531 119.335 82.8492C119.218 82.9454 119.123 83.0628 119.055 83.1946C118.986 83.3265 118.947 83.47 118.938 83.6168Z" fill="#263238"/>
<path d="M118.423 80.5071C118.57 80.6601 119.49 80.0211 120.783 80.0346C122.077 80.0481 123.03 80.6691 123.172 80.5206C123.238 80.4531 123.091 80.1831 122.676 79.8906C122.123 79.5205 121.464 79.3196 120.788 79.3146C120.112 79.3077 119.45 79.5063 118.9 79.8816C118.485 80.1696 118.348 80.4396 118.423 80.5071Z" fill="#263238"/>
<path d="M113.647 89.6508C113.647 89.5788 112.849 89.4393 111.546 89.2728C111.211 89.2368 110.9 89.1738 110.848 88.9578C110.819 88.6309 110.898 88.3036 111.074 88.0218L112.07 85.6233C113.453 82.2123 114.459 79.3998 114.317 79.3503C114.175 79.3008 112.929 82.0233 111.546 85.4388C111.211 86.2803 110.895 87.0813 110.602 87.8508C110.388 88.2291 110.323 88.6681 110.418 89.0883C110.467 89.1975 110.542 89.2946 110.636 89.3726C110.73 89.4505 110.841 89.5071 110.961 89.5383C111.143 89.5905 111.332 89.6178 111.523 89.6193C112.826 89.7093 113.642 89.7183 113.647 89.6508Z" fill="#263238"/>
<path d="M112.632 105.284L112.684 107.534C122.086 108.434 125.239 102.184 125.239 102.184C121.419 104.311 117.054 105.384 112.632 105.284Z" fill="#EB996E"/>
<path d="M117.918 91.9862C117.73 91.7122 117.474 91.4867 117.173 91.3297C116.872 91.1727 116.534 91.0891 116.191 91.0862C115.708 91.0497 115.223 91.1373 114.787 91.3399C114.351 91.5425 113.98 91.8527 113.713 92.2382C113.523 92.5961 113.481 93.0087 113.595 93.3947C113.685 93.5927 113.595 93.4982 113.774 93.6332C114.309 94.1633 114.972 94.5604 115.705 94.7897C116.1 94.8866 116.516 94.868 116.9 94.7364C117.284 94.6048 117.617 94.3663 117.857 94.0517C118.067 93.7466 118.184 93.3919 118.194 93.0272C118.205 92.6626 118.11 92.3022 117.918 91.9862Z" fill="#EB996E"/>
<path d="M117.46 90.5274C117.248 90.5274 117.234 91.8774 116.044 92.7999C114.855 93.7224 113.335 93.5919 113.321 93.7764C113.321 93.8619 113.656 94.0419 114.289 94.0599C115.113 94.0783 115.918 93.8167 116.559 93.3219C117.177 92.8484 117.576 92.1639 117.673 91.4139C117.72 90.8559 117.555 90.5229 117.46 90.5274Z" fill="#263238"/>
<path d="M117.838 76.5456C117.966 76.8831 119.254 76.7301 120.783 76.9146C122.313 77.0991 123.53 77.5041 123.733 77.2026C123.828 77.0586 123.615 76.7526 123.12 76.4151C122.461 76.0111 121.714 75.7558 120.937 75.6685C120.159 75.5811 119.37 75.6641 118.631 75.9111C118.069 76.1226 117.786 76.3836 117.838 76.5456Z" fill="#E91E63"/>
<path d="M106.175 75.9246C106.402 76.2036 107.298 75.9246 108.37 75.9246C109.441 75.9246 110.357 76.1271 110.565 75.8346C110.659 75.6951 110.517 75.4116 110.121 75.1416C109.59 74.819 108.97 74.6544 108.34 74.6688C107.711 74.6833 107.1 74.8761 106.586 75.2226C106.203 75.4971 106.076 75.7851 106.175 75.9246Z" fill="#E91E63"/>
<path d="M131.748 83.4981C131.875 83.4441 136.978 81.8961 136.94 86.9001C136.902 91.9041 131.635 90.8241 131.625 90.6801C131.616 90.5361 131.748 83.4981 131.748 83.4981Z" fill="#FFBE9D"/>
<path d="M133.244 88.8044C133.244 88.8044 133.334 88.8674 133.485 88.9349C133.704 89.0211 133.95 89.0211 134.169 88.9349C134.726 88.7459 135.198 87.9134 135.236 87.0134C135.251 86.5842 135.168 86.1572 134.991 85.7624C134.944 85.6048 134.857 85.4608 134.737 85.343C134.618 85.2253 134.47 85.1374 134.306 85.0874C134.202 85.0621 134.092 85.0715 133.994 85.1141C133.896 85.1566 133.816 85.2297 133.768 85.3214C133.697 85.4609 133.726 85.5599 133.702 85.5689C133.678 85.5779 133.589 85.4834 133.631 85.2764C133.662 85.1525 133.737 85.0428 133.844 84.9659C133.989 84.8639 134.17 84.8203 134.349 84.8444C134.563 84.8869 134.763 84.9812 134.928 85.1183C135.093 85.2554 135.219 85.4307 135.293 85.6274C135.51 86.0623 135.614 86.5409 135.595 87.0224C135.552 88.0304 135 88.9709 134.24 89.1734C134.099 89.2095 133.951 89.2158 133.806 89.1917C133.662 89.1676 133.525 89.1137 133.405 89.0339C133.249 88.9259 133.225 88.8134 133.244 88.8044Z" fill="#EB996E"/>
<path d="M134.976 90.4741C135 90.4471 135.203 90.6811 135.17 91.1311C135.166 91.2667 135.132 91.3999 135.068 91.5213C135.004 91.6426 134.913 91.7491 134.802 91.8331C134.652 91.9203 134.483 91.9719 134.308 91.9837C134.133 91.9954 133.957 91.9669 133.796 91.9006C133.629 91.8497 133.477 91.7596 133.355 91.6386C133.233 91.5176 133.145 91.3694 133.098 91.2076C133.041 90.9433 133.091 90.6681 133.239 90.4381C133.499 90.0511 133.829 90.0151 133.829 90.0421C133.829 90.0691 133.579 90.1771 133.405 90.5236C133.303 90.7172 133.278 90.9393 133.334 91.1491C133.377 91.2707 133.45 91.3808 133.547 91.47C133.644 91.5593 133.762 91.6251 133.891 91.6621C134.012 91.715 134.145 91.7405 134.278 91.7365C134.412 91.7326 134.542 91.6995 134.66 91.6396C134.748 91.5759 134.823 91.4962 134.879 91.4051C134.934 91.314 134.971 91.2132 134.986 91.1086C135.006 90.8974 135.003 90.6847 134.976 90.4741Z" fill="#263238"/>
<path d="M103.617 77.8014C104.325 76.3524 105.698 75.2949 107.157 74.5029C108.615 73.7109 110.192 73.1529 111.641 72.3339C114.999 70.458 117.511 67.4638 118.692 63.9279C116.111 62.6544 112.896 62.8029 110.291 64.0314C107.705 65.3341 105.664 67.4392 104.504 69.9984C103.363 72.5563 102.817 75.3199 102.904 78.0984" fill="#E91E63"/>
<path d="M132.952 68.0458C129.072 64.5313 121.742 62.5918 116.686 64.2388C117.437 68.4463 120.769 73.1758 123.7 76.3888C126.631 79.6018 128.42 85.3303 134.854 83.3953C135.293 83.2648 135.798 83.6473 136.199 83.4223C136.518 83.1964 136.738 82.8663 136.817 82.4953C137.625 79.9805 137.692 77.3023 137.01 74.7537C136.328 72.2052 134.924 69.8846 132.952 68.0458Z" fill="#E91E63"/>
<path d="M103.909 83.8814C103.603 83.9351 103.287 83.9182 102.989 83.8319C102.161 83.6038 101.446 83.101 100.974 82.4144C100.294 81.3859 100.012 80.1638 100.176 78.9584C100.239 78.2586 100.363 77.5648 100.544 76.8839C100.714 76.1684 100.95 75.4484 101.205 74.7149C102.128 72.2191 103.512 69.9011 105.292 67.8704C105.831 67.2592 106.408 66.6792 107.02 66.1334L107.53 65.7059C107.588 65.6517 107.653 65.6048 107.723 65.5664C107.529 65.7925 107.318 66.0046 107.091 66.2009C106.689 66.6149 106.09 67.1954 105.439 68.0009C103.717 70.0406 102.372 72.3444 101.46 74.8139C101.201 75.5152 100.981 76.2287 100.799 76.9514C100.616 77.6201 100.49 78.3019 100.421 78.9899C100.251 80.1473 100.501 81.3255 101.129 82.3289C101.568 82.9953 102.235 83.4962 103.017 83.7464C103.31 83.8177 103.608 83.8629 103.909 83.8814Z" fill="#E91E63"/>
<path d="M148.4 68.6085C148.4 66.2595 147.706 63.8295 146.04 62.1105C143.713 59.7255 139.64 59.19 136.6 60.7065C133.561 62.223 131.748 65.5665 131.951 68.8065C132.087 70.4397 132.639 72.0166 133.558 73.4006C134.478 74.7846 135.737 75.9339 137.228 76.749L139.394 76.515C141.566 77.6085 144.412 76.8345 146.083 75.1245C147.754 73.4145 148.4 70.9485 148.4 68.6085Z" fill="#E91E63"/>
<path d="M135.156 67.2307C135.156 67.2307 135.127 67.2937 135.047 67.3972C134.936 67.5539 134.814 67.7042 134.684 67.8472C134.214 68.3821 133.68 68.8624 133.093 69.2782C131.144 70.6879 128.733 71.3916 126.289 71.2639C123.846 71.1361 121.53 70.1852 119.754 68.5807C119.219 68.1053 118.744 67.5722 118.338 66.9922C118.192 66.7897 118.102 66.6187 118.032 66.5062C117.961 66.3937 117.933 66.3307 117.942 66.3262C118.509 67.0979 119.158 67.8126 119.877 68.4592C120.671 69.1427 121.569 69.7085 122.539 70.1377C124.924 71.2246 127.663 71.367 130.157 70.5337C131.168 70.2083 132.123 69.7411 132.989 69.1477C133.78 68.5825 134.506 67.94 135.156 67.2307Z" fill="white"/>
<path d="M137.676 74.0494C137.624 74.1106 137.566 74.1665 137.502 74.2159C137.328 74.3775 137.144 74.5278 136.949 74.6659C136.241 75.1722 135.452 75.5672 134.613 75.8359C133.362 76.2322 132.045 76.4016 130.728 76.3354C129.115 76.2575 127.535 75.8686 126.084 75.1924C124.645 74.4963 123.331 73.5847 122.195 72.4924C121.267 71.6143 120.432 70.6512 119.702 69.6169C119.205 68.9237 118.75 68.204 118.338 67.4614C118.187 67.2004 118.088 67.0114 118.013 66.8494C117.974 66.7789 117.943 66.705 117.918 66.6289C117.974 66.6908 118.021 66.7588 118.06 66.8314L118.419 67.4164C118.735 67.9294 119.202 68.6584 119.835 69.5179C120.578 70.5307 121.419 71.4753 122.346 72.3394C123.476 73.398 124.77 74.2844 126.183 74.9674C127.606 75.6282 129.153 76.0136 130.733 76.1014C132.023 76.1743 133.315 76.0218 134.547 75.6514C135.386 75.4015 136.181 75.0345 136.907 74.5624C137.402 74.2384 137.657 74.0224 137.676 74.0494Z" fill="white"/>
<path d="M146.281 66.3984C146.281 66.3984 146.215 66.5154 146.059 66.7044C145.835 66.9688 145.587 67.2143 145.318 67.4379C144.924 67.7755 144.497 68.0768 144.044 68.3379C143.487 68.6569 142.899 68.9222 142.288 69.1299C141.674 69.3261 141.042 69.4662 140.4 69.5484C139.874 69.6088 139.343 69.6238 138.814 69.5934C138.458 69.5739 138.104 69.5273 137.757 69.4539C137.625 69.4382 137.498 69.4017 137.379 69.3459C137.379 69.3054 137.936 69.4134 138.819 69.4269C141.145 69.4624 143.408 68.7079 145.205 67.2984C145.889 66.7809 146.248 66.3984 146.281 66.3984Z" fill="white"/>
<path d="M148.235 69.5488C148.296 69.6752 148.319 69.8156 148.301 69.9538C148.281 70.3346 148.14 70.7005 147.895 71.0023C147.532 71.444 147.056 71.7895 146.512 72.0058C145.869 72.2815 145.199 72.4941 144.511 72.6403C143.261 72.9088 141.971 72.9622 140.702 72.7978C140.319 72.7455 139.939 72.6718 139.564 72.5773C139.425 72.5508 139.291 72.5021 139.168 72.4333C139.168 72.3928 139.758 72.5458 140.721 72.6313C141.971 72.7457 143.233 72.6713 144.459 72.4108C145.875 72.0913 147.178 71.6278 147.763 70.9033C148 70.6277 148.154 70.2968 148.211 69.9448C148.244 69.6883 148.216 69.5488 148.235 69.5488Z" fill="white"/>
<path d="M136.374 160.98C136.289 161 136.201 161.008 136.114 161.003C135.944 161.003 135.689 161.003 135.368 161.003C134.45 160.989 133.535 160.905 132.631 160.751C129.625 160.257 126.795 159.059 124.395 157.264C121.995 155.469 120.1 153.134 118.881 150.468C118.51 149.668 118.207 148.84 117.975 147.993C117.885 147.696 117.848 147.458 117.81 147.3C117.789 147.219 117.775 147.136 117.767 147.053C117.885 147.347 117.985 147.647 118.065 147.953C118.333 148.784 118.659 149.597 119.042 150.387C120.29 153.002 122.179 155.292 124.55 157.065C126.92 158.838 129.703 160.042 132.664 160.575C133.556 160.742 134.46 160.85 135.368 160.899C136.015 160.958 136.374 160.962 136.374 160.98Z" fill="#455A64"/>
<path d="M114.275 159.55C114.201 159.521 114.132 159.485 114.067 159.442L113.496 159.091L111.424 157.75C109.161 156.284 106.795 154.967 104.344 153.808C101.899 152.66 99.2884 151.865 96.5981 151.45C95.7801 151.334 94.956 151.262 94.1296 151.234C93.8255 151.237 93.5214 151.225 93.2186 151.198C93.2954 151.177 93.375 151.168 93.4546 151.171C93.6057 151.171 93.8369 151.139 94.1296 151.144C94.9629 151.134 95.7958 151.182 96.6217 151.288C99.3494 151.657 101.998 152.439 104.466 153.605C106.924 154.769 109.283 156.113 111.523 157.624C112.387 158.191 113.076 158.663 113.552 158.996L114.095 159.383C114.218 159.469 114.279 159.518 114.275 159.55Z" fill="#455A64"/>
<path d="M138.007 158.361L105.783 159.914L108.28 168.963L151.223 169.152L138.007 158.361Z" fill="#FFBE9D"/>
<path d="M107.28 159.842C107.28 159.842 96.8672 154.892 95.5787 154.843C94.5922 154.811 88.8715 155.743 86.2378 156.17C85.7432 156.235 85.2956 156.484 84.9931 156.863C84.6906 157.241 84.5577 157.719 84.6235 158.191C84.692 158.527 84.8771 158.833 85.1494 159.057C85.4216 159.281 85.765 159.412 86.1245 159.428C85.7445 159.608 85.4335 159.897 85.2353 160.255C85.0371 160.613 84.9618 161.021 85.02 161.422C85.2277 162.848 87.0779 162.884 87.0779 162.884C86.9978 162.965 86.9237 163.05 86.8561 163.141C86.6709 163.387 86.558 163.677 86.5289 163.979C86.4999 164.281 86.5557 164.586 86.6907 164.861C86.8258 165.135 87.0351 165.371 87.2973 165.543C87.5594 165.716 87.8649 165.818 88.1824 165.841L89.0226 165.899C89.0226 165.899 87.9936 166.498 88.1635 167.47C88.4939 169.333 92.9591 169.054 92.9591 169.054L108.28 168.95L107.28 159.842Z" fill="#FFBE9D"/>
<path d="M86.8985 153.812C87.0448 154.42 87.4083 155.711 88.6024 156.143L94.6393 155.05C94.6393 155.05 89.8768 154.217 89.1169 153.578C88.8139 153.314 88.4797 153.085 88.121 152.894C87.9749 152.828 87.8122 152.802 87.6515 152.82C87.4907 152.837 87.3382 152.897 87.2111 152.992C87.084 153.087 86.9874 153.215 86.9322 153.36C86.8769 153.505 86.8653 153.662 86.8985 153.812Z" fill="#FFBE9D"/>
<path d="M91.7601 155.396C91.7601 155.495 90.5518 155.787 89.0131 155.985C87.4744 156.183 86.2377 156.305 86.2188 156.197C86.2 156.089 87.4224 155.805 88.9612 155.607C90.4999 155.409 91.7601 155.288 91.7601 155.396Z" fill="#EB996E"/>
<path d="M90.9247 158.824C90.953 158.923 89.9099 159.274 88.5647 159.405C87.2195 159.535 86.1244 159.454 86.1292 159.355C86.1339 159.256 87.2053 159.175 88.5175 159.027C89.8296 158.878 90.8964 158.721 90.9247 158.824Z" fill="#EB996E"/>
<path d="M93.9455 157.96C94.0446 158 93.9785 158.333 93.6717 158.594C93.3649 158.855 93.0109 158.878 92.9779 158.783C92.9448 158.689 93.1667 158.518 93.4074 158.311C93.6481 158.104 93.8464 157.915 93.9455 157.96Z" fill="#EB996E"/>
<path d="M92.1802 162.393C92.1802 162.496 91.0237 162.717 89.5794 162.879C88.1351 163.041 86.9504 163.09 86.9315 162.987C86.9126 162.883 88.0785 162.667 89.5322 162.505C90.986 162.343 92.1707 162.289 92.1802 162.393Z" fill="#EB996E"/>
<path d="M95.3992 160.342C95.4464 160.342 95.5597 160.427 95.6258 160.648C95.7041 160.947 95.6592 161.264 95.5003 161.532C95.3414 161.801 95.0806 162.001 94.7714 162.092C94.5354 162.155 94.3844 162.115 94.3797 162.065C94.375 162.016 94.8753 161.822 95.1538 161.345C95.4322 160.868 95.3001 160.382 95.3992 160.342Z" fill="#EB996E"/>
<path d="M93.6481 165.849C93.6481 165.953 92.5909 166.065 91.2881 166.101C89.9854 166.137 88.9045 166.079 88.9045 165.975C88.9045 165.872 89.9618 165.759 91.2645 165.723C92.5673 165.687 93.6481 165.75 93.6481 165.849Z" fill="#EB996E"/>
<path d="M96.7681 163.535C96.8153 163.535 96.9097 163.634 96.938 163.864C96.9651 164.154 96.8958 164.445 96.7397 164.696C96.3763 165.272 95.909 165.529 95.843 165.47C95.7769 165.412 96.0931 164.993 96.3905 164.512C96.6878 164.03 96.6689 163.567 96.7681 163.535Z" fill="#EB996E"/>
<path d="M194.486 134.458L186.476 152.129L179.047 174.89L251.032 175.214L249.805 132.104L214.423 128.666L194.486 134.458Z" fill="#263238"/>
<path d="M156.004 137.172C156.004 137.172 150.208 139.273 145.672 140.547C141.136 141.82 133.041 146.586 133.041 146.586C133.041 146.586 124.8 153.664 125.097 154.6C125.395 155.536 126.372 155.986 127.623 155.028C128.873 154.069 135.052 150.591 135.052 150.591C135.052 150.591 135.448 152.562 136.784 152.787C137.459 152.946 138.167 152.914 138.823 152.697C138.823 152.697 139.371 154.546 140.333 155.149C140.897 155.505 141.524 155.76 142.184 155.901C142.201 156.235 142.337 156.554 142.568 156.805C142.799 157.057 143.113 157.226 143.458 157.287C144.288 157.511 145.15 157.608 146.012 157.575C146.012 157.575 150.312 155.091 150.996 153.894C151.68 152.697 152.516 151.081 152.516 151.081L154.291 150.235L159.742 149.335L156.004 137.172Z" fill="#C78976"/>
<path d="M150.024 146.523C149.874 146.751 149.694 146.961 149.49 147.148C148.931 147.675 148.283 148.108 147.574 148.431C146.499 148.931 145.335 149.236 144.143 149.331C143.421 149.402 142.693 149.373 141.981 149.245C141.194 149.11 140.446 148.817 139.786 148.386L139.928 148.201C140.462 148.578 140.97 148.989 141.447 149.43C141.701 149.663 141.93 149.919 142.132 150.195C142.338 150.485 142.479 150.813 142.547 151.158C142.628 151.567 142.618 151.989 142.516 152.395C142.414 152.8 142.224 153.181 141.957 153.511L141.901 153.579L141.816 153.547C140.998 153.222 140.222 152.808 139.503 152.314C138.804 151.864 138.162 151.378 137.558 150.924C136.954 150.469 136.397 150.024 135.864 149.619C135.627 149.402 135.446 149.136 135.337 148.842C135.227 148.547 135.191 148.232 135.231 147.922C135.275 147.66 135.358 147.406 135.477 147.166C135.576 146.937 135.675 146.716 135.779 146.532C135.982 146.149 136.18 145.83 136.35 145.573C136.52 145.317 136.666 145.123 136.77 145.011C136.818 144.944 136.873 144.882 136.935 144.826C136.901 144.9 136.858 144.969 136.808 145.033C136.718 145.164 136.586 145.362 136.425 145.618C136.23 145.932 136.052 146.255 135.892 146.586C135.793 146.779 135.698 146.991 135.609 147.216C135.5 147.446 135.427 147.69 135.392 147.94C135.359 148.225 135.396 148.513 135.5 148.782C135.604 149.05 135.772 149.292 135.991 149.488C136.501 149.884 137.096 150.312 137.69 150.762C138.285 151.212 138.936 151.684 139.63 152.134C140.339 152.613 141.102 153.015 141.905 153.331L141.764 153.372C142.009 153.067 142.183 152.716 142.277 152.342C142.37 151.969 142.38 151.58 142.306 151.203C142.243 150.889 142.115 150.591 141.929 150.325C141.736 150.063 141.518 149.819 141.277 149.596C140.81 149.16 140.312 148.756 139.786 148.386L139.928 148.201C140.555 148.619 141.27 148.903 142.023 149.034C142.716 149.166 143.425 149.2 144.128 149.137C145.3 149.049 146.445 148.759 147.508 148.282C148.213 147.977 148.863 147.567 149.434 147.067C149.816 146.743 150 146.5 150.024 146.523Z" fill="#925B4C"/>
<path d="M142.264 152.315C142.491 152.205 142.728 152.114 142.972 152.045C143.533 151.843 144.054 151.551 144.511 151.181C144.741 150.977 144.905 150.714 144.983 150.425C145.035 150.192 144.999 149.95 144.881 149.741C144.764 149.532 144.572 149.369 144.341 149.282C144.341 149.282 144.421 149.255 144.558 149.282C144.755 149.339 144.923 149.464 145.03 149.633C145.198 149.875 145.264 150.169 145.214 150.456C145.141 150.803 144.952 151.119 144.676 151.356C144.199 151.755 143.635 152.047 143.024 152.211C142.782 152.3 142.522 152.336 142.264 152.315Z" fill="#925B4C"/>
<path d="M143.477 155.451C143.81 155.215 144.159 154.998 144.52 154.803C144.846 154.605 145.223 154.353 145.629 154.074C146.072 153.773 146.483 153.432 146.857 153.057C147.035 152.866 147.163 152.638 147.229 152.391C147.279 152.164 147.248 151.928 147.14 151.72C147.046 151.539 146.913 151.379 146.751 151.25C146.588 151.12 146.399 151.025 146.196 150.969C145.912 150.887 145.615 150.852 145.318 150.865C145.207 150.88 145.094 150.88 144.983 150.865C145.085 150.814 145.198 150.783 145.313 150.775C145.627 150.725 145.948 150.736 146.257 150.807C146.491 150.861 146.711 150.962 146.901 151.104C147.092 151.245 147.249 151.423 147.362 151.626C147.492 151.878 147.533 152.164 147.48 152.44C147.406 152.725 147.262 152.989 147.06 153.21C146.674 153.599 146.243 153.947 145.776 154.245C145.356 154.528 144.964 154.762 144.629 154.947C144.272 155.166 143.884 155.335 143.477 155.451Z" fill="#925B4C"/>
<path d="M149.198 155.09C149.282 154.893 149.35 154.69 149.401 154.483C149.454 154.239 149.434 153.987 149.343 153.754C149.253 153.521 149.096 153.317 148.889 153.165C148.683 153.014 148.436 152.92 148.177 152.896C147.917 152.872 147.656 152.918 147.423 153.029C147.045 153.187 146.89 153.403 146.857 153.376C146.824 153.349 146.946 153.097 147.329 152.881C147.589 152.733 147.89 152.663 148.192 152.68C148.495 152.697 148.785 152.8 149.025 152.976C149.266 153.152 149.445 153.393 149.541 153.667C149.636 153.941 149.643 154.236 149.561 154.514C149.457 154.937 149.212 155.108 149.198 155.09Z" fill="#925B4C"/>
<path d="M184.909 161.021L183.394 163.15H172.099L157.713 168.676H194.868C195.185 168.302 196.152 166.876 196.152 166.876L184.909 161.021Z" fill="#C78976"/>
<path d="M236.395 95.4751C228.281 82.9606 210.846 67.6696 209.368 66.9631C207.891 66.2566 184.055 64.8301 184.055 64.8301L165.232 77.5651L158.982 86.4706C158.128 89.0041 156.622 92.9056 157.311 95.4706L157.892 99.8626L177.527 111.945L187.293 117.381L192.73 124.734L192.296 137.051L199.99 135.656C199.99 135.656 211.837 136.772 223.193 137.037C234.549 137.303 250.168 133.865 250.168 133.865C250.168 133.865 245.443 109.439 236.395 95.4751Z" fill="#455A64"/>
<path d="M191.102 86.3806L197.766 121.634L183.946 160.518L197.766 167.718C197.766 167.718 207.641 151.149 212.087 141.128C216.533 131.106 218.152 125.508 218.152 125.508C218.152 125.508 218.152 87.4066 216.736 83.0146C215.32 78.6226 210.628 69.9151 205.691 70.3876C200.754 70.8601 189.082 75.6886 191.102 86.3806Z" fill="#455A64"/>
<path d="M157.892 99.8809L169.8 127.682C169.154 128.696 168.677 129.8 168.384 130.953L153.531 137.951L157.892 151.338C157.892 151.338 176.423 145.488 179.047 144.138C181.671 142.788 189.242 137.649 190.554 133.478C191.866 129.306 184.593 114.528 184.593 114.528L157.892 99.8809Z" fill="#455A64"/>
<path d="M187.293 117.399C187.204 117.367 187.118 117.326 187.038 117.278L186.335 116.904C185.726 116.571 184.848 116.085 183.772 115.464C182.696 114.843 181.412 114.114 180.062 113.214C179.377 112.764 178.646 112.278 177.961 111.734L175.809 110.037L168.295 104.034L166.039 102.194L165.43 101.685C165.356 101.63 165.29 101.566 165.232 101.496C165.316 101.536 165.394 101.588 165.463 101.649L166.095 102.099C166.666 102.549 167.45 103.148 168.408 103.899C170.362 105.443 173.024 107.535 175.96 109.848L178.108 111.554C178.806 112.089 179.524 112.58 180.185 113.03C181.544 113.93 182.799 114.699 183.861 115.338L186.377 116.837L187.057 117.251C187.142 117.29 187.221 117.34 187.293 117.399Z" fill="#263238"/>
<path d="M188.671 66.459C189.03 66.8578 189.336 67.2977 189.582 67.7685C190.26 69.0537 190.622 70.4697 190.639 71.9085C190.652 72.9009 190.527 73.8905 190.266 74.8515C189.948 75.9585 189.472 77.0184 188.85 78.0015C187.402 80.2205 185.438 82.0926 183.111 83.4735C180.828 84.9333 178.172 85.7762 175.427 85.9125C173.172 85.9992 170.951 85.3657 169.116 84.1125C167.88 83.2799 166.901 82.1451 166.284 80.8275C166.186 80.6231 166.102 80.4127 166.034 80.1975C165.975 80.0427 165.93 79.883 165.902 79.7205C165.873 79.6035 165.855 79.5045 165.836 79.4235C165.829 79.3892 165.829 79.3542 165.836 79.32C165.988 79.8201 166.171 80.3115 166.383 80.7915C167.018 82.0729 167.995 83.173 169.215 83.982C171.024 85.196 173.203 85.8052 175.413 85.7145C178.111 85.5678 180.719 84.7333 182.964 83.298C185.256 81.9294 187.193 80.0831 188.628 77.898C189.244 76.9405 189.72 75.9082 190.044 74.829C190.306 73.8862 190.438 72.9151 190.436 71.94C190.438 70.5199 190.106 69.1175 189.464 67.836C189.367 67.6337 189.259 67.4369 189.138 67.2465C189.039 67.08 188.949 66.936 188.869 66.828L188.695 66.576C188.685 66.495 188.666 66.4635 188.671 66.459Z" fill="#263238"/>
<path d="M183.545 82.7088C183.479 82.7313 183.135 82.0023 182.554 81.2013C181.973 80.4003 181.383 79.8288 181.435 79.7793C182.475 80.4918 183.221 81.5279 183.545 82.7088Z" fill="#263238"/>
<path d="M188.048 78.7026C187.556 78.2913 187.027 77.9224 186.467 77.6001C185.869 77.3463 185.25 77.1416 184.617 76.9881C185.298 76.9517 185.976 77.0919 186.581 77.3938C187.185 77.6956 187.692 78.1479 188.048 78.7026Z" fill="#263238"/>
<path d="M190.498 73.9245C190.474 73.9875 189.78 73.785 188.907 73.6725C188.034 73.56 187.307 73.5645 187.302 73.497C187.834 73.3467 188.398 73.3265 188.94 73.4385C189.493 73.4758 190.028 73.6428 190.498 73.9245Z" fill="#263238"/>
<path d="M190.073 68.3628C189.612 68.5235 189.138 68.6499 188.657 68.7408C188.195 68.9041 187.722 69.0364 187.241 69.1368C187.63 68.8239 188.096 68.6103 188.595 68.5158C189.067 68.3507 189.575 68.2981 190.073 68.3628Z" fill="#263238"/>
<path d="M175.936 85.4034C175.653 84.9744 175.523 84.4688 175.568 83.9634C175.531 83.4568 175.665 82.9521 175.951 82.5234C176.021 82.5459 175.814 83.1714 175.814 83.9634C175.814 84.7554 176.003 85.3809 175.936 85.4034Z" fill="#263238"/>
<path d="M168.323 83.9827C168.483 83.6311 168.714 83.313 169.003 83.0466C169.428 82.5696 169.819 82.2187 169.867 82.2637C169.914 82.3087 169.616 82.7136 169.192 83.1996C168.767 83.6856 168.375 84.0232 168.323 83.9827Z" fill="#263238"/>
<path d="M216.713 83.0098C216.713 83.0098 216.713 83.0728 216.769 83.1988C216.825 83.385 216.869 83.5744 216.901 83.7658C217.005 84.2698 217.1 85.0303 217.204 86.0158C217.402 87.9958 217.581 90.9073 217.727 94.6243C218.02 102.054 218.199 112.692 218.256 125.503V125.53C217.26 128.757 216.005 132.06 214.617 135.471C213.229 138.882 211.724 142.396 209.939 145.92C206.399 152.98 202.284 160.288 197.88 167.767L197.818 167.871L197.715 167.812L196.435 167.151L183.89 160.621L183.8 160.576L183.833 160.482L197.682 121.602V121.647C195.666 110.892 194.014 102.076 192.867 95.9473C192.296 92.8873 191.857 90.4978 191.555 88.8688C191.409 88.0588 191.295 87.4378 191.22 87.0148C191.144 86.5918 191.111 86.3803 191.111 86.3803C191.111 86.3803 191.163 86.5963 191.248 87.0103C191.333 87.4243 191.451 88.0498 191.612 88.8598C191.923 90.4888 192.386 92.8738 192.976 95.9293C194.142 102.054 195.808 110.865 197.875 121.615V121.638V121.66C193.962 132.681 189.242 145.996 184.074 160.558L184.017 160.419L196.544 166.944L197.823 167.61L197.658 167.655C202.057 160.176 206.154 152.872 209.718 145.825C211.497 142.306 213.022 138.792 214.4 135.394C215.778 131.997 217.052 128.685 218.048 125.494V125.521C218.048 112.71 217.864 102.076 217.609 94.6468C217.477 90.9298 217.317 88.0183 217.137 86.0428C217.043 85.0528 216.958 84.2968 216.864 83.7928C216.836 83.6005 216.799 83.4097 216.75 83.2213C216.734 83.1515 216.721 83.0809 216.713 83.0098Z" fill="#263238"/>
<path d="M207.721 73.4298C206.996 73.0842 206.249 72.7836 205.484 72.5298C203.624 71.9395 201.635 71.8263 199.715 72.2015C197.795 72.5767 196.013 73.4271 194.547 74.6673C193.95 75.1901 193.387 75.7477 192.862 76.3368C192.958 76.1473 193.078 75.9704 193.221 75.8103C193.583 75.3533 193.987 74.9285 194.429 74.5413C195.895 73.2428 197.706 72.3536 199.666 71.9711C201.626 71.5885 203.658 71.7273 205.54 72.3723C206.107 72.562 206.654 72.8015 207.173 73.0878C207.37 73.1797 207.554 73.2945 207.721 73.4298Z" fill="#263238"/>
<g opacity="0.3">
<path d="M213.333 138.342C213.409 138.153 213.479 137.964 213.555 137.779L213.432 137.86L213.333 138.342Z" fill="black"/>
<path d="M220.791 113.552C220.196 107.774 219.412 101.996 217.836 96.3887C216.5 106.122 219.12 116.108 217.364 125.783C216.618 129.909 215.094 133.883 213.545 137.78C217.406 135.372 219.733 131.16 220.654 126.845C221.574 122.529 221.248 117.98 220.791 113.552Z" fill="black"/>
</g>
<g opacity="0.3">
<path d="M185.688 116.486L169.295 104.691C169.479 109.088 172.986 112.697 176.635 115.397C180.284 118.097 185.24 121.202 188.695 124.118C187.576 121.688 186.835 118.916 185.688 116.486Z" fill="black"/>
</g>
<path d="M192.919 94.916C192.839 95.021 192.75 95.1203 192.655 95.213C192.475 95.402 192.183 95.663 191.848 96.0275C190.852 97.0269 189.744 97.9188 188.544 98.687C187.704 99.2126 186.783 99.6104 185.815 99.866C184.688 100.14 183.507 100.14 182.379 99.866C181.156 99.5249 179.994 99.0123 178.929 98.345C177.81 97.6925 176.706 96.932 175.483 96.3245C174.318 95.6946 173.02 95.3224 171.684 95.2355C170.438 95.2163 169.222 95.5949 168.229 96.311C167.323 96.964 166.46 97.6704 165.647 98.426C164.923 99.0891 164.105 99.6512 163.216 100.096C162.475 100.469 161.64 100.636 160.804 100.577C160.173 100.54 159.563 100.346 159.034 100.015C158.698 99.811 158.417 99.5332 158.218 99.2045C158.147 99.0916 158.091 98.9707 158.052 98.8445C158.052 98.8445 158.118 98.966 158.26 99.1775C158.472 99.4873 158.754 99.7473 159.086 99.938C159.608 100.244 160.202 100.419 160.814 100.447C161.623 100.488 162.428 100.316 163.141 99.947C164.004 99.4987 164.798 98.9384 165.501 98.282C166.315 97.5156 167.179 96.7987 168.087 96.1355C168.597 95.7857 169.155 95.5027 169.744 95.294C170.365 95.0867 171.021 94.9891 171.679 95.006C173.053 95.0905 174.389 95.4705 175.587 96.1175C176.833 96.734 177.947 97.499 179.047 98.1515C180.089 98.8091 181.228 99.3156 182.426 99.6545C182.984 99.8035 183.561 99.8747 184.14 99.866C184.685 99.8688 185.229 99.8083 185.759 99.686C186.71 99.4435 187.615 99.0625 188.444 98.5565C189.636 97.8043 190.743 96.9372 191.748 95.969L192.584 95.1905C192.686 95.0892 192.799 94.9973 192.919 94.916Z" fill="white"/>
<path d="M216.864 92.1855C216.805 92.2524 216.738 92.3128 216.665 92.3655C216.46 92.5195 216.233 92.6452 215.99 92.739C215.081 93.0617 214.086 93.0901 213.158 92.82C210.699 92.28 208.519 89.418 204.842 88.77C203.977 88.5787 203.095 88.4717 202.208 88.4505C201.381 88.4403 200.555 88.5005 199.739 88.6305C198.356 88.8502 197.017 89.2785 195.775 89.8995C194.637 90.4904 193.589 91.2261 192.659 92.0865C192.71 92.0144 192.768 91.948 192.834 91.8885L193.367 91.3485C193.627 91.1415 193.934 90.8715 194.311 90.597L194.944 90.174C195.166 90.021 195.416 89.904 195.69 89.7555C196.939 89.0991 198.293 88.6431 199.697 88.4055C200.526 88.2672 201.366 88.2009 202.208 88.2075C203.113 88.2223 204.013 88.3294 204.894 88.527C205.775 88.7206 206.631 89.0058 207.447 89.3775C207.829 89.5845 208.217 89.769 208.571 89.9805C208.925 90.192 209.26 90.4305 209.585 90.6465C210.864 91.5465 212.044 92.343 213.201 92.649C214.098 92.9277 215.065 92.9277 215.962 92.649C216.282 92.5306 216.584 92.3749 216.864 92.1855Z" fill="white"/>
<path d="M229.112 85.8712C229.112 85.8937 228.895 85.9882 228.546 86.2447C228.062 86.614 227.662 87.0733 227.37 87.5947C226.948 88.3801 226.647 89.2199 226.478 90.0877C226.287 91.1721 225.985 92.2362 225.577 93.2647C225.106 94.2936 224.311 95.1571 223.302 95.7352C222.489 96.2108 221.574 96.5046 220.625 96.5947C219.992 96.6552 219.353 96.6079 218.737 96.4552C218.575 96.4164 218.417 96.3637 218.265 96.2977C218.152 96.2572 218.096 96.2347 218.1 96.2257C218.105 96.2167 218.341 96.2842 218.775 96.3652C219.387 96.4833 220.015 96.5061 220.635 96.4327C221.552 96.3152 222.432 96.008 223.212 95.5327C224.171 94.9678 224.927 94.1374 225.379 93.1522C225.777 92.1374 226.08 91.0907 226.285 90.0247C226.464 89.1411 226.782 88.2884 227.229 87.4957C227.54 86.9606 227.974 86.4992 228.498 86.1457C228.638 86.0493 228.788 85.9678 228.947 85.9027C229.065 85.8847 229.112 85.8622 229.112 85.8712Z" fill="white"/>
<path d="M173.888 108.156C173.879 108.319 173.847 108.479 173.794 108.633C173.753 108.82 173.698 109.004 173.628 109.182C173.545 109.422 173.449 109.658 173.34 109.889C173.213 110.171 173.066 110.444 172.902 110.708C172.722 111.019 172.524 111.32 172.307 111.608C171.302 112.92 169.973 113.974 168.436 114.677C167.81 114.958 167.153 115.174 166.478 115.32C166.22 115.379 165.958 115.423 165.694 115.451C165.497 115.481 165.299 115.496 165.099 115.496C164.93 115.514 164.759 115.514 164.59 115.496C164.59 115.446 165.316 115.442 166.435 115.167C167.086 115.002 167.719 114.776 168.323 114.492C169.062 114.134 169.758 113.701 170.4 113.201C171.033 112.69 171.606 112.115 172.109 111.486C172.326 111.211 172.528 110.924 172.713 110.627C172.889 110.373 173.046 110.109 173.185 109.835C173.671 108.822 173.827 108.143 173.888 108.156Z" fill="white"/>
<path d="M248.016 145.389C247.762 145.455 247.503 145.498 247.241 145.52C246.937 145.569 246.63 145.599 246.321 145.61C245.915 145.644 245.506 145.656 245.099 145.646C244.605 145.651 244.112 145.628 243.621 145.578C243.088 145.547 242.526 145.448 241.931 145.362C240.653 145.121 239.402 144.766 238.193 144.3C236.994 143.815 235.846 143.219 234.767 142.523C234.295 142.185 233.823 141.879 233.412 141.537C233.028 141.241 232.662 140.924 232.317 140.588C231.982 140.295 231.722 139.989 231.481 139.737C231.272 139.522 231.078 139.294 230.901 139.053C230.726 138.863 230.568 138.658 230.429 138.441C230.621 138.61 230.797 138.795 230.953 138.995C231.144 139.224 231.349 139.442 231.566 139.647C231.812 139.89 232.081 140.187 232.416 140.466C232.768 140.792 233.139 141.1 233.525 141.389C233.922 141.717 234.394 142.019 234.875 142.347C235.949 143.022 237.085 143.604 238.269 144.084C239.461 144.545 240.695 144.901 241.955 145.146C242.54 145.241 243.093 145.349 243.621 145.385C244.107 145.442 244.595 145.475 245.084 145.484C245.556 145.511 245.939 145.484 246.297 145.484C246.603 145.484 246.909 145.467 247.213 145.434C247.479 145.4 247.747 145.385 248.016 145.389Z" fill="#455A64"/>
<path d="M210.175 168.099C210.109 168.099 211.119 163.626 212.436 158.136C213.753 152.646 214.867 148.209 214.933 148.236C214.999 148.263 213.989 152.714 212.672 158.204C211.355 163.694 210.232 168.131 210.175 168.099Z" fill="#455A64"/>
<path d="M187.642 71.6869C187.709 70.8195 187.547 69.95 187.17 69.1579L172.845 39.2599C169.508 30.6784 161.484 25.3729 152.577 28.7929L151.77 29.1574C147.864 30.913 144.796 34.0075 143.177 37.824C141.557 41.6404 141.506 45.8985 143.033 49.7494C145.969 57.1744 149.316 65.3374 151.265 69.1534C155.301 77.0509 164.245 74.5534 164.245 74.5534L165.916 77.5954C165.916 77.5954 167.662 83.3239 175.129 82.5229C180.874 81.9019 185.122 76.5874 186.783 74.1619C187.287 73.4205 187.582 72.5683 187.642 71.6869Z" fill="#C78976"/>
<path d="M164.174 74.5406C168.045 72.8012 171.31 70.0381 173.581 66.5801C173.581 66.5801 173.845 73.4516 165.175 76.4801L164.174 74.5406Z" fill="#925B4C"/>
<path d="M148.4 55.7227C148.542 56.0205 148.802 56.2533 149.122 56.371C149.442 56.4888 149.798 56.4822 150.113 56.3527C150.27 56.296 150.414 56.21 150.536 56.0996C150.658 55.9893 150.755 55.8569 150.822 55.7101C150.89 55.5634 150.925 55.4053 150.928 55.2452C150.93 55.085 150.899 54.9261 150.836 54.7777C150.692 54.4806 150.433 54.2486 150.113 54.131C149.793 54.0133 149.438 54.0193 149.122 54.1477C148.965 54.2038 148.821 54.2895 148.698 54.3998C148.576 54.51 148.479 54.6425 148.411 54.7894C148.344 54.9363 148.308 55.0946 148.306 55.255C148.304 55.4153 148.336 55.5743 148.4 55.7227Z" fill="#263238"/>
<path d="M146.748 52.8141C146.97 52.8996 147.555 51.8556 148.839 51.2841C150.123 50.7126 151.359 50.8971 151.426 50.6856C151.463 50.5866 151.18 50.3886 150.628 50.2896C149.893 50.1721 149.138 50.2743 148.466 50.5821C147.8 50.8825 147.25 51.3753 146.894 51.9906C146.644 52.4496 146.644 52.7826 146.748 52.8141Z" fill="#263238"/>
<path d="M160.139 50.5248C160.281 50.8226 160.54 51.0554 160.86 51.1732C161.181 51.291 161.537 51.2844 161.852 51.1548C162.009 51.0987 162.154 51.0129 162.276 50.9027C162.398 50.7925 162.495 50.66 162.563 50.5131C162.63 50.3662 162.666 50.2079 162.668 50.0475C162.67 49.8872 162.638 49.7282 162.574 49.5798C162.432 49.282 162.173 49.0492 161.852 48.9315C161.532 48.8137 161.176 48.8203 160.861 48.9498C160.704 49.0065 160.56 49.0925 160.438 49.2029C160.317 49.3132 160.219 49.4456 160.152 49.5924C160.085 49.7391 160.049 49.8972 160.047 50.0573C160.044 50.2175 160.076 50.3764 160.139 50.5248Z" fill="#263238"/>
<path d="M159.45 47.378C159.667 47.459 160.257 46.415 161.536 45.8435C162.815 45.272 164.061 45.461 164.127 45.245C164.16 45.1505 163.882 44.948 163.329 44.849C162.594 44.7329 161.839 44.8366 161.168 45.146C160.5 45.4421 159.949 45.9341 159.596 46.55C159.346 47.018 159.341 47.342 159.45 47.378Z" fill="#263238"/>
<path d="M159.284 58.5258C159.256 58.4538 158.397 58.6788 157.028 59.1018C156.684 59.2188 156.344 59.2953 156.183 59.1018C155.996 58.7924 155.912 58.4362 155.943 58.0803C155.876 57.1803 155.81 56.2533 155.735 55.2723C155.404 51.2853 154.999 48.0723 154.833 48.0723C154.668 48.0723 154.796 51.3258 155.126 55.3083C155.214 56.2893 155.301 57.2253 155.386 58.1163C155.367 58.5848 155.52 59.0449 155.82 59.4168C155.922 59.5052 156.044 59.5702 156.176 59.6069C156.309 59.6435 156.449 59.6508 156.584 59.6283C156.788 59.5947 156.987 59.5357 157.174 59.4528C158.505 58.9533 159.313 58.5978 159.284 58.5258Z" fill="#263238"/>
<path d="M163.471 57.67C163.259 57.7555 163.91 59.0785 163.188 60.5545C162.466 62.0305 160.913 62.5525 160.993 62.7415C160.993 62.836 161.465 62.8495 162.083 62.584C162.91 62.2338 163.579 61.615 163.971 60.838C164.343 60.0929 164.397 59.2398 164.122 58.4575C163.882 57.8815 163.561 57.6205 163.471 57.67Z" fill="#263238"/>
<path d="M156.75 42.7446C157.038 43.0191 158.241 42.2946 159.827 41.7816C161.413 41.2686 162.824 41.1247 162.876 40.7332C162.876 40.5532 162.527 40.3372 161.88 40.2337C161.031 40.1339 160.17 40.2199 159.361 40.485C158.552 40.7501 157.817 41.1874 157.212 41.7637C156.764 42.2272 156.618 42.6096 156.75 42.7446Z" fill="#263238"/>
<path d="M145.469 49.0717C145.832 49.2472 146.573 48.5632 147.626 48.0727C148.678 47.5822 149.679 47.3752 149.74 46.9927C149.74 46.8127 149.481 46.5967 148.962 46.5112C148.277 46.4259 147.581 46.5454 146.97 46.8532C146.349 47.1466 145.84 47.6189 145.516 48.2032C145.285 48.6397 145.304 48.9817 145.469 49.0717Z" fill="#263238"/>
<path d="M142.028 45.7309C142.028 45.7309 141.764 39.7684 143.704 37.4734C146.064 34.6969 148.943 37.2934 151.463 35.2234C153.984 33.1534 156.226 30.4849 160.252 31.2904C164.656 32.1679 163.948 34.4944 165.916 37.9324C173.808 51.8554 178.547 54.6634 175.988 47.5804C175.71 46.8064 177.565 45.2539 176.342 41.9959C174.752 37.7704 172.486 32.7889 170.121 30.3499C168.125 28.2889 165.873 27.2719 162.352 26.5969C156.82 25.5349 151.171 28.0009 147.536 30.0844C143.902 32.1679 138.597 39.6604 142.028 45.7309Z" fill="#263238"/>
<path d="M175.332 47.5996C175.198 47.3029 175.128 46.9834 175.127 46.6604C175.126 46.3374 175.194 46.0175 175.327 45.7201C175.459 45.4227 175.653 45.154 175.898 44.9302C176.142 44.7064 176.431 44.5322 176.748 44.4181C178.372 43.8601 180.524 43.9231 181.94 47.0326C184.447 52.5451 178.122 53.8096 178.042 53.6566C177.961 53.5036 176.361 49.9126 175.332 47.5996Z" fill="#C78976"/>
<path d="M178.348 51.0594C178.348 51.0324 178.476 51.0864 178.684 51.0909C178.967 51.0856 179.238 50.9797 179.443 50.7939C179.953 50.3439 180.048 49.1874 179.623 48.1839C179.424 47.7043 179.114 47.2736 178.717 46.9239C178.584 46.7744 178.416 46.6578 178.226 46.5842C178.036 46.5105 177.83 46.4819 177.626 46.5009C177.498 46.5198 177.38 46.581 177.294 46.6739C177.208 46.7667 177.158 46.8855 177.154 47.0094C177.154 47.1984 177.235 47.2929 177.206 47.3154C177.178 47.3379 177.041 47.2704 176.984 47.0274C176.952 46.8741 176.977 46.715 177.055 46.5774C177.156 46.4006 177.325 46.2682 177.527 46.2084C177.785 46.154 178.054 46.1639 178.307 46.2372C178.56 46.3105 178.789 46.4447 178.971 46.6269C179.433 47.0033 179.792 47.4803 180.019 48.0174C180.491 49.1424 180.364 50.4294 179.632 51.0054C179.497 51.1123 179.338 51.1891 179.167 51.2303C178.997 51.2716 178.818 51.2762 178.646 51.2439C178.419 51.1899 178.33 51.0999 178.348 51.0594Z" fill="#925B4C"/>
<path d="M170.008 37.1232C169.508 37.9377 168.974 38.7882 168.12 39.2742C167.266 39.7602 166.006 39.7242 165.439 38.9547C165.184 38.6082 165.066 38.1267 164.66 37.9512C164.188 37.7397 163.655 38.1087 163.202 38.3742C162.4 38.8106 161.465 38.9705 160.554 38.8271C159.643 38.6837 158.811 38.2457 158.199 37.5867C158.071 38.3787 157.075 38.7972 156.24 38.6937C155.404 38.5902 154.678 38.1267 153.908 37.7937C153.139 37.4607 152.19 37.2987 151.487 37.7397C151.095 37.9872 150.821 38.4057 150.378 38.5587C149.599 38.8332 148.82 38.1627 148.358 37.5057C147.895 36.8487 147.414 36.0612 146.573 35.9622C145.733 35.8632 145.157 36.4122 144.506 36.8262C143.855 37.2402 142.901 37.4787 142.406 36.9162C142.292 36.7573 142.213 36.5783 142.173 36.3896C142.133 36.201 142.134 36.0067 142.174 35.8182C142.311 34.9527 142.751 34.1566 143.422 33.5588C144.092 32.961 144.955 32.5965 145.87 32.5242C145.702 31.4935 145.858 30.4383 146.32 29.4924C146.781 28.5465 147.526 27.7524 148.462 27.2107C149.397 26.6691 150.479 26.4042 151.573 26.4497C152.666 26.4952 153.72 26.849 154.602 27.4662C154.949 26.6735 155.49 25.972 156.181 25.4209C156.872 24.8698 157.692 24.4853 158.571 24.2999C159.451 24.1146 160.364 24.1338 161.234 24.3559C162.104 24.5781 162.905 24.9966 163.57 25.5762C164.181 25.0866 164.929 24.7793 165.722 24.6926C166.515 24.6059 167.317 24.7436 168.028 25.0887C168.74 25.4337 169.329 25.9708 169.722 26.6329C170.115 27.295 170.295 28.0528 170.239 28.8117C171.542 28.9062 172.897 29.4822 173.477 30.6117C174.058 31.7412 173.477 33.3612 172.175 33.5772C172.633 33.9131 172.938 34.4041 173.027 34.9487C173.116 35.4932 172.982 36.0495 172.653 36.5024C172.323 36.9552 171.824 37.27 171.258 37.3813C170.692 37.4927 170.102 37.3923 169.612 37.1007" fill="#263238"/>
<path d="M146.243 34.3249C146.243 34.3249 146.243 34.3609 146.295 34.4239C146.347 34.5196 146.407 34.6114 146.474 34.6984C146.735 35.0341 147.055 35.3247 147.418 35.5579C147.981 35.9317 148.628 36.1766 149.306 36.2734C150.213 36.4161 151.143 36.2707 151.954 35.8594L151.798 35.7829C151.871 36.3546 152.178 36.8756 152.653 37.2319C153.15 37.6055 153.702 37.9087 154.291 38.1319C154.592 38.2762 154.908 38.3894 155.235 38.4694C155.591 38.5229 155.956 38.492 156.297 38.3794C156.66 38.2774 156.991 38.0912 157.26 37.8376C157.529 37.584 157.728 37.2708 157.84 36.9259L157.599 36.9619C157.957 37.4908 158.427 37.9423 158.979 38.2872C159.531 38.6321 160.153 38.8628 160.804 38.9644C161.535 39.1051 162.294 39.015 162.966 38.7079C163.584 38.3937 164.142 37.983 164.618 37.4929H164.434C165.056 38.0164 165.806 38.3831 166.614 38.5594C166.993 38.6603 167.391 38.6787 167.778 38.6132C168.165 38.5478 168.532 38.4002 168.852 38.1814C169.39 37.7901 169.797 37.2565 170.02 36.6468C170.243 36.0372 170.274 35.3784 170.107 34.7524L170.008 34.8694C170.759 34.9033 171.5 34.6887 172.104 34.2619C172.555 33.9499 172.924 33.5415 173.18 33.0694C173.34 32.7712 173.444 32.4482 173.487 32.1154C173.503 32.002 173.503 31.8869 173.487 31.7734C173.435 32.2096 173.297 32.6326 173.081 33.0199C172.819 33.4683 172.452 33.8532 172.009 34.1449C171.429 34.5359 170.727 34.7264 170.018 34.6849H169.881L169.918 34.8109C170.06 35.3992 170.02 36.014 169.803 36.581C169.586 37.148 169.202 37.643 168.696 38.0059C168.402 38.2022 168.066 38.3332 167.713 38.3893C167.359 38.4453 166.997 38.4251 166.652 38.3299C165.889 38.1573 165.184 37.8062 164.599 37.3084L164.505 37.2274L164.415 37.3129C163.96 37.7821 163.426 38.1746 162.834 38.4739C162.212 38.7564 161.512 38.8385 160.837 38.7079C160.222 38.6116 159.635 38.3942 159.114 38.0695C158.592 37.7449 158.147 37.3202 157.807 36.8224L157.646 36.5839L157.566 36.8629C157.467 37.1638 157.293 37.4373 157.059 37.6599C156.824 37.8825 156.537 38.0476 156.221 38.1409C155.919 38.2433 155.594 38.2726 155.277 38.2264C154.97 38.1533 154.672 38.0476 154.39 37.9114C153.82 37.7035 153.284 37.4186 152.799 37.0654C152.365 36.7465 152.08 36.2778 152.006 35.7604V35.6119L151.869 35.6839C151.103 36.0925 150.218 36.2505 149.349 36.1339C148.686 36.0529 148.05 35.8315 147.489 35.4859C147.002 35.1753 146.58 34.7817 146.243 34.3249Z" fill="#455A64"/>
<path d="M154.276 54.4571C154.193 53.9778 154.076 53.5043 153.927 53.0396C153.475 51.7833 152.592 50.7086 151.421 49.9886C150.62 49.496 149.71 49.1879 148.763 49.0886C147.677 48.9786 146.579 49.1447 145.582 49.5701C145.042 49.7944 144.542 50.0981 144.1 50.4701C143.631 50.8459 143.227 51.291 142.906 51.7886C142.212 52.8351 141.888 54.0657 141.981 55.3005C142.073 56.5352 142.578 57.7093 143.42 58.6511C143.815 59.0991 144.282 59.4848 144.803 59.7941C145.294 60.1025 145.832 60.3349 146.399 60.4826C147.223 60.7099 148.088 60.7697 148.938 60.6582C149.789 60.5468 150.605 60.2666 151.334 59.8358C152.064 59.4049 152.69 58.833 153.173 58.1569C153.657 57.4808 153.986 56.7155 154.139 55.9106C154.217 55.4309 154.263 54.9469 154.276 54.4616C154.295 54.5869 154.306 54.7131 154.309 54.8396C154.323 54.9894 154.323 55.1399 154.309 55.2896C154.304 55.4996 154.28 55.7089 154.239 55.9151C154.04 57.0456 153.505 58.0977 152.696 58.9459C151.888 59.7941 150.84 60.4026 149.679 60.6986C148.587 60.9841 147.434 60.9841 146.342 60.6986C145.753 60.547 145.192 60.3086 144.681 59.9921C144.146 59.6717 143.668 59.2722 143.265 58.8086C142.384 57.8323 141.856 56.6117 141.759 55.3272C141.662 54.0427 142.001 52.7626 142.727 51.6761C143.063 51.1653 143.484 50.7095 143.973 50.3261C144.433 49.9448 144.952 49.6322 145.511 49.3991C146.549 48.9628 147.689 48.7996 148.815 48.9266C149.791 49.0358 150.725 49.3627 151.543 49.8806C152.733 50.625 153.616 51.7376 154.045 53.0306C154.116 53.2302 154.169 53.4349 154.206 53.6426C154.245 53.7902 154.27 53.9408 154.281 54.0926C154.287 54.2141 154.286 54.3359 154.276 54.4571Z" fill="#263238"/>
<path d="M168.941 47.8069C168.862 47.3272 168.747 46.8535 168.597 46.3894C168.144 45.133 167.261 44.0583 166.091 43.3384C165.233 42.8069 164.248 42.4896 163.228 42.4157C162.208 42.3418 161.184 42.5136 160.252 42.9154C159.149 43.3856 158.217 44.1578 157.576 45.1339C156.88 46.1804 156.554 47.4121 156.646 48.6482C156.739 49.8842 157.245 51.0593 158.09 52.0009C158.872 52.879 159.908 53.5177 161.068 53.8369C162.12 54.1217 163.233 54.1357 164.292 53.8774C165.426 53.5957 166.453 53.0125 167.253 52.1959C168.052 51.3793 168.592 50.3628 168.809 49.2649C168.89 48.7856 168.934 48.3013 168.941 47.8159C168.967 47.9403 168.978 48.0671 168.974 48.1939C168.99 48.3435 168.99 48.4943 168.974 48.6439C168.967 48.8538 168.943 49.0628 168.904 49.2694C168.677 50.6116 167.97 51.8377 166.902 52.7389C166.114 53.4109 165.16 53.8821 164.129 54.1086C163.099 54.3352 162.025 54.3098 161.007 54.0349C159.8 53.7089 158.721 53.0497 157.906 52.1404C157.026 51.1644 156.499 49.9446 156.402 48.6611C156.305 47.3776 156.644 46.0984 157.368 45.0124C158.036 44.0005 159.006 43.2015 160.153 42.7174C161.189 42.2791 162.33 42.1143 163.457 42.2404C164.652 42.375 165.782 42.8348 166.711 43.5649C167.64 44.295 168.329 45.2646 168.696 46.3579C168.766 46.5576 168.82 46.7622 168.856 46.9699C168.894 47.1176 168.918 47.2682 168.927 47.4199C168.944 47.5482 168.948 47.6777 168.941 47.8069Z" fill="#263238"/>
<path d="M156.655 49.9387C155.987 49.93 155.325 50.0703 154.724 50.3484C154.122 50.6265 153.597 51.0348 153.191 51.5407C153.191 51.5407 153.243 51.3157 153.469 51.0232C153.775 50.6478 154.167 50.3445 154.616 50.137C155.065 49.9294 155.557 49.8231 156.056 49.8262C156.424 49.8352 156.665 49.9117 156.655 49.9387Z" fill="#263238"/>
<path d="M175.035 45.9476C173.967 46.0898 172.889 46.1544 171.811 46.141C170.736 46.2089 169.656 46.1954 168.583 46.1005C170.726 45.8936 172.883 45.8425 175.035 45.9476Z" fill="#263238"/>
<path d="M125.499 165.945H154.026C154.402 165.945 154.762 166.088 155.027 166.341C155.293 166.594 155.442 166.937 155.442 167.295C155.442 167.653 155.293 167.997 155.027 168.25C154.762 168.503 154.402 168.645 154.026 168.645H125.499C125.123 168.645 124.763 168.503 124.497 168.25C124.232 167.997 124.083 167.653 124.083 167.295C124.083 166.937 124.232 166.594 124.497 166.341C124.763 166.088 125.123 165.945 125.499 165.945Z" fill="#E0E0E0"/>
<path d="M130.049 168.659H76.0895L70.7607 133.901C70.6941 133.479 70.7238 133.048 70.8476 132.639C70.9715 132.229 71.1865 131.849 71.4782 131.526C71.7699 131.203 72.1312 130.943 72.5377 130.765C72.9441 130.587 73.3861 130.495 73.8334 130.494L121.213 130.859C122.747 130.859 124.215 131.565 124.446 133.014L130.049 168.659Z" fill="#E0E0E0"/>
<path d="M102.498 149.164C102.499 149.724 102.325 150.272 102 150.738C101.674 151.204 101.21 151.568 100.667 151.783C100.125 151.997 99.5274 152.054 98.951 151.945C98.3747 151.836 97.8452 151.566 97.4297 151.17C97.0143 150.774 96.7314 150.269 96.617 149.719C96.5026 149.17 96.5618 148.601 96.7871 148.083C97.0124 147.566 97.3936 147.124 97.8826 146.813C98.3715 146.502 98.9462 146.337 99.5338 146.338C100.32 146.338 101.074 146.636 101.63 147.166C102.186 147.696 102.498 148.414 102.498 149.164Z" fill="white"/>
<path d="M127.703 168.358C127.637 168.358 126.131 159.984 124.337 149.638C122.544 139.293 121.142 130.887 121.213 130.873C121.284 130.86 122.785 139.248 124.578 149.598C126.372 159.948 127.769 168.345 127.703 168.358Z" fill="#263238"/>
</svg>
