<svg width="19" height="18" viewBox="0 0 19 18" fill="none" xmlns="http://www.w3.org/2000/svg">
<path d="M13.6173 9.9C14.2965 9.9 14.8942 9.531 15.2021 8.973L18.4441 3.132C18.7791 2.538 18.3445 1.8 17.6562 1.8H4.25346L3.4022 0H0.440918V1.8H2.2521L5.51223 8.631L4.28968 10.827C3.6286 12.033 4.49797 13.5 5.87446 13.5H16.7416V11.7H5.87446L6.87062 9.9H13.6173ZM5.11377 3.6H16.1167L13.6173 8.1H7.26002L5.11377 3.6ZM5.87446 14.4C4.87831 14.4 4.07234 15.21 4.07234 16.2C4.07234 17.19 4.87831 18 5.87446 18C6.87062 18 7.68565 17.19 7.68565 16.2C7.68565 15.21 6.87062 14.4 5.87446 14.4ZM14.9304 14.4C13.9342 14.4 13.1283 15.21 13.1283 16.2C13.1283 17.19 13.9342 18 14.9304 18C15.9265 18 16.7416 17.19 16.7416 16.2C16.7416 15.21 15.9265 14.4 14.9304 14.4Z" fill="#E4E4E4"/>
</svg>
