<svg width="90" height="109" viewBox="0 0 120 139" fill="none" xmlns="http://www.w3.org/2000/svg">
<path d="M89.9883 80.0039C87.2227 80.0039 84.9844 77.7656 84.9844 75C84.9844 72.2344 87.2227 69.9961 89.9883 69.9961C101.016 69.9961 109.992 61.0195 109.992 49.9922C109.992 39.4922 101.777 30.7383 91.3008 30.0586L88.3477 29.8828L87.0938 27.2227C82.1484 16.7578 71.5078 9.99609 59.9883 9.99609C48.4688 9.99609 37.8281 16.7578 32.8828 27.2227L31.6289 29.8828L28.6875 30.0703C18.1992 30.75 9.99609 39.5039 9.99609 50.0039C9.99609 61.0312 18.9727 70.0078 30 70.0078C32.7656 70.0078 35.0039 72.2461 35.0039 75.0117C35.0039 77.7773 32.7656 80.0156 30 80.0156C13.4531 80.0156 0 66.5625 0 50.0156C0 35.2383 10.8398 22.7695 25.1602 20.4375C32.1914 7.93359 45.5625 0 59.9883 0C74.4141 0 87.7852 7.9336 94.8281 20.4141C109.148 22.7461 119.988 35.2266 119.988 50.0039C119.988 66.5391 106.535 80.0039 89.9883 80.0039Z" fill="#E91E63"/>
<path d="M73.9951 77.4961C72.7178 77.4961 71.4404 77.0039 70.4561 76.0312L58.9951 64.5703L47.5342 76.0312C45.5889 77.9883 42.4131 77.9883 40.4678 76.0312C38.5107 74.0742 38.5107 70.9102 40.4678 68.9648L55.4678 53.9648C57.4131 52.0078 60.5889 52.0078 62.5342 53.9648L77.5342 68.9648C79.4912 70.9219 79.4912 74.0859 77.5342 76.0312C76.5498 77.0156 75.2725 77.4961 73.9951 77.4961Z" fill="#2B2E4A"/>
<path d="M59.0039 97.5C56.2383 97.5 54 95.2617 54 92.4961V57.5039C54 54.7383 56.2383 52.5 59.0039 52.5C61.7695 52.5 64.0078 54.7383 64.0078 57.5039V92.5078C64.0078 95.2617 61.7695 97.5 59.0039 97.5Z" fill="#2B2E4A"/>
<path d="M7.688 135.096C6.84533 135.096 6.06667 134.957 5.352 134.68C4.63733 134.392 4.01867 133.992 3.496 133.48C2.97333 132.968 2.56267 132.365 2.264 131.672C1.976 130.979 1.832 130.221 1.832 129.4C1.832 128.579 1.976 127.821 2.264 127.128C2.56267 126.435 2.97333 125.832 3.496 125.32C4.02933 124.808 4.65333 124.413 5.368 124.136C6.08267 123.848 6.86133 123.704 7.704 123.704C8.51467 123.704 9.27733 123.843 9.992 124.12C10.7067 124.387 11.3093 124.792 11.8 125.336L11.048 126.088C10.5893 125.619 10.0827 125.283 9.528 125.08C8.97333 124.867 8.376 124.76 7.736 124.76C7.064 124.76 6.44 124.877 5.864 125.112C5.288 125.336 4.78667 125.661 4.36 126.088C3.93333 126.504 3.59733 126.995 3.352 127.56C3.11733 128.115 3 128.728 3 129.4C3 130.072 3.11733 130.691 3.352 131.256C3.59733 131.811 3.93333 132.301 4.36 132.728C4.78667 133.144 5.288 133.469 5.864 133.704C6.44 133.928 7.064 134.04 7.736 134.04C8.376 134.04 8.97333 133.933 9.528 133.72C10.0827 133.507 10.5893 133.165 11.048 132.696L11.8 133.448C11.3093 133.992 10.7067 134.403 9.992 134.68C9.27733 134.957 8.50933 135.096 7.688 135.096ZM19.223 135V133.144L19.175 132.84V129.736C19.175 129.021 18.9723 128.472 18.567 128.088C18.1723 127.704 17.5803 127.512 16.791 127.512C16.247 127.512 15.7297 127.603 15.239 127.784C14.7483 127.965 14.3323 128.205 13.991 128.504L13.479 127.656C13.9057 127.293 14.4177 127.016 15.015 126.824C15.6123 126.621 16.2417 126.52 16.903 126.52C17.991 126.52 18.8283 126.792 19.415 127.336C20.0123 127.869 20.311 128.685 20.311 129.784V135H19.223ZM16.327 135.08C15.6977 135.08 15.1483 134.979 14.679 134.776C14.2203 134.563 13.8683 134.275 13.623 133.912C13.3777 133.539 13.255 133.112 13.255 132.632C13.255 132.195 13.3563 131.8 13.559 131.448C13.7723 131.085 14.1137 130.797 14.583 130.584C15.063 130.36 15.703 130.248 16.503 130.248H19.399V131.096H16.535C15.7243 131.096 15.159 131.24 14.839 131.528C14.5297 131.816 14.375 132.173 14.375 132.6C14.375 133.08 14.5617 133.464 14.935 133.752C15.3083 134.04 15.831 134.184 16.503 134.184C17.143 134.184 17.6923 134.04 18.151 133.752C18.6203 133.453 18.9617 133.027 19.175 132.472L19.431 133.256C19.2177 133.811 18.8443 134.253 18.311 134.584C17.7883 134.915 17.127 135.08 16.327 135.08ZM23.3965 135V126.6H24.4845V128.888L24.3725 128.488C24.6072 127.848 25.0018 127.363 25.5565 127.032C26.1112 126.691 26.7992 126.52 27.6205 126.52V127.624C27.5778 127.624 27.5352 127.624 27.4925 127.624C27.4498 127.613 27.4072 127.608 27.3645 127.608C26.4792 127.608 25.7858 127.88 25.2845 128.424C24.7832 128.957 24.5325 129.72 24.5325 130.712V135H23.3965ZM33.1993 138.184C32.4313 138.184 31.6953 138.072 30.9913 137.848C30.2873 137.624 29.7166 137.304 29.2793 136.888L29.8553 136.024C30.2499 136.376 30.7353 136.653 31.3113 136.856C31.8979 137.069 32.5166 137.176 33.1673 137.176C34.2339 137.176 35.0179 136.925 35.5193 136.424C36.0206 135.933 36.2713 135.165 36.2713 134.12V132.024L36.4313 130.584L36.3193 129.144V126.6H37.4073V133.976C37.4073 135.427 37.0499 136.488 36.3353 137.16C35.6313 137.843 34.5859 138.184 33.1993 138.184ZM32.9913 134.68C32.1913 134.68 31.4713 134.509 30.8313 134.168C30.1913 133.816 29.6846 133.331 29.3113 132.712C28.9486 132.093 28.7673 131.384 28.7673 130.584C28.7673 129.784 28.9486 129.08 29.3113 128.472C29.6846 127.853 30.1913 127.373 30.8313 127.032C31.4713 126.691 32.1913 126.52 32.9913 126.52C33.7379 126.52 34.4099 126.675 35.0073 126.984C35.6046 127.293 36.0793 127.752 36.4313 128.36C36.7833 128.968 36.9593 129.709 36.9593 130.584C36.9593 131.459 36.7833 132.2 36.4313 132.808C36.0793 133.416 35.6046 133.88 35.0073 134.2C34.4099 134.52 33.7379 134.68 32.9913 134.68ZM33.1033 133.672C33.7219 133.672 34.2713 133.544 34.7513 133.288C35.2313 133.021 35.6099 132.659 35.8873 132.2C36.1646 131.731 36.3033 131.192 36.3033 130.584C36.3033 129.976 36.1646 129.443 35.8873 128.984C35.6099 128.525 35.2313 128.168 34.7513 127.912C34.2713 127.645 33.7219 127.512 33.1033 127.512C32.4953 127.512 31.9459 127.645 31.4553 127.912C30.9753 128.168 30.5966 128.525 30.3193 128.984C30.0526 129.443 29.9193 129.976 29.9193 130.584C29.9193 131.192 30.0526 131.731 30.3193 132.2C30.5966 132.659 30.9753 133.021 31.4553 133.288C31.9459 133.544 32.4953 133.672 33.1033 133.672ZM45.8324 135V133.144L45.7844 132.84V129.736C45.7844 129.021 45.5817 128.472 45.1764 128.088C44.7817 127.704 44.1897 127.512 43.4004 127.512C42.8564 127.512 42.339 127.603 41.8484 127.784C41.3577 127.965 40.9417 128.205 40.6004 128.504L40.0884 127.656C40.515 127.293 41.027 127.016 41.6244 126.824C42.2217 126.621 42.851 126.52 43.5124 126.52C44.6004 126.52 45.4377 126.792 46.0244 127.336C46.6217 127.869 46.9204 128.685 46.9204 129.784V135H45.8324ZM42.9364 135.08C42.307 135.08 41.7577 134.979 41.2884 134.776C40.8297 134.563 40.4777 134.275 40.2324 133.912C39.987 133.539 39.8644 133.112 39.8644 132.632C39.8644 132.195 39.9657 131.8 40.1684 131.448C40.3817 131.085 40.723 130.797 41.1924 130.584C41.6724 130.36 42.3124 130.248 43.1124 130.248H46.0084V131.096H43.1444C42.3337 131.096 41.7684 131.24 41.4484 131.528C41.139 131.816 40.9844 132.173 40.9844 132.6C40.9844 133.08 41.171 133.464 41.5444 133.752C41.9177 134.04 42.4404 134.184 43.1124 134.184C43.7524 134.184 44.3017 134.04 44.7604 133.752C45.2297 133.453 45.571 133.027 45.7844 132.472L46.0404 133.256C45.827 133.811 45.4537 134.253 44.9204 134.584C44.3977 134.915 43.7364 135.08 42.9364 135.08ZM50.0059 135V126.6H51.0939V128.888L50.9819 128.488C51.2165 127.848 51.6112 127.363 52.1659 127.032C52.7205 126.691 53.4085 126.52 54.2299 126.52V127.624C54.1872 127.624 54.1445 127.624 54.1019 127.624C54.0592 127.613 54.0165 127.608 53.9739 127.608C53.0885 127.608 52.3952 127.88 51.8939 128.424C51.3925 128.957 51.1419 129.72 51.1419 130.712V135H50.0059ZM65.8793 135V133.144L65.8313 132.84V129.736C65.8313 129.021 65.6286 128.472 65.2233 128.088C64.8286 127.704 64.2366 127.512 63.4473 127.512C62.9033 127.512 62.3859 127.603 61.8953 127.784C61.4046 127.965 60.9886 128.205 60.6473 128.504L60.1353 127.656C60.5619 127.293 61.0739 127.016 61.6713 126.824C62.2686 126.621 62.8979 126.52 63.5593 126.52C64.6473 126.52 65.4846 126.792 66.0713 127.336C66.6686 127.869 66.9673 128.685 66.9673 129.784V135H65.8793ZM62.9833 135.08C62.3539 135.08 61.8046 134.979 61.3353 134.776C60.8766 134.563 60.5246 134.275 60.2793 133.912C60.0339 133.539 59.9113 133.112 59.9113 132.632C59.9113 132.195 60.0126 131.8 60.2153 131.448C60.4286 131.085 60.7699 130.797 61.2393 130.584C61.7193 130.36 62.3593 130.248 63.1593 130.248H66.0553V131.096H63.1913C62.3806 131.096 61.8153 131.24 61.4953 131.528C61.1859 131.816 61.0312 132.173 61.0312 132.6C61.0312 133.08 61.2179 133.464 61.5913 133.752C61.9646 134.04 62.4873 134.184 63.1593 134.184C63.7993 134.184 64.3486 134.04 64.8073 133.752C65.2766 133.453 65.6179 133.027 65.8313 132.472L66.0873 133.256C65.8739 133.811 65.5006 134.253 64.9673 134.584C64.4446 134.915 63.7833 135.08 62.9833 135.08ZM70.0528 135V126.6H71.1408V128.888L71.0288 128.488C71.2634 127.848 71.6581 127.363 72.2128 127.032C72.7674 126.691 73.4554 126.52 74.2768 126.52V127.624C74.2341 127.624 74.1914 127.624 74.1488 127.624C74.1061 127.613 74.0634 127.608 74.0208 127.608C73.1354 127.608 72.4421 127.88 71.9408 128.424C71.4394 128.957 71.1888 129.72 71.1888 130.712V135H70.0528ZM79.7595 135.08C78.9275 135.08 78.1808 134.899 77.5195 134.536C76.8688 134.163 76.3568 133.656 75.9835 133.016C75.6102 132.365 75.4235 131.624 75.4235 130.792C75.4235 129.949 75.6102 129.208 75.9835 128.568C76.3568 127.928 76.8688 127.427 77.5195 127.064C78.1808 126.701 78.9275 126.52 79.7595 126.52C80.4742 126.52 81.1195 126.659 81.6955 126.936C82.2715 127.213 82.7248 127.629 83.0555 128.184L82.2075 128.76C81.9195 128.333 81.5622 128.019 81.1355 127.816C80.7088 127.613 80.2448 127.512 79.7435 127.512C79.1462 127.512 78.6075 127.651 78.1275 127.928C77.6475 128.195 77.2688 128.573 76.9915 129.064C76.7142 129.555 76.5755 130.131 76.5755 130.792C76.5755 131.453 76.7142 132.029 76.9915 132.52C77.2688 133.011 77.6475 133.395 78.1275 133.672C78.6075 133.939 79.1462 134.072 79.7435 134.072C80.2448 134.072 80.7088 133.971 81.1355 133.768C81.5622 133.565 81.9195 133.256 82.2075 132.84L83.0555 133.416C82.7248 133.96 82.2715 134.376 81.6955 134.664C81.1195 134.941 80.4742 135.08 79.7595 135.08ZM89.4501 126.52C90.1328 126.52 90.7301 126.653 91.2421 126.92C91.7648 127.176 92.1701 127.571 92.4581 128.104C92.7568 128.637 92.9061 129.309 92.9061 130.12V135H91.7701V130.232C91.7701 129.347 91.5461 128.68 91.0981 128.232C90.6608 127.773 90.0421 127.544 89.2421 127.544C88.6448 127.544 88.1221 127.667 87.6741 127.912C87.2368 128.147 86.8955 128.493 86.6501 128.952C86.4155 129.4 86.2981 129.944 86.2981 130.584V135H85.1621V123.128H86.2981V128.904L86.0741 128.472C86.3408 127.864 86.7675 127.389 87.3541 127.048C87.9408 126.696 88.6395 126.52 89.4501 126.52ZM95.9746 135V126.6H97.1106V135H95.9746ZM96.5506 124.744C96.316 124.744 96.1186 124.664 95.9586 124.504C95.7986 124.344 95.7186 124.152 95.7186 123.928C95.7186 123.704 95.7986 123.517 95.9586 123.368C96.1186 123.208 96.316 123.128 96.5506 123.128C96.7853 123.128 96.9826 123.203 97.1426 123.352C97.3026 123.501 97.3826 123.688 97.3826 123.912C97.3826 124.147 97.3026 124.344 97.1426 124.504C96.9933 124.664 96.796 124.744 96.5506 124.744ZM102.432 135L98.7035 126.6H99.8875L103.312 134.392H102.752L106.224 126.6H107.344L103.6 135H102.432ZM112.133 135.08C111.322 135.08 110.592 134.899 109.941 134.536C109.301 134.163 108.794 133.656 108.421 133.016C108.048 132.365 107.861 131.624 107.861 130.792C107.861 129.949 108.048 129.208 108.421 128.568C108.794 127.928 109.301 127.427 109.941 127.064C110.581 126.701 111.312 126.52 112.133 126.52C112.965 126.52 113.701 126.701 114.341 127.064C114.992 127.427 115.498 127.928 115.861 128.568C116.234 129.208 116.421 129.949 116.421 130.792C116.421 131.624 116.234 132.365 115.861 133.016C115.498 133.656 114.992 134.163 114.341 134.536C113.69 134.899 112.954 135.08 112.133 135.08ZM112.133 134.072C112.741 134.072 113.28 133.939 113.749 133.672C114.218 133.395 114.586 133.011 114.853 132.52C115.13 132.019 115.269 131.443 115.269 130.792C115.269 130.131 115.13 129.555 114.853 129.064C114.586 128.573 114.218 128.195 113.749 127.928C113.28 127.651 112.746 127.512 112.149 127.512C111.552 127.512 111.018 127.651 110.549 127.928C110.08 128.195 109.706 128.573 109.429 129.064C109.152 129.555 109.013 130.131 109.013 130.792C109.013 131.443 109.152 132.019 109.429 132.52C109.706 133.011 110.08 133.395 110.549 133.672C111.018 133.939 111.546 134.072 112.133 134.072Z" fill="#E91E63"/>
<path d="M89.9883 80.0039C87.2227 80.0039 84.9844 77.7656 84.9844 75C84.9844 72.2344 87.2227 69.9961 89.9883 69.9961C101.016 69.9961 109.992 61.0195 109.992 49.9922C109.992 39.4922 101.777 30.7383 91.3008 30.0586L88.3477 29.8828L87.0938 27.2227C82.1484 16.7578 71.5078 9.99609 59.9883 9.99609C48.4688 9.99609 37.8281 16.7578 32.8828 27.2227L31.6289 29.8828L28.6875 30.0703C18.1992 30.75 9.99609 39.5039 9.99609 50.0039C9.99609 61.0312 18.9727 70.0078 30 70.0078C32.7656 70.0078 35.0039 72.2461 35.0039 75.0117C35.0039 77.7773 32.7656 80.0156 30 80.0156C13.4531 80.0156 0 66.5625 0 50.0156C0 35.2383 10.8398 22.7695 25.1602 20.4375C32.1914 7.93359 45.5625 0 59.9883 0C74.4141 0 87.7852 7.9336 94.8281 20.4141C109.148 22.7461 119.988 35.2266 119.988 50.0039C119.988 66.5391 106.535 80.0039 89.9883 80.0039Z" fill="#E91E63"/>
<path d="M73.9951 77.4961C72.7178 77.4961 71.4404 77.0039 70.4561 76.0312L58.9951 64.5703L47.5342 76.0312C45.5889 77.9883 42.4131 77.9883 40.4678 76.0312C38.5107 74.0742 38.5107 70.9102 40.4678 68.9648L55.4678 53.9648C57.4131 52.0078 60.5889 52.0078 62.5342 53.9648L77.5342 68.9648C79.4912 70.9219 79.4912 74.0859 77.5342 76.0312C76.5498 77.0156 75.2725 77.4961 73.9951 77.4961Z" fill="#2B2E4A"/>
<path d="M59.0039 97.5C56.2383 97.5 54 95.2617 54 92.4961V57.5039C54 54.7383 56.2383 52.5 59.0039 52.5C61.7695 52.5 64.0078 54.7383 64.0078 57.5039V92.5078C64.0078 95.2617 61.7695 97.5 59.0039 97.5Z" fill="#2B2E4A"/>
</svg>
