<svg xmlns="http://www.w3.org/2000/svg" viewBox="0 0 500 500"><g id="freepik--Floor--inject-16"><g id="freepik--floor--inject-16"><path id="freepik--floor--inject-16" d="M420.14,193.44c-94-63.16-246.45-63.16-340.46,0s-94,165.58,0,228.74,246.45,63.17,340.46,0S514.15,256.61,420.14,193.44Z" style="fill:#f5f5f5"></path><g id="freepik--Way--inject-16"><path id="freepik--way--inject-16" d="M356.18,453a262,262,0,0,0,64-30.81c31-20.82,51.76-45.91,62.32-72.45L153.55,159.54c-26.81,7.86-51.93,19.16-73.87,33.9-28.24,19-48,41.49-59.26,65.42Z" style="fill:#e0e0e0"></path><g id="freepik--Lines--inject-16"><path d="M102.06,209.87l18.81,10.86a.48.48,0,0,1,0,.9l-2.81,1.62a1.7,1.7,0,0,1-1.55,0L97.7,212.39a.48.48,0,0,1,0-.9l2.81-1.62A1.7,1.7,0,0,1,102.06,209.87Z" style="fill:#fafafa"></path><path d="M145.73,235.08l18.82,10.86c.43.25.43.65,0,.89l-2.81,1.63a1.7,1.7,0,0,1-1.55,0L141.37,237.6a.48.48,0,0,1,0-.9l2.81-1.62A1.7,1.7,0,0,1,145.73,235.08Z" style="fill:#fafafa"></path><path d="M189.41,260.28l18.81,10.87c.43.24.43.64,0,.89l-2.81,1.62a1.7,1.7,0,0,1-1.55,0L185.05,262.8a.47.47,0,0,1,0-.89l2.81-1.63A1.76,1.76,0,0,1,189.41,260.28Z" style="fill:#fafafa"></path><path d="M233.09,285.49l18.81,10.86a.48.48,0,0,1,0,.9l-2.81,1.62a1.7,1.7,0,0,1-1.55,0L228.72,288a.48.48,0,0,1,0-.9l2.82-1.62A1.7,1.7,0,0,1,233.09,285.49Z" style="fill:#fafafa"></path><path d="M276.76,310.7l18.82,10.86a.48.48,0,0,1,0,.9l-2.82,1.62a1.7,1.7,0,0,1-1.55,0L272.4,313.22a.48.48,0,0,1,0-.9l2.81-1.62A1.7,1.7,0,0,1,276.76,310.7Z" style="fill:#fafafa"></path><path d="M320.44,335.91l18.81,10.86a.47.47,0,0,1,0,.89l-2.81,1.63a1.76,1.76,0,0,1-1.55,0l-18.81-10.87c-.43-.24-.43-.64,0-.89l2.81-1.62A1.7,1.7,0,0,1,320.44,335.91Z" style="fill:#fafafa"></path><path d="M364.12,361.11,382.93,372a.48.48,0,0,1,0,.9l-2.81,1.62a1.7,1.7,0,0,1-1.55,0l-18.82-10.86c-.43-.25-.43-.65,0-.89l2.82-1.63A1.76,1.76,0,0,1,364.12,361.11Z" style="fill:#fafafa"></path><path d="M407.79,386.32l18.82,10.86a.48.48,0,0,1,0,.9l-2.82,1.62a1.7,1.7,0,0,1-1.55,0l-18.81-10.86a.48.48,0,0,1,0-.9l2.81-1.62A1.7,1.7,0,0,1,407.79,386.32Z" style="fill:#fafafa"></path></g></g></g></g><g id="freepik--Trees--inject-16"><g id="freepik--Pine--inject-16"><path d="M261.6,110.94v63.48a2.56,2.56,0,0,1-1.51,2.11,8.07,8.07,0,0,1-7.29,0,2.56,2.56,0,0,1-1.51-2.11V110.94Z" style="fill:#b16668"></path><path d="M222.28,143.8l31.94-77.13h4.45l31.94,77.13a4.09,4.09,0,0,1-3,5.57l-.52.1a4.09,4.09,0,0,0-3.26,4.51h0a4.08,4.08,0,0,1-5.25,4.41L277,157.9a4.08,4.08,0,0,0-4.92,2.22l-1.59,3.5a4.08,4.08,0,0,1-5.8,1.82l-6.19-3.67a4.1,4.1,0,0,0-4.17,0l-6.19,3.67a4.08,4.08,0,0,1-5.8-1.82l-1.59-3.51a4.08,4.08,0,0,0-4.92-2.21l-1.57.48A4.07,4.07,0,0,1,229,154h0a4.08,4.08,0,0,0-3.26-4.5l-.52-.11A4.08,4.08,0,0,1,222.28,143.8Z" style="fill:#E91E63"></path><path d="M222.28,143.8l31.94-77.13h4.45l31.94,77.13a4.09,4.09,0,0,1-3,5.57l-.52.1a4.09,4.09,0,0,0-3.26,4.51h0a4.08,4.08,0,0,1-5.25,4.41L277,157.9a4.08,4.08,0,0,0-4.92,2.22l-1.59,3.5a4.08,4.08,0,0,1-5.8,1.82l-6.19-3.67a4.1,4.1,0,0,0-4.17,0l-6.19,3.67a4.08,4.08,0,0,1-5.8-1.82l-1.59-3.51a4.08,4.08,0,0,0-4.92-2.21l-1.57.48A4.07,4.07,0,0,1,229,154h0a4.08,4.08,0,0,0-3.26-4.5l-.52-.11A4.08,4.08,0,0,1,222.28,143.8Z" style="opacity:0.30000000000000004"></path><path d="M262.24,75.29l-3.57-8.11h-4.45l-5.9,13.74-19.27,46.55a2.35,2.35,0,0,0,2,1.9h0a3.1,3.1,0,0,1,2.56,3.41l-.07.59a3.08,3.08,0,0,0,4.16,3.24l1.59-.6a3.07,3.07,0,0,1,3.91,1.62l2,4.4a3.09,3.09,0,0,0,4.4,1.4l5.29-3.53a3.11,3.11,0,0,1,3.17,0l5.91,3.52a3.09,3.09,0,0,0,4.4-1.39l2-4.4a3.09,3.09,0,0,1,3.92-1.62l1.58.6a3.08,3.08,0,0,0,4.16-3.24l-.07-.59a3.1,3.1,0,0,1,2.57-3.41,2.32,2.32,0,0,0,1.71-1.13Z" style="opacity:0.1"></path><path d="M229.4,121.37l24.82-57.78h4.45l25.43,57.78c.92,1.86.39,4.08-1.65,4.41a3.09,3.09,0,0,0-2.57,3.4l.07.59a3.09,3.09,0,0,1-4.16,3.25l-1.58-.61a3.1,3.1,0,0,0-3.92,1.63l-2,4.4a3.09,3.09,0,0,1-4.4,1.39L258,136.3a3.11,3.11,0,0,0-3.17,0l-5.29,3.53a3.08,3.08,0,0,1-4.4-1.39l-2-4.4a3.09,3.09,0,0,0-3.91-1.63l-1.59.61a3.09,3.09,0,0,1-4.16-3.25l.07-.59a3.09,3.09,0,0,0-2.56-3.4h0C229,125.45,228.49,123.23,229.4,121.37Z" style="fill:#E91E63"></path><path d="M229.4,121.37l24.82-57.78h4.45l25.43,57.78c.92,1.86.39,4.08-1.65,4.41a3.09,3.09,0,0,0-2.57,3.4l.07.59a3.09,3.09,0,0,1-4.16,3.25l-1.58-.61a3.1,3.1,0,0,0-3.92,1.63l-2,4.4a3.09,3.09,0,0,1-4.4,1.39L258,136.3a3.11,3.11,0,0,0-3.17,0l-5.29,3.53a3.08,3.08,0,0,1-4.4-1.39l-2-4.4a3.09,3.09,0,0,0-3.91-1.63l-1.59.61a3.09,3.09,0,0,1-4.16-3.25l.07-.59a3.09,3.09,0,0,0-2.56-3.4h0C229,125.45,228.49,123.23,229.4,121.37Z" style="opacity:0.2"></path><path d="M258.67,63.59h-4.45L236.14,105.7a2.44,2.44,0,0,0,.45.32l.14.08a2.78,2.78,0,0,1,1.41,2.66h0a2.78,2.78,0,0,0,3.48,2.92l1.08-.28a2.78,2.78,0,0,1,3.16,1.37l1.48,2.76a2.76,2.76,0,0,0,3.73,1.15l4.09-2.13a2.78,2.78,0,0,1,2.57,0l4.09,2.13a2.76,2.76,0,0,0,3.73-1.15l1.48-2.76a2.78,2.78,0,0,1,3.16-1.37l1.08.28a2.78,2.78,0,0,0,3.48-2.92,2.78,2.78,0,0,1,1.41-2.66l.14-.08a2.78,2.78,0,0,0,.76-.64Z" style="opacity:0.1"></path><path d="M235.59,98.65l18.65-39.21.14-.24A2.39,2.39,0,0,1,256.44,58a2.37,2.37,0,0,1,2.06,1.19l.15.24L277.3,98.65a2.77,2.77,0,0,1-1,3.88l-.14.08a2.78,2.78,0,0,0-1.41,2.66,2.78,2.78,0,0,1-3.48,2.93l-1.08-.29a2.78,2.78,0,0,0-3.16,1.38l-1.48,2.76a2.78,2.78,0,0,1-3.73,1.15l-4.09-2.14a2.78,2.78,0,0,0-2.57,0l-4.09,2.14a2.78,2.78,0,0,1-3.73-1.15l-1.48-2.76a2.78,2.78,0,0,0-3.16-1.38l-1.08.29a2.78,2.78,0,0,1-3.48-2.93h0a2.78,2.78,0,0,0-1.41-2.66l-.14-.08A2.76,2.76,0,0,1,235.59,98.65Z" style="fill:#E91E63"></path><path d="M235.59,98.65l18.65-39.21.14-.24A2.39,2.39,0,0,1,256.44,58a2.37,2.37,0,0,1,2.06,1.19l.15.24L277.3,98.65a2.77,2.77,0,0,1-1,3.88l-.14.08a2.78,2.78,0,0,0-1.41,2.66,2.78,2.78,0,0,1-3.48,2.93l-1.08-.29a2.78,2.78,0,0,0-3.16,1.38l-1.48,2.76a2.78,2.78,0,0,1-3.73,1.15l-4.09-2.14a2.78,2.78,0,0,0-2.57,0l-4.09,2.14a2.78,2.78,0,0,1-3.73-1.15l-1.48-2.76a2.78,2.78,0,0,0-3.16-1.38l-1.08.29a2.78,2.78,0,0,1-3.48-2.93h0a2.78,2.78,0,0,0-1.41-2.66l-.14-.08A2.76,2.76,0,0,1,235.59,98.65Z" style="opacity:0.1"></path><path d="M258.93,176.41a3.17,3.17,0,0,1,6.33,0v.18a1.61,1.61,0,0,1-.92,1.2,4.92,4.92,0,0,1-4.48,0,1.63,1.63,0,0,1-.93-1.2v-.18Z" style="fill:#37474f"></path><path d="M259.86,177.79a1.63,1.63,0,0,1-.93-1.2v-.18a3.17,3.17,0,0,1,1.65-2.69s-1.58,2-.42,3.3c.79.9,3.52,1.06,4.72.35a2.15,2.15,0,0,1-.54.42A4.92,4.92,0,0,1,259.86,177.79Z" style="fill:#263238"></path><path d="M264.05,178a2.24,2.24,0,0,1,4.47,0v.12a1.14,1.14,0,0,1-.65.85,3.48,3.48,0,0,1-3.17,0,1.14,1.14,0,0,1-.65-.85V178Z" style="fill:#455a64"></path><path d="M264.7,179a1.14,1.14,0,0,1-.65-.85V178a2.33,2.33,0,0,1,.15-.75c-.05,1,.4,1.54,1.81,1.72a2.75,2.75,0,0,0,2.46-.63,1.33,1.33,0,0,1-.6.63A3.48,3.48,0,0,1,264.7,179Z" style="fill:#37474f"></path><path d="M247.65,175.77a2.22,2.22,0,0,1,4.44,0v.12a1.16,1.16,0,0,1-.65.85,3.47,3.47,0,0,1-3.14,0,1.18,1.18,0,0,1-.65-.85v-.12Z" style="fill:#455a64"></path><path d="M248.3,176.74a1.18,1.18,0,0,1-.65-.85v-.12a2.27,2.27,0,0,1,.15-.74c-.05.95.4,1.53,1.8,1.71a2.78,2.78,0,0,0,2.44-.63,1.33,1.33,0,0,1-.6.63A3.47,3.47,0,0,1,248.3,176.74Z" style="fill:#37474f"></path></g><g id="freepik--pine--inject-16"><path d="M380.15,127v71.17a2.89,2.89,0,0,1-1.69,2.36,9.07,9.07,0,0,1-8.18,0,2.87,2.87,0,0,1-1.69-2.36V127Z" style="fill:#b16668"></path><path d="M336.07,163.84l35.81-86.47h5l35.81,86.48a4.58,4.58,0,0,1-3.34,6.24l-.58.11a4.58,4.58,0,0,0-3.65,5.06h0a4.58,4.58,0,0,1-5.89,4.94l-1.77-.55a4.58,4.58,0,0,0-5.51,2.49l-1.78,3.92a4.57,4.57,0,0,1-6.5,2.05L376.7,184a4.58,4.58,0,0,0-4.66,0l-7,4.12a4.57,4.57,0,0,1-6.5-2.05l-1.78-3.92a4.59,4.59,0,0,0-5.52-2.49l-1.77.55a4.58,4.58,0,0,1-5.88-4.94h0A4.56,4.56,0,0,0,340,170.2l-.59-.12A4.57,4.57,0,0,1,336.07,163.84Z" style="fill:#E91E63"></path><path d="M336.07,163.84l35.81-86.47h5l35.81,86.48a4.58,4.58,0,0,1-3.34,6.24l-.58.11a4.58,4.58,0,0,0-3.65,5.06h0a4.58,4.58,0,0,1-5.89,4.94l-1.77-.55a4.58,4.58,0,0,0-5.51,2.49l-1.78,3.92a4.57,4.57,0,0,1-6.5,2.05L376.7,184a4.58,4.58,0,0,0-4.66,0l-7,4.12a4.57,4.57,0,0,1-6.5-2.05l-1.78-3.92a4.59,4.59,0,0,0-5.52-2.49l-1.77.55a4.58,4.58,0,0,1-5.88-4.94h0A4.56,4.56,0,0,0,340,170.2l-.59-.12A4.57,4.57,0,0,1,336.07,163.84Z" style="opacity:0.30000000000000004"></path><path d="M380.86,87l-4-9.09h-5l-6.62,15.4-21.61,52.19a2.65,2.65,0,0,0,2.25,2.14h0a3.46,3.46,0,0,1,2.88,3.82l-.08.66a3.46,3.46,0,0,0,4.67,3.63l1.77-.67a3.46,3.46,0,0,1,4.39,1.82l2.2,4.93a3.45,3.45,0,0,0,4.93,1.56l5.94-3.95a3.46,3.46,0,0,1,3.54,0l6.63,3.95a3.45,3.45,0,0,0,4.93-1.56l2.2-4.93a3.46,3.46,0,0,1,4.39-1.82l1.77.67a3.46,3.46,0,0,0,4.67-3.63l-.08-.66a3.46,3.46,0,0,1,2.88-3.82,2.63,2.63,0,0,0,1.91-1.28Z" style="opacity:0.1"></path><path d="M344.05,138.7l27.83-64.79h5l28.52,64.79c1,2.08.44,4.57-1.85,4.94a3.46,3.46,0,0,0-2.88,3.82l.08.66a3.46,3.46,0,0,1-4.67,3.63l-1.77-.67a3.47,3.47,0,0,0-4.39,1.82l-2.2,4.93a3.46,3.46,0,0,1-4.93,1.57l-6.63-4a3.46,3.46,0,0,0-3.54,0l-5.94,4a3.46,3.46,0,0,1-4.93-1.57l-2.2-4.93a3.47,3.47,0,0,0-4.39-1.82l-1.77.67a3.46,3.46,0,0,1-4.67-3.63l.08-.66a3.46,3.46,0,0,0-2.88-3.82h0C343.61,143.27,343,140.78,344.05,138.7Z" style="fill:#E91E63"></path><path d="M344.05,138.7l27.83-64.79h5l28.52,64.79c1,2.08.44,4.57-1.85,4.94a3.46,3.46,0,0,0-2.88,3.82l.08.66a3.46,3.46,0,0,1-4.67,3.63l-1.77-.67a3.47,3.47,0,0,0-4.39,1.82l-2.2,4.93a3.46,3.46,0,0,1-4.93,1.57l-6.63-4a3.46,3.46,0,0,0-3.54,0l-5.94,4a3.46,3.46,0,0,1-4.93-1.57l-2.2-4.93a3.47,3.47,0,0,0-4.39-1.82l-1.77.67a3.46,3.46,0,0,1-4.67-3.63l.08-.66a3.46,3.46,0,0,0-2.88-3.82h0C343.61,143.27,343,140.78,344.05,138.7Z" style="opacity:0.2"></path><path d="M376.86,73.91h-5L351.6,121.12a3.17,3.17,0,0,0,.51.37l.16.08a3.14,3.14,0,0,1,1.58,3h0a3.11,3.11,0,0,0,3.9,3.27l1.21-.31a3.11,3.11,0,0,1,3.54,1.54l1.66,3.09a3.11,3.11,0,0,0,4.19,1.29l4.58-2.39a3.12,3.12,0,0,1,2.88,0l4.58,2.39a3.11,3.11,0,0,0,4.19-1.29l1.66-3.09a3.11,3.11,0,0,1,3.54-1.54l1.21.31a3.12,3.12,0,0,0,3.9-3.27,3.14,3.14,0,0,1,1.58-3l.16-.08a3,3,0,0,0,.85-.73Z" style="opacity:0.1"></path><path d="M351,113.22l20.92-44,.16-.27a2.66,2.66,0,0,1,4.62,0l.17.27,20.91,44a3.13,3.13,0,0,1-1.13,4.36l-.16.08a3.14,3.14,0,0,0-1.58,3,3.13,3.13,0,0,1-3.9,3.28l-1.21-.32a3.11,3.11,0,0,0-3.54,1.54l-1.66,3.09a3.11,3.11,0,0,1-4.19,1.29l-4.58-2.39a3.12,3.12,0,0,0-2.88,0l-4.58,2.39a3.11,3.11,0,0,1-4.19-1.29l-1.66-3.09a3.11,3.11,0,0,0-3.54-1.54l-1.21.32a3.12,3.12,0,0,1-3.9-3.28h0a3.14,3.14,0,0,0-1.58-3l-.16-.08A3.12,3.12,0,0,1,351,113.22Z" style="fill:#E91E63"></path><path d="M351,113.22l20.92-44,.16-.27a2.66,2.66,0,0,1,4.62,0l.17.27,20.91,44a3.13,3.13,0,0,1-1.13,4.36l-.16.08a3.14,3.14,0,0,0-1.58,3,3.13,3.13,0,0,1-3.9,3.28l-1.21-.32a3.11,3.11,0,0,0-3.54,1.54l-1.66,3.09a3.11,3.11,0,0,1-4.19,1.29l-4.58-2.39a3.12,3.12,0,0,0-2.88,0l-4.58,2.39a3.11,3.11,0,0,1-4.19-1.29l-1.66-3.09a3.11,3.11,0,0,0-3.54-1.54l-1.21.32a3.12,3.12,0,0,1-3.9-3.28h0a3.14,3.14,0,0,0-1.58-3l-.16-.08A3.12,3.12,0,0,1,351,113.22Z" style="opacity:0.1"></path><path d="M377.16,200.41a3.55,3.55,0,0,1,7.09,0,.31.31,0,0,1,0,.1.38.38,0,0,1,0,.1,1.82,1.82,0,0,1-1,1.35,5.55,5.55,0,0,1-5,0,1.84,1.84,0,0,1-1-1.35v-.2Z" style="fill:#37474f"></path><path d="M378.2,202a1.84,1.84,0,0,1-1-1.35v-.2a3.52,3.52,0,0,1,1.84-3s-1.76,2.22-.47,3.69c.89,1,4,1.19,5.3.4a2.52,2.52,0,0,1-.61.47A5.55,5.55,0,0,1,378.2,202Z" style="fill:#263238"></path><path d="M382.9,202.2a2.51,2.51,0,0,1,5,0v.14a1.28,1.28,0,0,1-.73.95,3.9,3.9,0,0,1-3.55,0,1.26,1.26,0,0,1-.73-.95.2.2,0,0,1,0-.07A.15.15,0,0,1,382.9,202.2Z" style="fill:#455a64"></path><path d="M383.63,203.29a1.26,1.26,0,0,1-.73-.95.2.2,0,0,1,0-.07.15.15,0,0,1,0-.07,2.14,2.14,0,0,1,.17-.84c-.07,1.08.44,1.73,2,1.93a3.11,3.11,0,0,0,2.75-.71,1.45,1.45,0,0,1-.67.71A3.9,3.9,0,0,1,383.63,203.29Z" style="fill:#37474f"></path><path d="M364.51,199.69a2.49,2.49,0,0,1,5,0v.14a1.27,1.27,0,0,1-.73.94,3.9,3.9,0,0,1-3.52,0,1.29,1.29,0,0,1-.73-.94v-.14Z" style="fill:#455a64"></path><path d="M365.24,200.77a1.29,1.29,0,0,1-.73-.94v-.14a2.56,2.56,0,0,1,.17-.83c-.06,1.07.45,1.72,2,1.92a3.09,3.09,0,0,0,2.73-.71,1.44,1.44,0,0,1-.67.7A3.9,3.9,0,0,1,365.24,200.77Z" style="fill:#37474f"></path></g><g id="freepik--pine--inject-16"><path d="M431.54,172.11v61.73a2.5,2.5,0,0,1-1.47,2,7.84,7.84,0,0,1-7.09,0,2.49,2.49,0,0,1-1.46-2V172.11Z" style="fill:#b16668"></path><path d="M393.31,204.06l31.06-75h4.32l31.06,75a4,4,0,0,1-2.9,5.42l-.5.1a4,4,0,0,0-3.17,4.38h0a4,4,0,0,1-5.1,4.29l-1.54-.48a4,4,0,0,0-4.78,2.16l-1.54,3.4a4,4,0,0,1-5.64,1.78l-6-3.57a4,4,0,0,0-4,0l-6,3.58a4,4,0,0,1-5.64-1.78l-1.54-3.4a4,4,0,0,0-4.79-2.16l-1.53.47a4,4,0,0,1-5.1-4.28h0a4,4,0,0,0-3.17-4.39l-.51-.1A4,4,0,0,1,393.31,204.06Z" style="fill:#E91E63"></path><path d="M393.31,204.06l31.06-75h4.32l31.06,75a4,4,0,0,1-2.9,5.42l-.5.1a4,4,0,0,0-3.17,4.38h0a4,4,0,0,1-5.1,4.29l-1.54-.48a4,4,0,0,0-4.78,2.16l-1.54,3.4a4,4,0,0,1-5.64,1.78l-6-3.57a4,4,0,0,0-4,0l-6,3.58a4,4,0,0,1-5.64-1.78l-1.54-3.4a4,4,0,0,0-4.79-2.16l-1.53.47a4,4,0,0,1-5.1-4.28h0a4,4,0,0,0-3.17-4.39l-.51-.1A4,4,0,0,1,393.31,204.06Z" style="opacity:0.30000000000000004"></path><path d="M432.16,137.44l-3.47-7.89h-4.32l-5.74,13.36-18.75,45.27a2.31,2.31,0,0,0,2,1.85h0a3,3,0,0,1,2.49,3.31l-.06.58a3,3,0,0,0,4,3.15l1.54-.59a3,3,0,0,1,3.81,1.59l1.91,4.27a3,3,0,0,0,4.27,1.36l5.15-3.43a3,3,0,0,1,3.08,0l5.74,3.43a3,3,0,0,0,4.28-1.36l1.91-4.27a3,3,0,0,1,3.81-1.59l1.53.59a3,3,0,0,0,4.05-3.15l-.07-.58a3,3,0,0,1,2.5-3.31,2.29,2.29,0,0,0,1.66-1.1Z" style="opacity:0.1"></path><path d="M400.23,182.25l24.14-56.19h4.32l24.73,56.19c.9,1.81.39,4-1.6,4.29a3,3,0,0,0-2.5,3.31l.07.57a3,3,0,0,1-4.05,3.15l-1.53-.58a3,3,0,0,0-3.81,1.58l-1.91,4.28a3,3,0,0,1-4.28,1.35l-5.74-3.43a3,3,0,0,0-3.08,0l-5.15,3.43a3,3,0,0,1-4.27-1.35l-1.91-4.28a3,3,0,0,0-3.81-1.58l-1.54.58a3,3,0,0,1-4-3.15l.06-.57a3,3,0,0,0-2.49-3.31h0C399.85,186.21,399.34,184.06,400.23,182.25Z" style="fill:#E91E63"></path><path d="M400.23,182.25l24.14-56.19h4.32l24.73,56.19c.9,1.81.39,4-1.6,4.29a3,3,0,0,0-2.5,3.31l.07.57a3,3,0,0,1-4.05,3.15l-1.53-.58a3,3,0,0,0-3.81,1.58l-1.91,4.28a3,3,0,0,1-4.28,1.35l-5.74-3.43a3,3,0,0,0-3.08,0l-5.15,3.43a3,3,0,0,1-4.27-1.35l-1.91-4.28a3,3,0,0,0-3.81-1.58l-1.54.58a3,3,0,0,1-4-3.15l.06-.57a3,3,0,0,0-2.49-3.31h0C399.85,186.21,399.34,184.06,400.23,182.25Z" style="opacity:0.2"></path><path d="M428.69,126.06h-4.32L406.78,167a2.88,2.88,0,0,0,.44.31l.14.08a2.7,2.7,0,0,1,1.37,2.58h0a2.7,2.7,0,0,0,3.38,2.85l1.05-.28a2.7,2.7,0,0,1,3.07,1.34l1.44,2.68a2.7,2.7,0,0,0,3.64,1.12l4-2.07a2.69,2.69,0,0,1,2.5,0l4,2.07a2.7,2.7,0,0,0,3.64-1.12l1.44-2.68a2.7,2.7,0,0,1,3.07-1.34l1.05.28a2.71,2.71,0,0,0,3.38-2.85,2.7,2.7,0,0,1,1.37-2.58l.14-.08a2.64,2.64,0,0,0,.74-.63Z" style="opacity:0.1"></path><path d="M406.24,160.15,424.38,122l.15-.23a2.3,2.3,0,0,1,4,0l.15.24,18.13,38.12a2.7,2.7,0,0,1-1,3.78l-.14.08a2.7,2.7,0,0,0-1.37,2.58,2.71,2.71,0,0,1-3.38,2.85l-1.05-.28a2.69,2.69,0,0,0-3.07,1.34l-1.44,2.68a2.7,2.7,0,0,1-3.64,1.12l-4-2.07a2.69,2.69,0,0,0-2.5,0l-4,2.07a2.7,2.7,0,0,1-3.64-1.12l-1.44-2.68a2.69,2.69,0,0,0-3.07-1.34l-1.05.28a2.7,2.7,0,0,1-3.38-2.85h0a2.71,2.71,0,0,0-1.37-2.59l-.14-.07A2.71,2.71,0,0,1,406.24,160.15Z" style="fill:#E91E63"></path><path d="M406.24,160.15,424.38,122l.15-.23a2.3,2.3,0,0,1,4,0l.15.24,18.13,38.12a2.7,2.7,0,0,1-1,3.78l-.14.08a2.7,2.7,0,0,0-1.37,2.58,2.71,2.71,0,0,1-3.38,2.85l-1.05-.28a2.69,2.69,0,0,0-3.07,1.34l-1.44,2.68a2.7,2.7,0,0,1-3.64,1.12l-4-2.07a2.69,2.69,0,0,0-2.5,0l-4,2.07a2.7,2.7,0,0,1-3.64-1.12l-1.44-2.68a2.69,2.69,0,0,0-3.07-1.34l-1.05.28a2.7,2.7,0,0,1-3.38-2.85h0a2.71,2.71,0,0,0-1.37-2.59l-.14-.07A2.71,2.71,0,0,1,406.24,160.15Z" style="opacity:0.1"></path><path d="M429,235.78a3.08,3.08,0,0,1,6.15,0,.22.22,0,0,1,0,.08.28.28,0,0,1,0,.09,1.54,1.54,0,0,1-.9,1.17,4.83,4.83,0,0,1-4.35,0A1.54,1.54,0,0,1,429,236v-.17Z" style="fill:#37474f"></path><path d="M429.85,237.12A1.54,1.54,0,0,1,429,236v-.17a3.08,3.08,0,0,1,1.6-2.62s-1.53,1.94-.41,3.21c.77.87,3.43,1,4.6.34a2.13,2.13,0,0,1-.54.41A4.83,4.83,0,0,1,429.85,237.12Z" style="fill:#263238"></path><path d="M433.93,237.33a2.17,2.17,0,0,1,4.34,0v.12a1.1,1.1,0,0,1-.63.83,3.41,3.41,0,0,1-3.08,0,1.1,1.1,0,0,1-.63-.83.18.18,0,0,1,0-.12Z" style="fill:#455a64"></path><path d="M434.56,238.28a1.1,1.1,0,0,1-.63-.83.18.18,0,0,1,0-.12,2,2,0,0,1,.14-.73c-.05.94.39,1.5,1.76,1.68a2.7,2.7,0,0,0,2.39-.62,1.3,1.3,0,0,1-.58.62A3.41,3.41,0,0,1,434.56,238.28Z" style="fill:#37474f"></path><path d="M418,235.15a2.16,2.16,0,0,1,4.31,0,.19.19,0,0,1,0,.12,1.09,1.09,0,0,1-.63.82,3.35,3.35,0,0,1-3.05,0,1.13,1.13,0,0,1-.63-.82v-.12Z" style="fill:#455a64"></path><path d="M418.61,236.09a1.13,1.13,0,0,1-.63-.82v-.12a2.2,2.2,0,0,1,.15-.72c-.06.93.38,1.49,1.74,1.66a2.69,2.69,0,0,0,2.38-.61,1.27,1.27,0,0,1-.59.61A3.35,3.35,0,0,1,418.61,236.09Z" style="fill:#37474f"></path></g></g><g id="freepik--Sign--inject-16"><g id="freepik--Signal--inject-16"><path d="M177,87.57a.54.54,0,0,1,.32-.44,1.74,1.74,0,0,1,1.57,0,.54.54,0,0,1,.32.44h0V165.7c0,.35-.5.63-1.11.63s-1.11-.28-1.11-.63h0V87.57Z" style="fill:#37474f"></path><polygon points="171.83 59.2 182.19 53.22 184.41 54.5 191.73 60.04 191.73 73.85 184.41 87.85 174.04 93.83 171.83 92.55 164.5 87.02 164.5 73.2 171.83 59.2" style="fill:#263238"></polygon><polygon points="174.04 60.48 184.41 54.5 191.73 60.04 191.73 73.85 184.41 87.85 174.04 93.83 166.72 88.3 166.72 74.48 174.04 60.48" style="fill:#455a64"></polygon><polygon points="182.97 86.47 189.82 73.39 189.82 60.99 184.26 56.79 175.48 61.86 168.63 74.95 168.63 87.34 174.19 91.55 182.97 86.47" style="fill:#E91E63"></polygon><polygon points="184.41 54.5 182.19 53.22 171.83 59.2 174.04 60.48 184.41 54.5" style="fill:#455a64"></polygon><polygon points="184.41 54.5 182.19 53.22 171.83 59.2 174.04 60.48 184.41 54.5" style="fill:#fff;opacity:0.1"></polygon><polygon points="164.5 73.2 166.72 74.48 174.04 60.48 171.83 59.2 164.5 73.2" style="fill:#37474f"></polygon><polygon points="166.72 88.3 164.5 87.02 171.83 92.55 174.04 93.83 166.72 88.3" style="opacity:0.1"></polygon><path d="M171.48,83.29a.72.72,0,0,1-.65-.19.81.81,0,0,1-.12-.44,3.47,3.47,0,0,1,.14-.89,1,1,0,0,1,.31-.6.29.29,0,0,1,.24,0l.23.06a.94.94,0,0,0,.65-.08,1.44,1.44,0,0,0,.5-.51,1.53,1.53,0,0,0,.22-.86,1.18,1.18,0,0,0-.12-.59.59.59,0,0,0-.27-.29,4.13,4.13,0,0,0-.47-.16,1.77,1.77,0,0,1-1-.71,3.32,3.32,0,0,1-.32-1.67,5,5,0,0,1,.54-2.34,3.7,3.7,0,0,1,1.42-1.55,1.74,1.74,0,0,1,.68-.24.87.87,0,0,1,.55.05c.11.06.16.19.16.4a4.06,4.06,0,0,1-.1.86c-.07.31-.16.51-.27.57a.58.58,0,0,1-.27,0,1.17,1.17,0,0,0-.61.13,1.25,1.25,0,0,0-.51.54,1.68,1.68,0,0,0-.14.64,1,1,0,0,0,.18.71,1.31,1.31,0,0,0,.58.28l.21.06a1.58,1.58,0,0,1,.93.7,3.32,3.32,0,0,1,.28,1.58,6,6,0,0,1-.22,1.61,5.36,5.36,0,0,1-.68,1.5A3.36,3.36,0,0,1,172.39,83,2.37,2.37,0,0,1,171.48,83.29Z" style="fill:#fafafa"></path><path d="M175.93,80.39V72.64l-1,.6c-.09.05-.16,0-.2,0a1.19,1.19,0,0,1-.07-.51v-.45a1.79,1.79,0,0,1,.07-.58.46.46,0,0,1,.2-.29l3.55-2c.1-.06.17,0,.21,0a1.19,1.19,0,0,1,.07.51v.44a1.86,1.86,0,0,1-.07.59.46.46,0,0,1-.21.29l-1.05.61v7.74a.9.9,0,0,1-.54.77l-.38.22C176.11,80.74,175.93,80.69,175.93,80.39Z" style="fill:#fafafa"></path><path d="M179,74q0-5.15,2.45-6.55c.79-.46,1.4-.4,1.81.2a6.72,6.72,0,0,1,.62,3.53,12,12,0,0,1-.62,4.26,4.31,4.31,0,0,1-1.81,2.29C179.77,78.72,179,77.47,179,74Zm3,1.25a4.12,4.12,0,0,0,.31-1.18,17.83,17.83,0,0,0,.1-2,14.74,14.74,0,0,0-.1-1.91,1.5,1.5,0,0,0-.31-.82.45.45,0,0,0-.54,0,1.4,1.4,0,0,0-.55.6,3.78,3.78,0,0,0-.32,1.18,15.87,15.87,0,0,0-.1,2,13.06,13.06,0,0,0,.1,1.9,1.35,1.35,0,0,0,.32.82c.14.12.32.11.55,0A1.44,1.44,0,0,0,182,75.29Z" style="fill:#fafafa"></path><path d="M184.7,75.32v-9a1.13,1.13,0,0,1,.09-.49.63.63,0,0,1,.28-.3l1.62-.93a1.22,1.22,0,0,1,1.3-.1c.38.22.56.94.56,2.17a6.2,6.2,0,0,1-.32,2.15,4.61,4.61,0,0,1-.73,1.36,3.41,3.41,0,0,1-.72.66l-.64.37v3.33a.92.92,0,0,1-.56.78l-.32.19C184.89,75.67,184.7,75.63,184.7,75.32Zm1.92-6.3a1,1,0,0,0,.38-.5,3.12,3.12,0,0,0,.15-1.1,1.66,1.66,0,0,0-.15-.89.27.27,0,0,0-.38-.06l-.49.28v2.56Z" style="fill:#fafafa"></path><path d="M169.21,106.16l19.71-11.38c1.18-.68,2.13-.13,2.13,1.23v17.34a4.7,4.7,0,0,1-2.13,3.69l-19.71,11.38c-1.17.68-2.13.13-2.13-1.23V109.84A4.72,4.72,0,0,1,169.21,106.16Z" style="fill:#455a64"></path><path d="M172.48,112.93a3.76,3.76,0,0,1-.31-1.88,6.2,6.2,0,0,1,.32-2.2,2.3,2.3,0,0,1,1-1.24,1.2,1.2,0,0,1,.42-.17q.15,0,.15.24a2.51,2.51,0,0,1-.06.55c0,.18-.1.27-.17.27a.75.75,0,0,0-.31.1,1.1,1.1,0,0,0-.44.67,5.28,5.28,0,0,0-.14,1.34,3.55,3.55,0,0,0,.14,1.18.29.29,0,0,0,.46.15.74.74,0,0,0,.16-.11l.17-.16,0,0c.07,0,.11,0,.15.1a1.81,1.81,0,0,1,.05.47.57.57,0,0,1-.14.4,2.3,2.3,0,0,1-.22.2,2.51,2.51,0,0,1-.29.2C173,113.27,172.68,113.25,172.48,112.93Z" style="fill:#fafafa"></path><path d="M174.55,112.26a.35.35,0,0,1,0-.21v-4.74a.47.47,0,0,1,.28-.41l.2-.11c.19-.11.28-.08.28.08v4.06l.73-.43c.05,0,.09,0,.11,0a.76.76,0,0,1,0,.27V111a1.23,1.23,0,0,1,0,.31.25.25,0,0,1-.11.15l-1.31.76C174.63,112.28,174.58,112.29,174.55,112.26Z" style="fill:#fafafa"></path><path d="M176.31,108.68c0-1.8.43-3,1.28-3.44.42-.24.74-.2.95.11a3.52,3.52,0,0,1,.33,1.85,6.25,6.25,0,0,1-.33,2.23,2.21,2.21,0,0,1-.95,1.2C176.74,111.12,176.31,110.47,176.31,108.68Zm1.57.65a1.9,1.9,0,0,0,.16-.62,7.49,7.49,0,0,0,.06-1.06,6.23,6.23,0,0,0-.06-1,.7.7,0,0,0-.16-.43.23.23,0,0,0-.28,0,.82.82,0,0,0-.29.32,1.9,1.9,0,0,0-.16.62,7.49,7.49,0,0,0-.06,1.06,6.31,6.31,0,0,0,.06,1,.7.7,0,0,0,.16.43c.08.06.17,0,.29,0A.77.77,0,0,0,177.88,109.33Z" style="fill:#fafafa"></path><path d="M179.59,109.37a.39.39,0,0,1-.35-.1.41.41,0,0,1-.06-.23,2.23,2.23,0,0,1,.07-.47.57.57,0,0,1,.17-.31.23.23,0,0,1,.12,0l.13,0a.42.42,0,0,0,.33,0,.74.74,0,0,0,.27-.26.88.88,0,0,0,.11-.45.63.63,0,0,0-.06-.31.29.29,0,0,0-.14-.15l-.25-.09a.87.87,0,0,1-.54-.37,1.76,1.76,0,0,1-.16-.88,2.58,2.58,0,0,1,.28-1.22,1.88,1.88,0,0,1,.74-.81.92.92,0,0,1,.36-.13.41.41,0,0,1,.28,0q.09,0,.09.21a2,2,0,0,1-.06.45.46.46,0,0,1-.14.3.37.37,0,0,1-.14,0,.59.59,0,0,0-.31.07.56.56,0,0,0-.27.28.84.84,0,0,0-.08.34.55.55,0,0,0,.1.37.6.6,0,0,0,.3.14l.11,0a.81.81,0,0,1,.49.36,1.75,1.75,0,0,1,.15.83,3,3,0,0,1-.12.84,2.7,2.7,0,0,1-.36.79,1.86,1.86,0,0,1-.59.56A1.31,1.31,0,0,1,179.59,109.37Z" style="fill:#fafafa"></path><path d="M181.51,108.24s0-.1,0-.21v-4.67a.6.6,0,0,1,0-.25.34.34,0,0,1,.14-.15l1.44-.83s.09,0,.11,0a.82.82,0,0,1,0,.27v.23a1.24,1.24,0,0,1,0,.31.25.25,0,0,1-.11.15l-.86.5v1.09l.76-.44s.09,0,.11,0a.69.69,0,0,1,0,.26v.24a1.08,1.08,0,0,1,0,.3.24.24,0,0,1-.11.16l-.76.44v1.22l.87-.5c.05,0,.08,0,.1,0a.72.72,0,0,1,0,.26v.24a1.15,1.15,0,0,1,0,.3.24.24,0,0,1-.1.15l-1.45.84C181.59,108.26,181.54,108.27,181.51,108.24Z" style="fill:#fafafa"></path><path d="M183.75,107a.32.32,0,0,1-.05-.21v-4.67a.58.58,0,0,1,.05-.25.32.32,0,0,1,.13-.15l.93-.54c.43-.24.74-.2.94.12a3.72,3.72,0,0,1,.3,1.8,6.49,6.49,0,0,1-.3,2.16,2.12,2.12,0,0,1-.94,1.19l-.93.54C183.82,107,183.78,107,183.75,107Zm1-1.52a.89.89,0,0,0,.37-.59,5.59,5.59,0,0,0,.11-1.34,4.07,4.07,0,0,0-.11-1.21c-.07-.2-.2-.26-.37-.16l-.31.18v3.3Z" style="fill:#fafafa"></path><path d="M171.62,123a.31.31,0,0,1,0-.2V118.1a.62.62,0,0,1,0-.25.33.33,0,0,1,.14-.15l.87-.5c.69-.4,1-.17,1,.68a2.61,2.61,0,0,1-.44,1.49v0a.37.37,0,0,1,.39.21,1.42,1.42,0,0,1,.15.73,2.89,2.89,0,0,1-.28,1.24,2.13,2.13,0,0,1-.83.88l-.89.51C171.69,123,171.65,123,171.62,123Zm1-3.64a.53.53,0,0,0,.23-.29,1.54,1.54,0,0,0,.07-.53.81.81,0,0,0-.07-.42c0-.06-.12-.07-.22,0l-.35.2v1.25Zm0,2.19a.63.63,0,0,0,.27-.31,1.69,1.69,0,0,0,.08-.57c0-.23,0-.38-.08-.44s-.14-.06-.27,0l-.37.21v1.32Z" style="fill:#fafafa"></path><path d="M174.12,119c0-1.8.43-3,1.28-3.44.42-.24.73-.2.95.11a3.52,3.52,0,0,1,.33,1.85,6.25,6.25,0,0,1-.33,2.23,2.26,2.26,0,0,1-.95,1.2C174.55,121.42,174.12,120.77,174.12,119Zm1.57.65a2.19,2.19,0,0,0,.16-.62,7.8,7.8,0,0,0,.05-1.07,6.41,6.41,0,0,0-.05-1,.77.77,0,0,0-.16-.43.24.24,0,0,0-.29,0,.8.8,0,0,0-.28.32,1.87,1.87,0,0,0-.17.62,7.72,7.72,0,0,0,0,1.06,6.55,6.55,0,0,0,0,1,.73.73,0,0,0,.17.43.24.24,0,0,0,.28,0A.73.73,0,0,0,175.69,119.63Z" style="fill:#fafafa"></path><path d="M177.13,119.65v-4.74a.65.65,0,0,1,0-.26.33.33,0,0,1,.15-.16l.82-.47c.3-.17.54-.2.72-.07s.27.45.27,1a2.62,2.62,0,0,1-.46,1.54v0a.36.36,0,0,1,.2.19,1.24,1.24,0,0,1,.13.37l.29,1.28v.08c0,.14-.1.26-.3.38l-.17.1c-.18.1-.27.09-.3,0l-.25-1.29c0-.09-.07-.15-.11-.17s-.09,0-.17,0l-.12.07v1.7a.49.49,0,0,1-.29.41l-.17.1C177.22,119.83,177.13,119.81,177.13,119.65Zm1-3.4a.55.55,0,0,0,.19-.27,1.56,1.56,0,0,0,.07-.52.81.81,0,0,0-.07-.42.13.13,0,0,0-.2,0l-.26.15v1.25Z" style="fill:#fafafa"></path><path d="M179.69,118.32a.31.31,0,0,1,0-.2v-4.67a.65.65,0,0,1,0-.26.4.4,0,0,1,.14-.15l.93-.53c.42-.25.73-.21.93.11a3.62,3.62,0,0,1,.3,1.81,6.18,6.18,0,0,1-.3,2.15,2.21,2.21,0,0,1-.93,1.2l-.93.53C179.77,118.35,179.72,118.35,179.69,118.32Zm1-1.52a.88.88,0,0,0,.38-.58,6.17,6.17,0,0,0,.11-1.34,4.35,4.35,0,0,0-.11-1.21c-.08-.21-.2-.26-.38-.16l-.31.18V117Z" style="fill:#fafafa"></path><path d="M182.51,116.69a.4.4,0,0,1,0-.2v-4.67a.76.76,0,0,1,0-.25.36.36,0,0,1,.14-.16l1.44-.83s.09,0,.11,0a.76.76,0,0,1,0,.27v.23a1.23,1.23,0,0,1,0,.31.25.25,0,0,1-.11.15l-.86.5v1.09l.77-.44a.06.06,0,0,1,.1,0,.58.58,0,0,1,0,.27v.23a.86.86,0,0,1,0,.31.28.28,0,0,1-.1.15l-.77.44v1.22l.87-.5c.05,0,.08,0,.1,0a.76.76,0,0,1,0,.27v.23a1.17,1.17,0,0,1,0,.31.24.24,0,0,1-.1.15l-1.45.83C182.59,116.72,182.54,116.72,182.51,116.69Z" style="fill:#fafafa"></path><path d="M184.69,115.28v-4.74a.5.5,0,0,1,.05-.26.38.38,0,0,1,.15-.16l.81-.47c.3-.17.54-.2.73-.07s.27.45.27,1a2.67,2.67,0,0,1-.46,1.54v0a.35.35,0,0,1,.19.19,1.35,1.35,0,0,1,.13.37l.29,1.28,0,.09c0,.13-.11.26-.31.37l-.17.1c-.17.1-.27.09-.29,0l-.26-1.28a.33.33,0,0,0-.1-.18s-.1,0-.18,0l-.12.07v1.7a.48.48,0,0,1-.29.41l-.17.09C184.79,115.46,184.69,115.44,184.69,115.28Zm1-3.39a.49.49,0,0,0,.18-.27,1.6,1.6,0,0,0,.08-.53.78.78,0,0,0-.08-.42.13.13,0,0,0-.2,0l-.26.15v1.26Z" style="fill:#fafafa"></path></g></g><g id="freepik--Car--inject-16"><path id="freepik--shadow--inject-16" d="M334.86,425.66,171.61,331.4c-4.71-2.71-4.71-7.12,0-9.83l90.82-52.44c4.7-2.71,12.33-2.71,17,0l163.26,94.26c4.7,2.71,4.7,7.11,0,9.83l-90.83,52.44C347.19,428.37,339.56,428.37,334.86,425.66Z" style="opacity:0.1"></path><g id="freepik--Van--inject-16"><path d="M349.73,410.47l80.71-46.6V264.3a23.75,23.75,0,0,0-11.87-20.55L331.3,193.37a47.27,47.27,0,0,0-47.3,0l-65.7,37.94,128.94,69Z" style="fill:#E91E63"></path><path d="M418.58,243.75,331.3,193.37a47.27,47.27,0,0,0-47.3,0l-65.7,37.94,128.94,69L428,253.73A23.72,23.72,0,0,0,418.58,243.75Z" style="fill:#fff;opacity:0.4"></path><polygon points="277.59 368.83 303.36 353.95 289.04 345.69 277.59 352.32 277.59 368.83" style="fill:#E91E63"></polygon><polygon points="277.59 368.83 303.36 353.95 289.04 345.69 277.59 352.32 277.59 368.83" style="opacity:0.35000000000000003"></polygon><path d="M288.25,365.16l-3.7-7.35,8.81-5.09h0c2.8-1.61,6.53-1.43,10.62.93,8.7,5,15.74,18,15.75,28.93,0,5.73-1.94,9.78-5,11.62h0l-.12.07h0l-9,5.21-3.91-7.75C294.25,386.08,288.54,374.93,288.25,365.16Z" style="fill:#37474f"></path><path d="M288.25,365.16l-3.7-7.35,8.81-5.09h0c2.8-1.61,6.53-1.43,10.62.93,8.7,5,15.74,18,15.75,28.93,0,5.73-1.94,9.78-5,11.62h0l-.12.07h0l-9,5.21-3.91-7.75C294.25,386.08,288.54,374.93,288.25,365.16Z" style="fill:#263238"></path><path d="M279.08,369.68c0,9.45,5.24,20.38,12.26,26.42l0,0a23.1,23.1,0,0,0,3.45,2.47c8.7,5,15.75.22,15.74-10.74,0-8.27-4-17.69-9.73-24l-.05,0a25.56,25.56,0,0,0-6-4.91C286.12,353.93,279.08,358.73,279.08,369.68Z" style="fill:#37474f"></path><path d="M294.82,365.55c-5.53-3.19-10,.14-10,7.44s4.49,15.81,10,19,10-.14,10-7.44S300.35,368.75,294.82,365.55Z" style="fill:#455a64"></path><path d="M290.29,376.75c.38,3.63,2.72,7.49,5.22,8.6a2.45,2.45,0,0,0,2.73-.23c.87-.75,1.32-2.29,1.11-4.33-.38-3.63-2.71-7.48-5.22-8.59a2.84,2.84,0,0,0-1.83-.24h0C290.86,372.32,290,374.11,290.29,376.75Z" style="fill:#fafafa"></path><path d="M291.19,376.28c.38,3.64,2.72,7.49,5.21,8.6a2.87,2.87,0,0,0,1.84.24c.87-.75,1.32-2.29,1.11-4.33-.38-3.63-2.71-7.48-5.22-8.59a2.84,2.84,0,0,0-1.83-.24h0C291.42,372.72,291,374.25,291.19,376.28Z" style="fill:#e0e0e0"></path><path d="M279.08,369.68c0,9.45,5.24,20.38,12.26,26.42a44.69,44.69,0,0,1-10-19.32c-1.33-6.31-.83-15.38,4.59-17.67s12.57,2.54,14.84,4.74a25.56,25.56,0,0,0-6-4.91C286.12,353.93,279.08,358.73,279.08,369.68Z" style="fill:#455a64"></path><polygon points="185.42 315.61 211.18 300.73 196.87 292.47 185.42 299.1 185.42 315.61" style="fill:#E91E63"></polygon><polygon points="185.42 315.61 211.18 300.73 196.87 292.47 185.42 299.1 185.42 315.61" style="opacity:0.35000000000000003"></polygon><path d="M196.08,311.94l-3.7-7.35,8.81-5.1h0c2.8-1.61,6.53-1.43,10.62.93,8.69,5,15.74,18,15.74,28.92,0,5.74-1.93,9.79-5,11.62h0l-.12.07h0l-9,5.21-3.9-7.75C202.07,332.86,196.37,321.71,196.08,311.94Z" style="fill:#37474f"></path><path d="M196.08,311.94l-3.7-7.35,8.81-5.1h0c2.8-1.61,6.53-1.43,10.62.93,8.69,5,15.74,18,15.74,28.92,0,5.74-1.93,9.79-5,11.62h0l-.12.07h0l-9,5.21-3.9-7.75C202.07,332.86,196.37,321.71,196.08,311.94Z" style="fill:#263238"></path><path d="M186.91,316.46c0,9.44,5.24,20.37,12.26,26.42l0,0a22.6,22.6,0,0,0,3.45,2.47c8.69,5,15.75.21,15.74-10.74,0-8.27-4-17.69-9.74-24l-.05-.05a25.27,25.27,0,0,0-5.95-4.91C194,300.7,186.91,305.51,186.91,316.46Z" style="fill:#37474f"></path><path d="M202.65,312.33c-5.53-3.19-10,.13-10,7.44s4.49,15.81,10,19,10-.13,10-7.43S208.18,315.53,202.65,312.33Z" style="fill:#455a64"></path><path d="M198.12,323.53c.38,3.63,2.72,7.48,5.22,8.6a2.45,2.45,0,0,0,2.72-.23c.88-.75,1.33-2.29,1.12-4.33-.38-3.63-2.72-7.48-5.22-8.59a2.72,2.72,0,0,0-1.83-.24h0C198.68,319.09,197.85,320.89,198.12,323.53Z" style="fill:#fafafa"></path><path d="M199,323.06c.38,3.63,2.71,7.48,5.21,8.6a2.91,2.91,0,0,0,1.83.24c.88-.75,1.33-2.29,1.12-4.33-.38-3.63-2.72-7.48-5.22-8.59a2.72,2.72,0,0,0-1.83-.24h0C199.25,319.49,198.8,321,199,323.06Z" style="fill:#e0e0e0"></path><path d="M186.91,316.46c0,9.44,5.24,20.37,12.26,26.42a44.58,44.58,0,0,1-10-19.32c-1.33-6.32-.83-15.38,4.59-17.67s12.57,2.54,14.83,4.74a25.27,25.27,0,0,0-5.95-4.91C194,300.7,186.91,305.51,186.91,316.46Z" style="fill:#455a64"></path><path d="M349.73,410.48l-36.85-21.27a1.93,1.93,0,0,0,0-.24c0-9.28-4.51-19.84-10.92-26.87l-.05-.06a28.37,28.37,0,0,0-6.68-5.5c-9.59-5.53-17.4-.4-17.63,11.47a1.62,1.62,0,0,0,0,.22c0,.19,0,.4,0,.6L220.71,336a2,2,0,0,0,0-.25c0-9.27-4.51-19.84-10.92-26.86l-.06-.06a28.53,28.53,0,0,0-6.67-5.5c-9.81-5.66-17.75-.16-17.64,12.28h0l-8.65-5V276.4c0-.12,0-.22,0-.33a9.67,9.67,0,0,1,1.32-4.63,10,10,0,0,1,3.63-3.62l9.45-5.46s14.43-21.63,23.07-28.29,14.4-7.14,25.94,0l97.66,56.31a23.73,23.73,0,0,1,11.88,20.56Z" style="fill:#E91E63"></path><path d="M349.73,410.48l-36.85-21.27a1.93,1.93,0,0,0,0-.24c0-9.28-4.51-19.84-10.92-26.87l-.05-.06a28.37,28.37,0,0,0-6.68-5.5c-9.59-5.53-17.4-.4-17.63,11.47a1.62,1.62,0,0,0,0,.22c0,.19,0,.4,0,.6L220.71,336a2,2,0,0,0,0-.25c0-9.27-4.51-19.84-10.92-26.86l-.06-.06a28.53,28.53,0,0,0-6.67-5.5c-9.81-5.66-17.75-.16-17.64,12.28h0l-8.65-5V276.4c0-.12,0-.22,0-.33a9.67,9.67,0,0,1,1.32-4.63,10,10,0,0,1,3.63-3.62l9.45-5.46s14.43-21.63,23.07-28.29,14.4-7.14,25.94,0l97.66,56.31a23.73,23.73,0,0,1,11.88,20.56Z" style="opacity:0.05"></path><polygon points="302.38 313.66 274.36 297.48 274.36 289.51 258.12 297.04 274.36 321.32 274.36 313.66 309.4 333.89 302.38 313.66" style="fill:#fafafa"></polygon><polygon points="304.61 314.94 311.59 335.15 318.59 339.2 311.68 319.02 304.61 314.94" style="fill:#fafafa"></polygon><polygon points="314.06 320.4 321.09 340.64 328.1 344.68 321.18 324.5 314.06 320.4" style="fill:#fafafa"></polygon><path d="M186.79,278.91a3.19,3.19,0,0,0,1.59-.47l3.74-2.16a6.44,6.44,0,0,0,2.95-5.11v-14.3a2.47,2.47,0,0,0-2.36-2.75,3.16,3.16,0,0,0-1.59.47l-3.73,2.15a6.45,6.45,0,0,0-3,5.12v14.3A2.47,2.47,0,0,0,186.79,278.91Z" style="fill:#37474f"></path><path d="M191.61,255.45l-3.72,2.15a5.44,5.44,0,0,0-2.46,4.26v14.3c0,1.56,1.1,2.2,2.46,1.42l3.73-2.16a5.42,5.42,0,0,0,2.46-4.25v-14.3C194.07,255.3,193,254.67,191.61,255.45Z" style="fill:#E91E63"></path><path d="M191.61,255.45l-3.72,2.15a5.44,5.44,0,0,0-2.46,4.26v14.3c0,1.56,1.1,2.2,2.46,1.42l3.73-2.16a5.42,5.42,0,0,0,2.46-4.25v-14.3C194.07,255.3,193,254.67,191.61,255.45Z" style="fill:#fff;opacity:0.7000000000000001"></path><g style="opacity:0.2"><path d="M185.43,262.3v-.44a5.05,5.05,0,0,1,.68-2.36l8,8V271Z" style="fill:#fff"></path><polygon points="194.07 263.81 187.88 257.61 187.88 257.6 189.57 256.63 194.07 261.13 194.07 263.81" style="fill:#fff"></polygon><path d="M192.57,274.66l-7.14-7.14v-1.09l7.62,7.63A7,7,0,0,1,192.57,274.66Z" style="fill:#fff"></path><polygon points="185.43 270.95 190.53 276.05 188.81 277.04 185.43 273.66 185.43 270.95" style="fill:#fff"></polygon></g><g style="opacity:0.2"><rect x="239.48" y="247.38" width="1.42" height="93.19"></rect></g><path d="M228.66,287.32h0a1.92,1.92,0,0,1-2.88,1.66l-4.8-2.77a1.91,1.91,0,0,1-1-1.66v-2.23Z" style="fill:#455a64"></path><path d="M176.78,276.06V284l2.76,1.59a2,2,0,0,0,3-1.73v-4.7a8.9,8.9,0,0,0-4.45-7.7h0A9.78,9.78,0,0,0,176.78,276.06Z" style="fill:#fafafa"></path><path d="M176.77,294l-3,1.74A5.54,5.54,0,0,0,171,300.5v6.92a5.55,5.55,0,0,0,2.77,4.8l5.88,3.39,2.88-1.66V300.63l-5.77-3.32Z" style="fill:#455a64"></path><path d="M173.72,298.86l5.93,3.4,2.89-1.63-5.77-3.32V294l-3.06,1.77A1.8,1.8,0,0,0,173.72,298.86Z" style="fill:#37474f"></path><polygon points="179.66 315.61 179.66 302.29 182.54 300.63 182.53 313.95 179.66 315.61" style="fill:#263238"></polygon><path d="M199.85,264l28.81,16.65V240.72l-3.14-1.81a6.24,6.24,0,0,0-7.81,1.26Z" style="fill:#455a64"></path><path d="M199.85,264l5.76-3.32,23-13.33v-6.64l-3.14-1.81a6.24,6.24,0,0,0-7.81,1.26Z" style="fill:#fafafa;opacity:0.30000000000000004"></path><path d="M354.16,401.25,437.76,353a2.81,2.81,0,0,0,0-4.86l-7.32-4.24v6.67l-80.71,46.6L344,393.83l-5.76,3.33,7.09,4.09A8.84,8.84,0,0,0,354.16,401.25Z" style="fill:#37474f"></path><path d="M338.2,397.16v13.31l7.05,4.27a8.86,8.86,0,0,0,9,.08l83-48.17a3.84,3.84,0,0,0,1.93-3.34V350.56a2.8,2.8,0,0,1-1.41,2.43l-83.61,48.27a8.84,8.84,0,0,1-8.84,0Z" style="fill:#263238"></path><path d="M338.2,397.16v13.31l7.05,4.27a8.81,8.81,0,0,0,4.48,1.27V402.45a8.83,8.83,0,0,1-4.42-1.19Z" style="fill:#455a64"></path><path d="M407.51,374v9.77a3.46,3.46,0,0,1-1.56,2.71l-20.07,11.65c-.86.5-1.57.1-1.59-.9l-.13-9.81a3.33,3.33,0,0,1,1.54-2.7l20.24-11.63C406.81,372.63,407.51,373,407.51,374Z" style="fill:#fafafa"></path><path d="M388,393.7v-1.1l-1.26.73s-.08,0-.12-.18a1.25,1.25,0,0,1-.07-.4s0-.07,0-.1l1.34-4.69a.55.55,0,0,1,.11-.2,1.15,1.15,0,0,1,.2-.15l.23-.13c.19-.11.28-.08.28.09v3.72l.22-.12a.08.08,0,0,1,.12,0,.82.82,0,0,1,0,.27v.13a1.33,1.33,0,0,1,0,.32.31.31,0,0,1-.12.15l-.22.13v1.09a.49.49,0,0,1-.28.43l-.15.08C388.07,393.9,388,393.87,388,393.7Zm0-2v-1.18c0-.37,0-.77,0-1.19h0l-.78,2.81Z" style="fill:#E91E63"></path><path d="M390.61,392.18v-1.1l-1.27.73s-.07,0-.12-.18a1.55,1.55,0,0,1-.06-.4.37.37,0,0,1,0-.11l1.34-4.68a.43.43,0,0,1,.11-.2.65.65,0,0,1,.2-.15l.23-.13c.19-.11.28-.08.28.09v3.72l.21-.12c.06,0,.1,0,.12,0a.53.53,0,0,1,0,.27v.13a.83.83,0,0,1,0,.31.23.23,0,0,1-.12.16l-.21.12v1.1a.48.48,0,0,1-.28.42l-.15.09C390.7,392.38,390.61,392.35,390.61,392.18Zm0-2V389c0-.37,0-.77.05-1.2h0l-.78,2.8Z" style="fill:#E91E63"></path><path d="M391.87,389.38v-.07a.83.83,0,0,1,0-.31.2.2,0,0,1,.11-.15l1-.56s.08,0,.11,0a.82.82,0,0,1,0,.27v.07c0,.26-.05.41-.14.47l-1,.55Q391.87,389.76,391.87,389.38Z" style="fill:#E91E63"></path><path d="M393.3,390.72a.74.74,0,0,1,0-.12.52.52,0,0,0,0-.11l.88-3.39-.77-2.17,0-.07a.22.22,0,0,1,0-.11c0-.1.1-.22.31-.34l.21-.12a.5.5,0,0,1,.19-.07.08.08,0,0,1,.09.07l.49,1.85.53-2.44a.31.31,0,0,1,.09-.18,1,1,0,0,1,.19-.15l.21-.11c.2-.12.3-.12.3,0a1.17,1.17,0,0,1,0,.23l-.82,3.09L396,389l0,.08a.2.2,0,0,1,0,.1c0,.1-.1.22-.31.34l-.2.11c-.16.1-.26.1-.28,0l-.57-2-.61,2.7a.32.32,0,0,1-.1.18.62.62,0,0,1-.19.14l-.19.11C393.4,390.82,393.3,390.83,393.3,390.72Z" style="fill:#E91E63"></path><path d="M396.37,389.05c-.12,0-.19,0-.19-.15a1.92,1.92,0,0,1,.07-.49c0-.19.08-.3.14-.34l.11,0a.61.61,0,0,0,.17-.07.62.62,0,0,0,.29-.39,2.72,2.72,0,0,0,.09-.79v-4a.5.5,0,0,1,.29-.44l.19-.1c.19-.12.29-.09.29.09v4.16a2.59,2.59,0,0,1-1,2.45A.84.84,0,0,1,396.37,389.05Z" style="fill:#E91E63"></path><path d="M398.59,387.74a.39.39,0,0,1,0-.23V382a.68.68,0,0,1,0-.27.38.38,0,0,1,.15-.16l1-.59c.39-.22.68-.26.87-.1s.29.47.29,1a3.31,3.31,0,0,1-.14.95,2.52,2.52,0,0,1-.38.77v0a.49.49,0,0,1,.46.23,1.61,1.61,0,0,1,.18.87,3.32,3.32,0,0,1-.32,1.48,2.37,2.37,0,0,1-1,1l-1,.59C398.67,387.76,398.62,387.77,398.59,387.74Zm1.15-4.21a.86.86,0,0,0,.33-.41,1.86,1.86,0,0,0,.12-.7,1,1,0,0,0-.11-.55c-.07-.08-.18-.08-.33,0l-.47.27v1.64Zm.08,2.64c.32-.18.47-.58.47-1.19a.92.92,0,0,0-.12-.57c-.08-.09-.21-.09-.37,0l-.52.29v1.77Z" style="fill:#E91E63"></path><path d="M402.1,385.63l-.77-5.28v-.12q0-.21.3-.39l.14-.07c.2-.12.3-.1.32,0l.35,3.4.07.74,0,.42c0-.3.07-.73.12-1.3l.42-3.89a.36.36,0,0,1,.07-.18.51.51,0,0,1,.17-.14l.23-.13a.27.27,0,0,1,.18-.06s.06,0,.07.09l.41,3.43c0,.12,0,.35.07.68,0,.13,0,.29,0,.48l.11-1.29.36-3.82a.53.53,0,0,1,.32-.41l.11-.07c.2-.11.3-.1.3,0v.13l-.78,6.17a.42.42,0,0,1-.24.31l-.33.19q-.23.13-.24,0l-.43-3.08-.08-1-.07,1-.44,3.59a.42.42,0,0,1-.24.31l-.33.19C402.2,385.74,402.12,385.73,402.1,385.63Z" style="fill:#E91E63"></path><path d="M403.25,264.52l-23.06,13.32h0a11.53,11.53,0,0,1,5.76-10l11.54-6.66a3.84,3.84,0,0,1,5.76,3.33Z" style="fill:#fafafa"></path><path d="M407.77,270.68c9.55-5.38,17.3,4.23,17.3,21.48v61.5l-34.59,20v-93.2Z" style="fill:#E91E63"></path><path d="M396.21,283.78l11.56-6.67c6.37-3.68,11.53.79,11.53,10v16.64l-23.09,13.33Z" style="fill:#455a64"></path><g style="opacity:0.30000000000000004"><polygon points="396.2 303.83 404.6 312.22 402.15 313.63 396.2 307.69 396.2 303.83" style="fill:#fafafa;opacity:0.2"></polygon><polygon points="412.61 307.6 407.69 310.44 396.2 298.95 396.2 291.19 412.61 307.6" style="fill:#fafafa;opacity:0.2"></polygon><path d="M398.65,282.37l4.13-2.38,16.52,16.52V303Z" style="fill:#fafafa;opacity:0.2"></path><path d="M396.21,284.6v-.82l.41-.24,21.1,21.11-.93.54Z" style="fill:#fafafa;opacity:0.2"></path><path d="M419.3,291.17,406.16,278l1.61-.92c.3-.18.59-.31.88-.45l10.65,10.65Z" style="fill:#fafafa;opacity:0.2"></path></g><path d="M390.47,373.63v-93.2l-19,11a31.23,31.23,0,0,0-15.61,27V393.6Z" style="fill:#E91E63"></path><path d="M384.71,290.42V323.7L361.65,337V316.85A22.74,22.74,0,0,1,373,297.17Z" style="fill:#455a64"></path><g style="opacity:0.30000000000000004"><polygon points="361.65 322.97 370.55 331.88 367.78 333.48 361.65 327.35 361.65 322.97" style="fill:#fafafa;opacity:0.2"></polygon><path d="M362.78,309.78l16.86,16.85-5.58,3.22-12.41-12.42v-.58A22.6,22.6,0,0,1,362.78,309.78Z" style="fill:#fafafa;opacity:0.2"></path><path d="M367.46,301.68a22.34,22.34,0,0,1,3.92-3.46l13.33,13.33v7.38Z" style="fill:#fafafa;opacity:0.2"></path><path d="M365.85,303.7l18.86,18.86v1.14l-.34.2-19.19-19.2C365.39,304.36,365.62,304,365.85,303.7Z" style="fill:#fafafa;opacity:0.2"></path><polygon points="384.71 305.5 375.15 295.93 377.93 294.33 384.71 301.12 384.71 305.5" style="fill:#fafafa;opacity:0.2"></polygon></g><polygon points="390.47 280.43 390.47 373.63 392.52 372.45 392.52 279.25 390.47 280.43" style="opacity:0.15"></polygon></g></g><g id="freepik--Cones--inject-16"><g id="freepik--Cone--inject-16"><path d="M123.27,408.22,148,393.93a3.34,3.34,0,0,1,1.66-.4,3.38,3.38,0,0,1,1.67.4l24.74,14.29a1.17,1.17,0,0,1,.68,1V411a1.17,1.17,0,0,1-.68,1l-24.74,14.28a3.38,3.38,0,0,1-1.67.4,3.34,3.34,0,0,1-1.66-.4L123.27,412a1.17,1.17,0,0,1-.68-1v-1.81A1.17,1.17,0,0,1,123.27,408.22Z" style="fill:#E91E63"></path><path d="M122.59,409.18V411a1.17,1.17,0,0,0,.68,1L148,426.23a3.34,3.34,0,0,0,1.66.4v-33.1a3.34,3.34,0,0,0-1.66.4l-24.75,14.29A1.17,1.17,0,0,0,122.59,409.18Z" style="opacity:0.1"></path><path d="M149.68,393.53v33.1a3.38,3.38,0,0,0,1.67-.4L176.09,412a1.17,1.17,0,0,0,.68-1v-1.81a1.17,1.17,0,0,0-.68-1l-24.74-14.29A3.38,3.38,0,0,0,149.68,393.53Z" style="opacity:0.30000000000000004"></path><path d="M151.34,424.44l24.75-14.29a1,1,0,0,0,0-1.92l-24.75-14.29a3.66,3.66,0,0,0-3.32,0l-24.75,14.29a1,1,0,0,0,0,1.92L148,424.44A3.66,3.66,0,0,0,151.34,424.44Z" style="fill:#E91E63"></path><path d="M151.34,424.44l24.75-14.29a1,1,0,0,0,0-1.92l-24.75-14.29a3.66,3.66,0,0,0-3.32,0l-24.75,14.29a1,1,0,0,0,0,1.92L148,424.44A3.66,3.66,0,0,0,151.34,424.44Z" style="fill:#fff;opacity:0.5"></path><path d="M149.68,393.54a3.34,3.34,0,0,1,1.66.4l24.75,14.29a1,1,0,0,1,0,1.92l-24.75,14.29a3.45,3.45,0,0,1-1.66.39Z" style="opacity:0.05"></path><path d="M134.4,407.38h0l10.95-32.89v-.05h0a2.56,2.56,0,0,1,1.19-1.28,6.93,6.93,0,0,1,6.24,0,2.56,2.56,0,0,1,1.19,1.28h0v0h0l11,32.9h0c1,2.87-.41,5.95-4.25,8.17-6.09,3.52-16,3.52-22.06,0C134.81,413.33,133.4,410.25,134.4,407.38Z" style="fill:#E91E63"></path><path d="M134.4,407.38h0l10.95-32.89v-.05h0a2.56,2.56,0,0,1,1.19-1.28,6.93,6.93,0,0,1,6.24,0,2.56,2.56,0,0,1,1.19,1.28h0v0h0l11,32.9h0c1,2.87-.41,5.95-4.25,8.17-6.09,3.52-16,3.52-22.06,0C134.81,413.33,133.4,410.25,134.4,407.38Z" style="opacity:0.1"></path><path d="M142.21,383.92v0l1.56-4.68a2.27,2.27,0,0,0,.68,2.35,4.52,4.52,0,0,0,1,.75,9.43,9.43,0,0,0,8.5,0,4.52,4.52,0,0,0,1-.75,2.24,2.24,0,0,0,.68-2.36l1.56,4.69v0a2.69,2.69,0,0,1-.34,2.35,5.05,5.05,0,0,1-1.75,1.58,8.6,8.6,0,0,1-1.89.77,12.55,12.55,0,0,1-7,0,8.6,8.6,0,0,1-1.89-.77,5.05,5.05,0,0,1-1.75-1.58A2.69,2.69,0,0,1,142.21,383.92Z" style="fill:#fafafa"></path><path d="M135.93,402.77v0l1.56-4.68a4.18,4.18,0,0,0-.09,2.35,5.4,5.4,0,0,0,1.32,2.36,9.27,9.27,0,0,0,2.18,1.7c4.84,2.8,12.7,2.8,17.54,0a9.27,9.27,0,0,0,2.18-1.7,5.3,5.3,0,0,0,1.32-2.36,4.18,4.18,0,0,0-.09-2.35l1.55,4.67,0,0a4.7,4.7,0,0,1,.17,2.35c-.32,1.78-1.65,3.52-4,4.88-5.47,3.16-14.33,3.16-19.8,0-2.36-1.36-3.7-3.1-4-4.88A4.74,4.74,0,0,1,135.93,402.77Z" style="fill:#fafafa"></path><path d="M139.07,393.34v0l1.56-4.68a3.14,3.14,0,0,0,.15,2.35,5.46,5.46,0,0,0,2.31,2.36l.07.05a14.43,14.43,0,0,0,13,0l.07-.05a5.46,5.46,0,0,0,2.31-2.36,3.14,3.14,0,0,0,.15-2.35l1.56,4.68v0a3.67,3.67,0,0,1,0,2.36,5.38,5.38,0,0,1-1.72,2.35,8.84,8.84,0,0,1-1.25.87,13.64,13.64,0,0,1-4.15,1.49,18.62,18.62,0,0,1-7,0,13.64,13.64,0,0,1-4.15-1.49,9.46,9.46,0,0,1-1.25-.87,5.38,5.38,0,0,1-1.72-2.35A3.7,3.7,0,0,1,139.07,393.34Z" style="fill:#fafafa"></path><path d="M149.68,372.42a6.45,6.45,0,0,1,3.12.74,2.56,2.56,0,0,1,1.19,1.28h0v0h0l11,32.9h0c1,2.87-.41,5.95-4.25,8.17a22.55,22.55,0,0,1-11,2.64h.09a9.27,9.27,0,0,0,7.59-10.47L152.8,375Z" style="opacity:0.1"></path><path d="M152.8,376.77c1.72-1,1.72-2.61,0-3.61a6.93,6.93,0,0,0-6.24,0c-1.72,1-1.72,2.61,0,3.61A6.93,6.93,0,0,0,152.8,376.77Z" style="fill:#E91E63"></path></g><g id="freepik--cone--inject-16"><path d="M201.73,411.4l24.75-14.29a3.34,3.34,0,0,1,1.66-.4,3.38,3.38,0,0,1,1.67.4l24.74,14.29a1.16,1.16,0,0,1,.68,1v1.8a1.16,1.16,0,0,1-.68,1l-24.74,14.29a3.38,3.38,0,0,1-1.67.4,3.34,3.34,0,0,1-1.66-.4l-24.75-14.29a1.17,1.17,0,0,1-.69-1v-1.8A1.17,1.17,0,0,1,201.73,411.4Z" style="fill:#E91E63"></path><path d="M201,412.36v1.8a1.17,1.17,0,0,0,.69,1l24.75,14.29a3.34,3.34,0,0,0,1.66.4v-33.1a3.34,3.34,0,0,0-1.66.4L201.73,411.4A1.17,1.17,0,0,0,201,412.36Z" style="opacity:0.1"></path><path d="M228.14,396.71v33.1a3.38,3.38,0,0,0,1.67-.4l24.74-14.29a1.16,1.16,0,0,0,.68-1v-1.8a1.16,1.16,0,0,0-.68-1l-24.74-14.29A3.38,3.38,0,0,0,228.14,396.71Z" style="opacity:0.30000000000000004"></path><path d="M229.8,427.61l24.75-14.29a1,1,0,0,0,0-1.92L229.8,397.11a3.66,3.66,0,0,0-3.32,0L201.73,411.4a1,1,0,0,0,0,1.92l24.75,14.29A3.66,3.66,0,0,0,229.8,427.61Z" style="fill:#E91E63"></path><path d="M229.8,427.61l24.75-14.29a1,1,0,0,0,0-1.92L229.8,397.11a3.66,3.66,0,0,0-3.32,0L201.73,411.4a1,1,0,0,0,0,1.92l24.75,14.29A3.66,3.66,0,0,0,229.8,427.61Z" style="fill:#fff;opacity:0.5"></path><path d="M228.14,396.71a3.34,3.34,0,0,1,1.66.4l24.75,14.29a1,1,0,0,1,0,1.92L229.8,427.61a3.45,3.45,0,0,1-1.66.4Z" style="opacity:0.05"></path><path d="M212.86,410.56h0l10.95-32.9v-.05h0a2.51,2.51,0,0,1,1.19-1.27,6.86,6.86,0,0,1,6.24,0,2.51,2.51,0,0,1,1.19,1.27h0v0h0l10.95,32.9h0c1,2.86-.41,5.95-4.25,8.17-6.09,3.51-16,3.51-22.06,0C213.27,416.51,211.85,413.42,212.86,410.56Z" style="fill:#E91E63"></path><path d="M212.86,410.56h0l10.95-32.9v-.05h0a2.51,2.51,0,0,1,1.19-1.27,6.86,6.86,0,0,1,6.24,0,2.51,2.51,0,0,1,1.19,1.27h0v0h0l10.95,32.9h0c1,2.86-.41,5.95-4.25,8.17-6.09,3.51-16,3.51-22.06,0C213.27,416.51,211.85,413.42,212.86,410.56Z" style="opacity:0.1"></path><path d="M220.67,387.09v0l1.56-4.68a2.28,2.28,0,0,0,.68,2.36,4.84,4.84,0,0,0,1,.74,9.43,9.43,0,0,0,8.5,0,4.84,4.84,0,0,0,1-.74,2.26,2.26,0,0,0,.68-2.37l1.56,4.69v0a2.69,2.69,0,0,1-.34,2.35,5,5,0,0,1-1.75,1.58,9.14,9.14,0,0,1-1.89.78,12.74,12.74,0,0,1-7,0,9.14,9.14,0,0,1-1.89-.78,5,5,0,0,1-1.75-1.58A2.68,2.68,0,0,1,220.67,387.09Z" style="fill:#fafafa"></path><path d="M214.39,405.94v0l1.56-4.68a4.18,4.18,0,0,0-.09,2.35,5.48,5.48,0,0,0,1.32,2.37,9.25,9.25,0,0,0,2.18,1.69c4.84,2.8,12.7,2.8,17.54,0a9.25,9.25,0,0,0,2.18-1.69,5.48,5.48,0,0,0,1.32-2.37,4.18,4.18,0,0,0-.09-2.35l1.55,4.67,0,.05a4.71,4.71,0,0,1,.17,2.35c-.32,1.79-1.66,3.52-4,4.89-5.47,3.15-14.33,3.15-19.8,0-2.37-1.37-3.7-3.1-4-4.89A4.75,4.75,0,0,1,214.39,405.94Z" style="fill:#fafafa"></path><path d="M217.53,396.52v0l1.56-4.68a3.15,3.15,0,0,0,.15,2.35,5.52,5.52,0,0,0,2.31,2.36l.07,0a14.36,14.36,0,0,0,13,0l.07,0a5.52,5.52,0,0,0,2.31-2.36,3.17,3.17,0,0,0,.15-2.36l1.56,4.68v0a3.67,3.67,0,0,1,0,2.36,5.38,5.38,0,0,1-1.72,2.35,8.6,8.6,0,0,1-1.25.87,13.64,13.64,0,0,1-4.15,1.49,18.62,18.62,0,0,1-7,0,13.64,13.64,0,0,1-4.15-1.49,8.6,8.6,0,0,1-1.25-.87,5.38,5.38,0,0,1-1.72-2.35A3.67,3.67,0,0,1,217.53,396.52Z" style="fill:#fafafa"></path><path d="M228.14,375.59a6.34,6.34,0,0,1,3.12.75,2.51,2.51,0,0,1,1.19,1.27h0v0h0l10.95,32.9h0c1,2.86-.41,5.95-4.25,8.17a22.65,22.65,0,0,1-11,2.63h.09a9.26,9.26,0,0,0,7.58-10.46l-4.55-32.75Z" style="opacity:0.1"></path><path d="M231.26,379.94c1.72-1,1.72-2.61,0-3.6a6.86,6.86,0,0,0-6.24,0c-1.72,1-1.72,2.6,0,3.6A6.93,6.93,0,0,0,231.26,379.94Z" style="fill:#E91E63"></path></g></g></svg>