<svg width="419" height="28" viewBox="0 0 419 28" fill="none" xmlns="http://www.w3.org/2000/svg">
<path opacity="0.7" d="M33.737 20V8.534H40.937V10.01H35.447V13.502H40.613V14.978H35.447V18.506H40.937V20H33.737ZM44.5558 20V7.697H46.2658V20H44.5558ZM67.168 20V14.924C67.168 14.174 66.988 13.607 66.628 13.223C66.274 12.833 65.797 12.638 65.197 12.638C64.477 12.638 63.919 12.92 63.523 13.484C63.133 14.048 62.938 14.858 62.938 15.914H62.191C62.191 15.08 62.272 14.36 62.434 13.754C62.596 13.148 62.827 12.65 63.127 12.26C63.433 11.87 63.796 11.582 64.216 11.396C64.642 11.204 65.116 11.108 65.638 11.108C66.334 11.108 66.922 11.264 67.402 11.576C67.888 11.888 68.257 12.332 68.509 12.908C68.761 13.478 68.887 14.15 68.887 14.924V20H67.168ZM55.171 20V11.342H56.656L56.845 12.971C57.121 12.365 57.499 11.903 57.979 11.585C58.465 11.267 59.035 11.108 59.689 11.108C60.385 11.108 60.973 11.264 61.453 11.576C61.939 11.888 62.308 12.332 62.56 12.908C62.812 13.478 62.938 14.15 62.938 14.924V20H61.237V14.924C61.237 14.174 61.057 13.607 60.697 13.223C60.343 12.833 59.863 12.638 59.257 12.638C58.777 12.638 58.357 12.77 57.997 13.034C57.643 13.292 57.367 13.673 57.169 14.177C56.977 14.675 56.881 15.284 56.881 16.004V20H55.171ZM78.0433 20L77.8273 18.011V14.402C77.8273 13.694 77.6803 13.181 77.3863 12.863C77.0923 12.539 76.6273 12.377 75.9913 12.377C75.6313 12.377 75.3103 12.431 75.0283 12.539C74.7523 12.641 74.5333 12.797 74.3713 13.007C74.2153 13.217 74.1373 13.481 74.1373 13.799H72.2473C72.2473 13.163 72.4033 12.647 72.7153 12.251C73.0273 11.855 73.4623 11.567 74.0203 11.387C74.5843 11.201 75.2413 11.108 75.9913 11.108C76.6933 11.108 77.3113 11.225 77.8453 11.459C78.3793 11.687 78.7933 12.047 79.0873 12.539C79.3873 13.031 79.5373 13.667 79.5373 14.447V20H78.0433ZM75.1453 20.234C74.4193 20.234 73.8163 20.108 73.3363 19.856C72.8563 19.598 72.4963 19.262 72.2563 18.848C72.0223 18.434 71.9053 17.993 71.9053 17.525C71.9053 16.955 72.0493 16.487 72.3373 16.121C72.6313 15.749 73.0363 15.473 73.5523 15.293C74.0683 15.113 74.6623 15.023 75.3343 15.023C75.7963 15.023 76.2463 15.065 76.6843 15.149C77.1223 15.233 77.5543 15.344 77.9803 15.482V16.517C77.6323 16.391 77.2453 16.292 76.8193 16.22C76.3993 16.142 76.0063 16.103 75.6403 16.103C75.0943 16.103 74.6383 16.211 74.2723 16.427C73.9063 16.643 73.7233 17.009 73.7233 17.525C73.7233 17.903 73.8673 18.23 74.1553 18.506C74.4433 18.776 74.8993 18.911 75.5233 18.911C75.9793 18.911 76.3813 18.809 76.7293 18.605C77.0773 18.395 77.3473 18.134 77.5393 17.822C77.7313 17.51 77.8273 17.198 77.8273 16.886H78.2413C78.2413 17.486 78.1183 18.041 77.8723 18.551C77.6323 19.055 77.2813 19.463 76.8193 19.775C76.3573 20.081 75.7993 20.234 75.1453 20.234ZM83.2941 20V11.315H85.0041V20H83.2941ZM84.5361 16.13C84.5361 15.02 84.6501 14.099 84.8781 13.367C85.1121 12.629 85.4361 12.08 85.8501 11.72C86.2701 11.36 86.7621 11.18 87.3261 11.18C87.4941 11.18 87.6501 11.192 87.7941 11.216C87.9441 11.24 88.0911 11.273 88.2351 11.315L88.1721 13.016C88.0101 12.974 87.8331 12.938 87.6411 12.908C87.4551 12.872 87.2841 12.854 87.1281 12.854C86.6361 12.854 86.2341 12.986 85.9221 13.25C85.6101 13.508 85.3791 13.883 85.2291 14.375C85.0791 14.861 85.0041 15.446 85.0041 16.13H84.5361ZM90.5265 20V7.697H92.2365V20H90.5265ZM91.9935 14.861L96.1065 11.342H98.4555L91.9935 16.652V14.861ZM96.5745 20L92.5605 14.51L94.2345 14.159L98.6625 20H96.5745ZM104.485 20.234C103.741 20.234 103.069 20.042 102.469 19.658C101.869 19.274 101.392 18.74 101.038 18.056C100.69 17.372 100.516 16.58 100.516 15.68C100.516 14.726 100.69 13.91 101.038 13.232C101.386 12.548 101.86 12.023 102.46 11.657C103.06 11.291 103.735 11.108 104.485 11.108C105.157 11.108 105.733 11.246 106.213 11.522C106.693 11.792 107.08 12.158 107.374 12.62C107.668 13.076 107.869 13.595 107.977 14.177C108.091 14.759 108.112 15.359 108.04 15.977H101.884V14.987H106.87L106.456 15.257C106.474 14.933 106.456 14.609 106.402 14.285C106.354 13.961 106.258 13.664 106.114 13.394C105.97 13.118 105.766 12.899 105.502 12.737C105.244 12.569 104.914 12.485 104.512 12.485C104.008 12.485 103.585 12.611 103.243 12.863C102.907 13.115 102.652 13.454 102.478 13.88C102.304 14.3 102.217 14.762 102.217 15.266V15.959C102.217 16.517 102.301 17.012 102.469 17.444C102.637 17.876 102.886 18.218 103.216 18.47C103.552 18.716 103.975 18.839 104.485 18.839C104.983 18.839 105.394 18.722 105.718 18.488C106.048 18.254 106.252 17.903 106.33 17.435H108.076C107.986 17.999 107.779 18.491 107.455 18.911C107.131 19.331 106.714 19.658 106.204 19.892C105.7 20.12 105.127 20.234 104.485 20.234ZM114.03 20.234C113.538 20.234 113.094 20.141 112.698 19.955C112.302 19.769 111.987 19.49 111.753 19.118C111.525 18.74 111.411 18.266 111.411 17.696V8.984H113.112V17.642C113.112 18.458 113.493 18.866 114.255 18.866C114.489 18.866 114.717 18.842 114.939 18.794C115.161 18.74 115.413 18.662 115.695 18.56L115.938 19.775C115.62 19.907 115.305 20.015 114.993 20.099C114.687 20.189 114.366 20.234 114.03 20.234ZM110.088 12.503V11.342H115.677V12.503H110.088ZM122.761 20.234C122.131 20.234 121.585 20.093 121.123 19.811C120.661 19.523 120.307 19.103 120.061 18.551C119.821 17.993 119.701 17.303 119.701 16.481H120.367C120.367 16.955 120.469 17.357 120.673 17.687C120.877 18.011 121.144 18.26 121.474 18.434C121.81 18.602 122.167 18.686 122.545 18.686C122.941 18.686 123.325 18.575 123.697 18.353C124.075 18.125 124.384 17.786 124.624 17.336C124.864 16.886 124.984 16.328 124.984 15.662C124.984 15.026 124.876 14.483 124.66 14.033C124.45 13.583 124.162 13.238 123.796 12.998C123.43 12.758 123.019 12.638 122.563 12.638C122.179 12.638 121.819 12.731 121.483 12.917C121.147 13.097 120.877 13.364 120.673 13.718C120.469 14.066 120.367 14.492 120.367 14.996H119.701C119.701 14.126 119.839 13.403 120.115 12.827C120.397 12.251 120.775 11.822 121.249 11.54C121.723 11.252 122.248 11.108 122.824 11.108C123.502 11.108 124.138 11.291 124.732 11.657C125.326 12.017 125.806 12.536 126.172 13.214C126.544 13.892 126.73 14.708 126.73 15.662C126.73 16.616 126.544 17.435 126.172 18.119C125.8 18.803 125.311 19.328 124.705 19.694C124.105 20.054 123.457 20.234 122.761 20.234ZM118.657 24.248V11.342H120.07L120.367 13.421V24.248H118.657ZM129.88 20V7.697H131.59V20H129.88ZM141.028 20L140.812 18.011V14.402C140.812 13.694 140.665 13.181 140.371 12.863C140.077 12.539 139.612 12.377 138.976 12.377C138.616 12.377 138.295 12.431 138.013 12.539C137.737 12.641 137.518 12.797 137.356 13.007C137.2 13.217 137.122 13.481 137.122 13.799H135.232C135.232 13.163 135.388 12.647 135.7 12.251C136.012 11.855 136.447 11.567 137.005 11.387C137.569 11.201 138.226 11.108 138.976 11.108C139.678 11.108 140.296 11.225 140.83 11.459C141.364 11.687 141.778 12.047 142.072 12.539C142.372 13.031 142.522 13.667 142.522 14.447V20H141.028ZM138.13 20.234C137.404 20.234 136.801 20.108 136.321 19.856C135.841 19.598 135.481 19.262 135.241 18.848C135.007 18.434 134.89 17.993 134.89 17.525C134.89 16.955 135.034 16.487 135.322 16.121C135.616 15.749 136.021 15.473 136.537 15.293C137.053 15.113 137.647 15.023 138.319 15.023C138.781 15.023 139.231 15.065 139.669 15.149C140.107 15.233 140.539 15.344 140.965 15.482V16.517C140.617 16.391 140.23 16.292 139.804 16.22C139.384 16.142 138.991 16.103 138.625 16.103C138.079 16.103 137.623 16.211 137.257 16.427C136.891 16.643 136.708 17.009 136.708 17.525C136.708 17.903 136.852 18.23 137.14 18.506C137.428 18.776 137.884 18.911 138.508 18.911C138.964 18.911 139.366 18.809 139.714 18.605C140.062 18.395 140.332 18.134 140.524 17.822C140.716 17.51 140.812 17.198 140.812 16.886H141.226C141.226 17.486 141.103 18.041 140.857 18.551C140.617 19.055 140.266 19.463 139.804 19.775C139.342 20.081 138.784 20.234 138.13 20.234ZM149.428 20.234C148.72 20.234 148.06 20.045 147.448 19.667C146.836 19.289 146.344 18.758 145.972 18.074C145.6 17.39 145.414 16.586 145.414 15.662C145.414 14.69 145.6 13.868 145.972 13.196C146.344 12.518 146.836 12.002 147.448 11.648C148.06 11.288 148.72 11.108 149.428 11.108C149.95 11.108 150.415 11.192 150.823 11.36C151.231 11.522 151.582 11.744 151.876 12.026C152.17 12.302 152.407 12.614 152.587 12.962C152.773 13.31 152.902 13.67 152.974 14.042L151.237 14.132C151.111 13.682 150.889 13.322 150.571 13.052C150.259 12.776 149.872 12.638 149.41 12.638C149.02 12.638 148.651 12.749 148.303 12.971C147.961 13.187 147.682 13.52 147.466 13.97C147.256 14.414 147.151 14.978 147.151 15.662C147.151 16.298 147.25 16.841 147.448 17.291C147.646 17.741 147.916 18.086 148.258 18.326C148.6 18.566 148.984 18.686 149.41 18.686C150.022 18.686 150.478 18.539 150.778 18.245C151.084 17.945 151.237 17.534 151.237 17.012H152.974C152.974 17.618 152.833 18.164 152.551 18.65C152.269 19.136 151.861 19.523 151.327 19.811C150.799 20.093 150.166 20.234 149.428 20.234ZM159.27 20.234C158.526 20.234 157.854 20.042 157.254 19.658C156.654 19.274 156.177 18.74 155.823 18.056C155.475 17.372 155.301 16.58 155.301 15.68C155.301 14.726 155.475 13.91 155.823 13.232C156.171 12.548 156.645 12.023 157.245 11.657C157.845 11.291 158.52 11.108 159.27 11.108C159.942 11.108 160.518 11.246 160.998 11.522C161.478 11.792 161.865 12.158 162.159 12.62C162.453 13.076 162.654 13.595 162.762 14.177C162.876 14.759 162.897 15.359 162.825 15.977H156.669V14.987H161.655L161.241 15.257C161.259 14.933 161.241 14.609 161.187 14.285C161.139 13.961 161.043 13.664 160.899 13.394C160.755 13.118 160.551 12.899 160.287 12.737C160.029 12.569 159.699 12.485 159.297 12.485C158.793 12.485 158.37 12.611 158.028 12.863C157.692 13.115 157.437 13.454 157.263 13.88C157.089 14.3 157.002 14.762 157.002 15.266V15.959C157.002 16.517 157.086 17.012 157.254 17.444C157.422 17.876 157.671 18.218 158.001 18.47C158.337 18.716 158.76 18.839 159.27 18.839C159.768 18.839 160.179 18.722 160.503 18.488C160.833 18.254 161.037 17.903 161.115 17.435H162.861C162.771 17.999 162.564 18.491 162.24 18.911C161.916 19.331 161.499 19.658 160.989 19.892C160.485 20.12 159.912 20.234 159.27 20.234ZM174.07 20.234C173.362 20.234 172.711 20.045 172.117 19.667C171.523 19.283 171.049 18.749 170.695 18.065C170.347 17.375 170.173 16.565 170.173 15.635C170.173 14.711 170.344 13.91 170.686 13.232C171.034 12.554 171.493 12.032 172.063 11.666C172.633 11.294 173.266 11.108 173.962 11.108C174.598 11.108 175.153 11.264 175.627 11.576C176.101 11.882 176.467 12.329 176.725 12.917C176.989 13.505 177.121 14.222 177.121 15.068H176.527C176.527 14.546 176.422 14.105 176.212 13.745C176.002 13.379 175.729 13.103 175.393 12.917C175.057 12.731 174.697 12.638 174.313 12.638C173.863 12.638 173.455 12.761 173.089 13.007C172.729 13.247 172.441 13.592 172.225 14.042C172.015 14.486 171.91 15.017 171.91 15.635C171.91 16.259 172.015 16.802 172.225 17.264C172.441 17.72 172.729 18.071 173.089 18.317C173.455 18.563 173.86 18.686 174.304 18.686C174.67 18.686 175.021 18.59 175.357 18.398C175.699 18.2 175.978 17.918 176.194 17.552C176.416 17.186 176.527 16.751 176.527 16.247H177.121C177.121 17.111 176.983 17.84 176.707 18.434C176.437 19.028 176.071 19.478 175.609 19.784C175.147 20.084 174.634 20.234 174.07 20.234ZM176.824 20L176.527 17.921V7.697H178.246V20H176.824ZM185.362 20.234C184.618 20.234 183.946 20.042 183.346 19.658C182.746 19.274 182.269 18.74 181.915 18.056C181.567 17.372 181.393 16.58 181.393 15.68C181.393 14.726 181.567 13.91 181.915 13.232C182.263 12.548 182.737 12.023 183.337 11.657C183.937 11.291 184.612 11.108 185.362 11.108C186.034 11.108 186.61 11.246 187.09 11.522C187.57 11.792 187.957 12.158 188.251 12.62C188.545 13.076 188.746 13.595 188.854 14.177C188.968 14.759 188.989 15.359 188.917 15.977H182.761V14.987H187.747L187.333 15.257C187.351 14.933 187.333 14.609 187.279 14.285C187.231 13.961 187.135 13.664 186.991 13.394C186.847 13.118 186.643 12.899 186.379 12.737C186.121 12.569 185.791 12.485 185.389 12.485C184.885 12.485 184.462 12.611 184.12 12.863C183.784 13.115 183.529 13.454 183.355 13.88C183.181 14.3 183.094 14.762 183.094 15.266V15.959C183.094 16.517 183.178 17.012 183.346 17.444C183.514 17.876 183.763 18.218 184.093 18.47C184.429 18.716 184.852 18.839 185.362 18.839C185.86 18.839 186.271 18.722 186.595 18.488C186.925 18.254 187.129 17.903 187.207 17.435H188.953C188.863 17.999 188.656 18.491 188.332 18.911C188.008 19.331 187.591 19.658 187.081 19.892C186.577 20.12 186.004 20.234 185.362 20.234ZM202.448 20L202.232 18.011V14.402C202.232 13.694 202.085 13.181 201.791 12.863C201.497 12.539 201.032 12.377 200.396 12.377C200.036 12.377 199.715 12.431 199.433 12.539C199.157 12.641 198.938 12.797 198.776 13.007C198.62 13.217 198.542 13.481 198.542 13.799H196.652C196.652 13.163 196.808 12.647 197.12 12.251C197.432 11.855 197.867 11.567 198.425 11.387C198.989 11.201 199.646 11.108 200.396 11.108C201.098 11.108 201.716 11.225 202.25 11.459C202.784 11.687 203.198 12.047 203.492 12.539C203.792 13.031 203.942 13.667 203.942 14.447V20H202.448ZM199.55 20.234C198.824 20.234 198.221 20.108 197.741 19.856C197.261 19.598 196.901 19.262 196.661 18.848C196.427 18.434 196.31 17.993 196.31 17.525C196.31 16.955 196.454 16.487 196.742 16.121C197.036 15.749 197.441 15.473 197.957 15.293C198.473 15.113 199.067 15.023 199.739 15.023C200.201 15.023 200.651 15.065 201.089 15.149C201.527 15.233 201.959 15.344 202.385 15.482V16.517C202.037 16.391 201.65 16.292 201.224 16.22C200.804 16.142 200.411 16.103 200.045 16.103C199.499 16.103 199.043 16.211 198.677 16.427C198.311 16.643 198.128 17.009 198.128 17.525C198.128 17.903 198.272 18.23 198.56 18.506C198.848 18.776 199.304 18.911 199.928 18.911C200.384 18.911 200.786 18.809 201.134 18.605C201.482 18.395 201.752 18.134 201.944 17.822C202.136 17.51 202.232 17.198 202.232 16.886H202.646C202.646 17.486 202.523 18.041 202.277 18.551C202.037 19.055 201.686 19.463 201.224 19.775C200.762 20.081 200.204 20.234 199.55 20.234ZM207.698 20V11.315H209.408V20H207.698ZM208.94 16.13C208.94 15.02 209.054 14.099 209.282 13.367C209.516 12.629 209.84 12.08 210.254 11.72C210.674 11.36 211.166 11.18 211.73 11.18C211.898 11.18 212.054 11.192 212.198 11.216C212.348 11.24 212.495 11.273 212.639 11.315L212.576 13.016C212.414 12.974 212.237 12.938 212.045 12.908C211.859 12.872 211.688 12.854 211.532 12.854C211.04 12.854 210.638 12.986 210.326 13.25C210.014 13.508 209.783 13.883 209.633 14.375C209.483 14.861 209.408 15.446 209.408 16.13H208.94ZM217.712 20.234C217.22 20.234 216.776 20.141 216.38 19.955C215.984 19.769 215.669 19.49 215.435 19.118C215.207 18.74 215.093 18.266 215.093 17.696V8.984H216.794V17.642C216.794 18.458 217.175 18.866 217.937 18.866C218.171 18.866 218.399 18.842 218.621 18.794C218.843 18.74 219.095 18.662 219.377 18.56L219.62 19.775C219.302 19.907 218.987 20.015 218.675 20.099C218.369 20.189 218.048 20.234 217.712 20.234ZM213.77 12.503V11.342H219.359V12.503H213.77ZM225.444 20.234C224.7 20.234 224.028 20.042 223.428 19.658C222.828 19.274 222.351 18.74 221.997 18.056C221.649 17.372 221.475 16.58 221.475 15.68C221.475 14.726 221.649 13.91 221.997 13.232C222.345 12.548 222.819 12.023 223.419 11.657C224.019 11.291 224.694 11.108 225.444 11.108C226.116 11.108 226.692 11.246 227.172 11.522C227.652 11.792 228.039 12.158 228.333 12.62C228.627 13.076 228.828 13.595 228.936 14.177C229.05 14.759 229.071 15.359 228.999 15.977H222.843V14.987H227.829L227.415 15.257C227.433 14.933 227.415 14.609 227.361 14.285C227.313 13.961 227.217 13.664 227.073 13.394C226.929 13.118 226.725 12.899 226.461 12.737C226.203 12.569 225.873 12.485 225.471 12.485C224.967 12.485 224.544 12.611 224.202 12.863C223.866 13.115 223.611 13.454 223.437 13.88C223.263 14.3 223.176 14.762 223.176 15.266V15.959C223.176 16.517 223.26 17.012 223.428 17.444C223.596 17.876 223.845 18.218 224.175 18.47C224.511 18.716 224.934 18.839 225.444 18.839C225.942 18.839 226.353 18.722 226.677 18.488C227.007 18.254 227.211 17.903 227.289 17.435H229.035C228.945 17.999 228.738 18.491 228.414 18.911C228.09 19.331 227.673 19.658 227.163 19.892C226.659 20.12 226.086 20.234 225.444 20.234ZM235.376 20.234C234.536 20.234 233.828 20.117 233.252 19.883C232.676 19.643 232.235 19.313 231.929 18.893C231.629 18.467 231.473 17.969 231.461 17.399H233.072C233.096 17.897 233.294 18.266 233.666 18.506C234.044 18.746 234.554 18.866 235.196 18.866C235.538 18.866 235.847 18.812 236.123 18.704C236.405 18.596 236.627 18.449 236.789 18.263C236.957 18.077 237.041 17.867 237.041 17.633C237.041 17.339 236.933 17.108 236.717 16.94C236.501 16.766 236.153 16.613 235.673 16.481L233.9 15.878C233.192 15.638 232.649 15.32 232.271 14.924C231.893 14.522 231.704 14.042 231.704 13.484C231.704 12.77 232.022 12.197 232.658 11.765C233.294 11.327 234.137 11.108 235.187 11.108C236.273 11.108 237.11 11.339 237.698 11.801C238.292 12.257 238.601 12.83 238.625 13.52H236.978C236.936 13.178 236.765 12.917 236.465 12.737C236.171 12.551 235.745 12.458 235.187 12.458C234.665 12.458 234.254 12.572 233.954 12.8C233.66 13.028 233.513 13.286 233.513 13.574C233.513 14.09 233.957 14.474 234.845 14.726L236.708 15.383C237.416 15.611 237.962 15.905 238.346 16.265C238.73 16.625 238.922 17.081 238.922 17.633C238.922 18.077 238.775 18.497 238.481 18.893C238.187 19.289 237.773 19.613 237.239 19.865C236.711 20.111 236.09 20.234 235.376 20.234ZM247.61 20L247.394 18.011V14.402C247.394 13.694 247.247 13.181 246.953 12.863C246.659 12.539 246.194 12.377 245.558 12.377C245.198 12.377 244.877 12.431 244.595 12.539C244.319 12.641 244.1 12.797 243.938 13.007C243.782 13.217 243.704 13.481 243.704 13.799H241.814C241.814 13.163 241.97 12.647 242.282 12.251C242.594 11.855 243.029 11.567 243.587 11.387C244.151 11.201 244.808 11.108 245.558 11.108C246.26 11.108 246.878 11.225 247.412 11.459C247.946 11.687 248.36 12.047 248.654 12.539C248.954 13.031 249.104 13.667 249.104 14.447V20H247.61ZM244.712 20.234C243.986 20.234 243.383 20.108 242.903 19.856C242.423 19.598 242.063 19.262 241.823 18.848C241.589 18.434 241.472 17.993 241.472 17.525C241.472 16.955 241.616 16.487 241.904 16.121C242.198 15.749 242.603 15.473 243.119 15.293C243.635 15.113 244.229 15.023 244.901 15.023C245.363 15.023 245.813 15.065 246.251 15.149C246.689 15.233 247.121 15.344 247.547 15.482V16.517C247.199 16.391 246.812 16.292 246.386 16.22C245.966 16.142 245.573 16.103 245.207 16.103C244.661 16.103 244.205 16.211 243.839 16.427C243.473 16.643 243.29 17.009 243.29 17.525C243.29 17.903 243.434 18.23 243.722 18.506C244.01 18.776 244.466 18.911 245.09 18.911C245.546 18.911 245.948 18.809 246.296 18.605C246.644 18.395 246.914 18.134 247.106 17.822C247.298 17.51 247.394 17.198 247.394 16.886H247.808C247.808 17.486 247.685 18.041 247.439 18.551C247.199 19.055 246.848 19.463 246.386 19.775C245.924 20.081 245.366 20.234 244.712 20.234ZM258.926 20V14.924C258.926 14.174 258.746 13.607 258.386 13.223C258.032 12.833 257.552 12.638 256.946 12.638C256.466 12.638 256.046 12.77 255.686 13.034C255.332 13.292 255.056 13.673 254.858 14.177C254.666 14.675 254.57 15.284 254.57 16.004H253.958C253.958 14.942 254.093 14.048 254.363 13.322C254.639 12.596 255.032 12.047 255.542 11.675C256.052 11.297 256.664 11.108 257.378 11.108C258.074 11.108 258.662 11.264 259.142 11.576C259.628 11.888 259.997 12.332 260.249 12.908C260.501 13.478 260.627 14.15 260.627 14.924V20H258.926ZM252.86 20V11.342H254.345L254.57 13.214V20H252.86ZM264.517 20V11.315H266.227V20H264.517ZM264.814 9.956L263.977 9.272L267.145 6.032L268.306 6.977L264.814 9.956ZM275.899 20L275.683 18.011V14.402C275.683 13.694 275.536 13.181 275.242 12.863C274.948 12.539 274.483 12.377 273.847 12.377C273.487 12.377 273.166 12.431 272.884 12.539C272.608 12.641 272.389 12.797 272.227 13.007C272.071 13.217 271.993 13.481 271.993 13.799H270.103C270.103 13.163 270.259 12.647 270.571 12.251C270.883 11.855 271.318 11.567 271.876 11.387C272.44 11.201 273.097 11.108 273.847 11.108C274.549 11.108 275.167 11.225 275.701 11.459C276.235 11.687 276.649 12.047 276.943 12.539C277.243 13.031 277.393 13.667 277.393 14.447V20H275.899ZM273.001 20.234C272.275 20.234 271.672 20.108 271.192 19.856C270.712 19.598 270.352 19.262 270.112 18.848C269.878 18.434 269.761 17.993 269.761 17.525C269.761 16.955 269.905 16.487 270.193 16.121C270.487 15.749 270.892 15.473 271.408 15.293C271.924 15.113 272.518 15.023 273.19 15.023C273.652 15.023 274.102 15.065 274.54 15.149C274.978 15.233 275.41 15.344 275.836 15.482V16.517C275.488 16.391 275.101 16.292 274.675 16.22C274.255 16.142 273.862 16.103 273.496 16.103C272.95 16.103 272.494 16.211 272.128 16.427C271.762 16.643 271.579 17.009 271.579 17.525C271.579 17.903 271.723 18.23 272.011 18.506C272.299 18.776 272.755 18.911 273.379 18.911C273.835 18.911 274.237 18.809 274.585 18.605C274.933 18.395 275.203 18.134 275.395 17.822C275.587 17.51 275.683 17.198 275.683 16.886H276.097C276.097 17.486 275.974 18.041 275.728 18.551C275.488 19.055 275.137 19.463 274.675 19.775C274.213 20.081 273.655 20.234 273.001 20.234ZM284.318 20.234C283.478 20.234 282.77 20.117 282.194 19.883C281.618 19.643 281.177 19.313 280.871 18.893C280.571 18.467 280.415 17.969 280.403 17.399H282.014C282.038 17.897 282.236 18.266 282.608 18.506C282.986 18.746 283.496 18.866 284.138 18.866C284.48 18.866 284.789 18.812 285.065 18.704C285.347 18.596 285.569 18.449 285.731 18.263C285.899 18.077 285.983 17.867 285.983 17.633C285.983 17.339 285.875 17.108 285.659 16.94C285.443 16.766 285.095 16.613 284.615 16.481L282.842 15.878C282.134 15.638 281.591 15.32 281.213 14.924C280.835 14.522 280.646 14.042 280.646 13.484C280.646 12.77 280.964 12.197 281.6 11.765C282.236 11.327 283.079 11.108 284.129 11.108C285.215 11.108 286.052 11.339 286.64 11.801C287.234 12.257 287.543 12.83 287.567 13.52H285.92C285.878 13.178 285.707 12.917 285.407 12.737C285.113 12.551 284.687 12.458 284.129 12.458C283.607 12.458 283.196 12.572 282.896 12.8C282.602 13.028 282.455 13.286 282.455 13.574C282.455 14.09 282.899 14.474 283.787 14.726L285.65 15.383C286.358 15.611 286.904 15.905 287.288 16.265C287.672 16.625 287.864 17.081 287.864 17.633C287.864 18.077 287.717 18.497 287.423 18.893C287.129 19.289 286.715 19.613 286.181 19.865C285.653 20.111 285.032 20.234 284.318 20.234ZM308.016 20V14.924C308.016 14.174 307.836 13.607 307.476 13.223C307.122 12.833 306.645 12.638 306.045 12.638C305.325 12.638 304.767 12.92 304.371 13.484C303.981 14.048 303.786 14.858 303.786 15.914H303.039C303.039 15.08 303.12 14.36 303.282 13.754C303.444 13.148 303.675 12.65 303.975 12.26C304.281 11.87 304.644 11.582 305.064 11.396C305.49 11.204 305.964 11.108 306.486 11.108C307.182 11.108 307.77 11.264 308.25 11.576C308.736 11.888 309.105 12.332 309.357 12.908C309.609 13.478 309.735 14.15 309.735 14.924V20H308.016ZM296.019 20V11.342H297.504L297.693 12.971C297.969 12.365 298.347 11.903 298.827 11.585C299.313 11.267 299.883 11.108 300.537 11.108C301.233 11.108 301.821 11.264 302.301 11.576C302.787 11.888 303.156 12.332 303.408 12.908C303.66 13.478 303.786 14.15 303.786 14.924V20H302.085V14.924C302.085 14.174 301.905 13.607 301.545 13.223C301.191 12.833 300.711 12.638 300.105 12.638C299.625 12.638 299.205 12.77 298.845 13.034C298.491 13.292 298.215 13.673 298.017 14.177C297.825 14.675 297.729 15.284 297.729 16.004V20H296.019ZM318.891 20L318.675 18.011V14.402C318.675 13.694 318.528 13.181 318.234 12.863C317.94 12.539 317.475 12.377 316.839 12.377C316.479 12.377 316.158 12.431 315.876 12.539C315.6 12.641 315.381 12.797 315.219 13.007C315.063 13.217 314.985 13.481 314.985 13.799H313.095C313.095 13.163 313.251 12.647 313.563 12.251C313.875 11.855 314.31 11.567 314.868 11.387C315.432 11.201 316.089 11.108 316.839 11.108C317.541 11.108 318.159 11.225 318.693 11.459C319.227 11.687 319.641 12.047 319.935 12.539C320.235 13.031 320.385 13.667 320.385 14.447V20H318.891ZM315.993 20.234C315.267 20.234 314.664 20.108 314.184 19.856C313.704 19.598 313.344 19.262 313.104 18.848C312.87 18.434 312.753 17.993 312.753 17.525C312.753 16.955 312.897 16.487 313.185 16.121C313.479 15.749 313.884 15.473 314.4 15.293C314.916 15.113 315.51 15.023 316.182 15.023C316.644 15.023 317.094 15.065 317.532 15.149C317.97 15.233 318.402 15.344 318.828 15.482V16.517C318.48 16.391 318.093 16.292 317.667 16.22C317.247 16.142 316.854 16.103 316.488 16.103C315.942 16.103 315.486 16.211 315.12 16.427C314.754 16.643 314.571 17.009 314.571 17.525C314.571 17.903 314.715 18.23 315.003 18.506C315.291 18.776 315.747 18.911 316.371 18.911C316.827 18.911 317.229 18.809 317.577 18.605C317.925 18.395 318.195 18.134 318.387 17.822C318.579 17.51 318.675 17.198 318.675 16.886H319.089C319.089 17.486 318.966 18.041 318.72 18.551C318.48 19.055 318.129 19.463 317.667 19.775C317.205 20.081 316.647 20.234 315.993 20.234ZM316.245 9.956L315.408 9.272L318.576 6.032L319.737 6.977L316.245 9.956ZM327.31 20.234C326.47 20.234 325.762 20.117 325.186 19.883C324.61 19.643 324.169 19.313 323.863 18.893C323.563 18.467 323.407 17.969 323.395 17.399H325.006C325.03 17.897 325.228 18.266 325.6 18.506C325.978 18.746 326.488 18.866 327.13 18.866C327.472 18.866 327.781 18.812 328.057 18.704C328.339 18.596 328.561 18.449 328.723 18.263C328.891 18.077 328.975 17.867 328.975 17.633C328.975 17.339 328.867 17.108 328.651 16.94C328.435 16.766 328.087 16.613 327.607 16.481L325.834 15.878C325.126 15.638 324.583 15.32 324.205 14.924C323.827 14.522 323.638 14.042 323.638 13.484C323.638 12.77 323.956 12.197 324.592 11.765C325.228 11.327 326.071 11.108 327.121 11.108C328.207 11.108 329.044 11.339 329.632 11.801C330.226 12.257 330.535 12.83 330.559 13.52H328.912C328.87 13.178 328.699 12.917 328.399 12.737C328.105 12.551 327.679 12.458 327.121 12.458C326.599 12.458 326.188 12.572 325.888 12.8C325.594 13.028 325.447 13.286 325.447 13.574C325.447 14.09 325.891 14.474 326.779 14.726L328.642 15.383C329.35 15.611 329.896 15.905 330.28 16.265C330.664 16.625 330.856 17.081 330.856 17.633C330.856 18.077 330.709 18.497 330.415 18.893C330.121 19.289 329.707 19.613 329.173 19.865C328.645 20.111 328.024 20.234 327.31 20.234ZM342.161 20.234C341.453 20.234 340.793 20.045 340.181 19.667C339.569 19.289 339.077 18.758 338.705 18.074C338.333 17.39 338.147 16.586 338.147 15.662C338.147 14.69 338.333 13.868 338.705 13.196C339.077 12.518 339.569 12.002 340.181 11.648C340.793 11.288 341.453 11.108 342.161 11.108C342.683 11.108 343.148 11.192 343.556 11.36C343.964 11.522 344.315 11.744 344.609 12.026C344.903 12.302 345.14 12.614 345.32 12.962C345.506 13.31 345.635 13.67 345.707 14.042L343.97 14.132C343.844 13.682 343.622 13.322 343.304 13.052C342.992 12.776 342.605 12.638 342.143 12.638C341.753 12.638 341.384 12.749 341.036 12.971C340.694 13.187 340.415 13.52 340.199 13.97C339.989 14.414 339.884 14.978 339.884 15.662C339.884 16.298 339.983 16.841 340.181 17.291C340.379 17.741 340.649 18.086 340.991 18.326C341.333 18.566 341.717 18.686 342.143 18.686C342.755 18.686 343.211 18.539 343.511 18.245C343.817 17.945 343.97 17.534 343.97 17.012H345.707C345.707 17.618 345.566 18.164 345.284 18.65C345.002 19.136 344.594 19.523 344.06 19.811C343.532 20.093 342.899 20.234 342.161 20.234ZM352.156 20.234C351.37 20.234 350.665 20.063 350.041 19.721C349.423 19.379 348.934 18.869 348.574 18.191C348.214 17.513 348.034 16.676 348.034 15.68C348.034 14.666 348.214 13.823 348.574 13.151C348.934 12.473 349.423 11.963 350.041 11.621C350.665 11.279 351.37 11.108 352.156 11.108C352.93 11.108 353.626 11.279 354.244 11.621C354.862 11.963 355.348 12.473 355.702 13.151C356.062 13.823 356.242 14.666 356.242 15.68C356.242 16.676 356.062 17.513 355.702 18.191C355.348 18.869 354.862 19.379 354.244 19.721C353.626 20.063 352.93 20.234 352.156 20.234ZM352.102 18.74C352.6 18.74 353.029 18.62 353.389 18.38C353.755 18.14 354.034 17.792 354.226 17.336C354.424 16.874 354.523 16.322 354.523 15.68C354.523 14.696 354.322 13.934 353.92 13.394C353.524 12.854 352.951 12.584 352.201 12.584C351.697 12.584 351.262 12.707 350.896 12.953C350.536 13.193 350.257 13.544 350.059 14.006C349.867 14.462 349.771 15.02 349.771 15.68C349.771 16.646 349.972 17.399 350.374 17.939C350.776 18.473 351.352 18.74 352.102 18.74ZM365.448 20V14.924C365.448 14.174 365.268 13.607 364.908 13.223C364.554 12.833 364.074 12.638 363.468 12.638C362.988 12.638 362.568 12.77 362.208 13.034C361.854 13.292 361.578 13.673 361.38 14.177C361.188 14.675 361.092 15.284 361.092 16.004H360.48C360.48 14.942 360.615 14.048 360.885 13.322C361.161 12.596 361.554 12.047 362.064 11.675C362.574 11.297 363.186 11.108 363.9 11.108C364.596 11.108 365.184 11.264 365.664 11.576C366.15 11.888 366.519 12.332 366.771 12.908C367.023 13.478 367.149 14.15 367.149 14.924V20H365.448ZM359.382 20V11.342H360.867L361.092 13.214V20H359.382ZM371.389 20V10.127C371.389 9.527 371.503 9.041 371.731 8.669C371.965 8.291 372.274 8.012 372.658 7.832C373.042 7.652 373.465 7.562 373.927 7.562C374.191 7.562 374.461 7.58 374.737 7.616C375.019 7.652 375.295 7.706 375.565 7.778L375.241 9.11C375.073 9.05 374.902 9.002 374.728 8.966C374.56 8.93 374.398 8.912 374.242 8.912C374.056 8.912 373.876 8.948 373.702 9.02C373.528 9.086 373.384 9.209 373.27 9.389C373.162 9.569 373.108 9.824 373.108 10.154V20H371.389ZM370.03 12.503V11.342H374.809V12.503H370.03ZM378.247 9.497C377.905 9.497 377.635 9.404 377.437 9.218C377.245 9.026 377.149 8.768 377.149 8.444C377.149 8.132 377.245 7.886 377.437 7.706C377.635 7.52 377.905 7.427 378.247 7.427C378.583 7.427 378.847 7.52 379.039 7.706C379.237 7.886 379.336 8.132 379.336 8.444C379.336 8.768 379.237 9.026 379.039 9.218C378.847 9.404 378.583 9.497 378.247 9.497ZM377.392 20V11.315H379.102V20H377.392ZM388.784 20L388.568 18.011V14.402C388.568 13.694 388.421 13.181 388.127 12.863C387.833 12.539 387.368 12.377 386.732 12.377C386.372 12.377 386.051 12.431 385.769 12.539C385.493 12.641 385.274 12.797 385.112 13.007C384.956 13.217 384.878 13.481 384.878 13.799H382.988C382.988 13.163 383.144 12.647 383.456 12.251C383.768 11.855 384.203 11.567 384.761 11.387C385.325 11.201 385.982 11.108 386.732 11.108C387.434 11.108 388.052 11.225 388.586 11.459C389.12 11.687 389.534 12.047 389.828 12.539C390.128 13.031 390.278 13.667 390.278 14.447V20H388.784ZM385.886 20.234C385.16 20.234 384.557 20.108 384.077 19.856C383.597 19.598 383.237 19.262 382.997 18.848C382.763 18.434 382.646 17.993 382.646 17.525C382.646 16.955 382.79 16.487 383.078 16.121C383.372 15.749 383.777 15.473 384.293 15.293C384.809 15.113 385.403 15.023 386.075 15.023C386.537 15.023 386.987 15.065 387.425 15.149C387.863 15.233 388.295 15.344 388.721 15.482V16.517C388.373 16.391 387.986 16.292 387.56 16.22C387.14 16.142 386.747 16.103 386.381 16.103C385.835 16.103 385.379 16.211 385.013 16.427C384.647 16.643 384.464 17.009 384.464 17.525C384.464 17.903 384.608 18.23 384.896 18.506C385.184 18.776 385.64 18.911 386.264 18.911C386.72 18.911 387.122 18.809 387.47 18.605C387.818 18.395 388.088 18.134 388.28 17.822C388.472 17.51 388.568 17.198 388.568 16.886H388.982C388.982 17.486 388.859 18.041 388.613 18.551C388.373 19.055 388.022 19.463 387.56 19.775C387.098 20.081 386.54 20.234 385.886 20.234ZM398.201 20.234C397.637 20.234 397.124 20.084 396.662 19.784C396.206 19.478 395.84 19.028 395.564 18.434C395.294 17.84 395.159 17.111 395.159 16.247H395.744C395.744 16.751 395.852 17.186 396.068 17.552C396.29 17.918 396.572 18.2 396.914 18.398C397.256 18.59 397.613 18.686 397.985 18.686C398.429 18.686 398.828 18.563 399.182 18.317C399.542 18.071 399.827 17.72 400.037 17.264C400.253 16.802 400.361 16.259 400.361 15.635C400.361 15.017 400.256 14.486 400.046 14.042C399.836 13.592 399.551 13.247 399.191 13.007C398.831 12.761 398.423 12.638 397.967 12.638C397.583 12.638 397.22 12.731 396.878 12.917C396.542 13.103 396.269 13.379 396.059 13.745C395.849 14.105 395.744 14.546 395.744 15.068H395.159C395.159 14.222 395.291 13.505 395.555 12.917C395.819 12.329 396.185 11.882 396.653 11.576C397.127 11.264 397.682 11.108 398.318 11.108C399.008 11.108 399.638 11.294 400.208 11.666C400.784 12.032 401.243 12.554 401.585 13.232C401.933 13.91 402.107 14.711 402.107 15.635C402.107 16.565 401.93 17.375 401.576 18.065C401.222 18.749 400.748 19.283 400.154 19.667C399.566 20.045 398.915 20.234 398.201 20.234ZM394.034 20V7.697H395.744V17.921L395.195 20H394.034ZM405.362 20V7.697H407.072V20H405.362ZM414.188 20.234C413.444 20.234 412.772 20.042 412.172 19.658C411.572 19.274 411.095 18.74 410.741 18.056C410.393 17.372 410.219 16.58 410.219 15.68C410.219 14.726 410.393 13.91 410.741 13.232C411.089 12.548 411.563 12.023 412.163 11.657C412.763 11.291 413.438 11.108 414.188 11.108C414.86 11.108 415.436 11.246 415.916 11.522C416.396 11.792 416.783 12.158 417.077 12.62C417.371 13.076 417.572 13.595 417.68 14.177C417.794 14.759 417.815 15.359 417.743 15.977H411.587V14.987H416.573L416.159 15.257C416.177 14.933 416.159 14.609 416.105 14.285C416.057 13.961 415.961 13.664 415.817 13.394C415.673 13.118 415.469 12.899 415.205 12.737C414.947 12.569 414.617 12.485 414.215 12.485C413.711 12.485 413.288 12.611 412.946 12.863C412.61 13.115 412.355 13.454 412.181 13.88C412.007 14.3 411.92 14.762 411.92 15.266V15.959C411.92 16.517 412.004 17.012 412.172 17.444C412.34 17.876 412.589 18.218 412.919 18.47C413.255 18.716 413.678 18.839 414.188 18.839C414.686 18.839 415.097 18.722 415.421 18.488C415.751 18.254 415.955 17.903 416.033 17.435H417.779C417.689 17.999 417.482 18.491 417.158 18.911C416.834 19.331 416.417 19.658 415.907 19.892C415.403 20.12 414.83 20.234 414.188 20.234Z" fill="#030303"/>
<g clip-path="url(#clip0_368_469)">
<path d="M16.5 13.31V14C16.4991 15.6173 15.9754 17.191 15.007 18.4864C14.0386 19.7817 12.6775 20.7294 11.1265 21.1879C9.57557 21.6465 7.91794 21.5914 6.40085 21.0309C4.88376 20.4704 3.58849 19.4346 2.70822 18.0778C1.82795 16.721 1.40984 15.116 1.51626 13.5022C1.62267 11.8884 2.24791 10.3522 3.29871 9.12279C4.34951 7.89335 5.76959 7.03653 7.34714 6.6801C8.92469 6.32367 10.5752 6.48674 12.0525 7.14499" stroke="black" stroke-width="2" stroke-linecap="round" stroke-linejoin="round"/>
<path d="M16.5 8L9 15.5075L6.75 13.2575" stroke="black" stroke-width="2" stroke-linecap="round" stroke-linejoin="round"/>
</g>
<defs>
<clipPath id="clip0_368_469">
<rect width="18" height="18" fill="white" transform="translate(0 5)"/>
</clipPath>
</defs>
</svg>
